<svg width="402" height="244" viewBox="0 0 402 244" fill="none" xmlns="http://www.w3.org/2000/svg">
<g filter="url(#filter0_d_510_1829)">
<path d="M223.615 62.1696H305.059H306.61L303.508 66.3064H226.718L223.615 62.1696Z" stroke="url(#paint0_linear_510_1829)" stroke-width="2.42392"/>
<path d="M158.719 63.7186H181.988L183.798 64.7635H189.228L190.262 63.7186H219.478L225.683 69.9238H304.8L311.006 63.7186H338.412L339.705 65.0114H345.91L346.657 63.7186H367.887L396.069 91.9008V100.95M396.069 106.897V110.775M396.069 116.205V123.186L391.157 128.357V160.158L396.069 166.105V176.189M396.069 181.36V186.531M396.069 190.668V196.873L381.073 211.869H286.96L274.55 224.279H159.494" stroke="url(#paint1_linear_510_1829)" stroke-width="2.42392"/>
<path d="M375.126 218.333H289.287L282.823 224.797H368.662L375.126 218.333Z" stroke="url(#paint2_linear_510_1829)" stroke-width="2.42392"/>
<path d="M275.067 212.645L267.569 220.143H257.227L264.725 212.645H275.067Z" stroke="url(#paint3_linear_510_1829)" stroke-width="2.42392"/>
<path d="M254.9 212.645L247.402 220.143H237.06L244.558 212.645H254.9Z" stroke="url(#paint4_linear_510_1829)" stroke-width="2.42392"/>
<path d="M234.733 212.645L227.235 220.143H216.893L224.391 212.645H234.733Z" stroke="url(#paint5_linear_510_1829)" stroke-width="2.42392"/>
<path d="M214.566 212.645L207.068 220.143H196.726L204.224 212.645H214.566Z" stroke="url(#paint6_linear_510_1829)" stroke-width="2.42392"/>
<path d="M194.399 212.645L186.901 220.143H176.559L184.057 212.645H194.399Z" stroke="url(#paint7_linear_510_1829)" stroke-width="2.42392"/>
</g>
<path d="M7.77441 171.477H18.3767M178.622 171.477H189.224" stroke="#89E4E8" stroke-width="0.95"/>
<path d="M19.2507 175.483V175.481C19.2282 175.153 19.1792 174.762 19.1648 174.373C19.0095 174.22 18.8542 174.066 18.699 173.91L18.7019 174.023V174.033C18.7019 174.217 18.7115 174.412 18.7302 174.616L18.7732 175.089C18.9337 175.24 19.0942 175.39 19.2546 175.539L19.2507 175.483Z" stroke="#89E4E8" stroke-width="0.95"/>
<path d="M21.1667 177.162L21.0662 176.14C20.9101 175.998 20.7535 175.857 20.5974 175.715L20.6902 176.824C20.8438 176.961 21.0031 177.097 21.1667 177.234V177.162Z" stroke="#89E4E8" stroke-width="0.95"/>
<path d="M22.9922 177.789C22.9058 177.717 22.8212 177.647 22.7402 177.577C22.6575 177.507 22.5754 177.44 22.4941 177.372C22.4963 177.388 22.4987 177.403 22.501 177.418L22.6523 178.431C22.8134 178.56 22.9747 178.687 23.1357 178.815L22.9922 177.789Z" stroke="#89E4E8" stroke-width="0.95"/>
<path d="M25.1252 180.283L25.1223 180.26L25.095 180.008L25.0383 179.725L25.0354 179.711L24.9749 179.327C24.8125 179.203 24.6499 179.078 24.4875 178.953C24.4892 178.965 24.4918 178.977 24.4934 178.989C24.5368 179.316 24.5812 179.639 24.6282 179.961C24.7956 180.075 24.9625 180.188 25.1282 180.3L25.1252 180.283Z" stroke="#89E4E8" stroke-width="0.95"/>
<path d="M20.9768 185.51C20.9858 185.477 20.9931 185.433 20.9836 185.381L20.9817 185.374C20.9706 185.309 20.9387 185.262 20.9094 185.236C20.8985 185.264 20.8886 185.312 20.8997 185.372L20.9006 185.379C20.9095 185.431 20.9392 185.479 20.9768 185.51Z" stroke="#89E4E8" stroke-width="0.95"/>
<path d="M21.5012 187.619C21.5084 187.594 21.5154 187.548 21.4993 187.483C21.4807 187.42 21.4434 187.367 21.4045 187.335C21.3953 187.364 21.3875 187.407 21.4016 187.463C21.4215 187.541 21.4615 187.59 21.4924 187.613C21.4954 187.616 21.4987 187.618 21.5012 187.619Z" stroke="#89E4E8" stroke-width="0.95"/>
<path d="M22.0698 189.693C22.0769 189.664 22.0822 189.624 22.0728 189.572C22.0629 189.552 22.0503 189.53 22.0327 189.508C22.0089 189.479 21.9832 189.456 21.9624 189.442L21.9546 189.437C21.954 189.443 21.952 189.449 21.9517 189.455C21.9501 189.487 21.9537 189.503 21.9565 189.511L21.9604 189.522C21.9886 189.605 22.0327 189.66 22.0698 189.693Z" stroke="#89E4E8" stroke-width="0.95"/>
<path d="M22.7244 191.733L22.7117 191.66L22.7078 191.649C22.6806 191.569 22.6387 191.519 22.6072 191.49C22.6022 191.517 22.5996 191.559 22.6189 191.616L22.6238 191.629L22.6277 191.643C22.641 191.691 22.6739 191.733 22.7107 191.758C22.7135 191.76 22.7161 191.761 22.7185 191.763C22.7204 191.754 22.7242 191.744 22.7244 191.733Z" stroke="#89E4E8" stroke-width="0.95"/>
<path d="M23.4443 193.801C23.447 193.775 23.4471 193.736 23.4326 193.685C23.3953 193.613 23.3508 193.569 23.3174 193.547C23.3169 193.573 23.3203 193.607 23.334 193.645L23.3379 193.655C23.3637 193.732 23.4079 193.777 23.4424 193.799L23.4443 193.801Z" stroke="#89E4E8" stroke-width="0.95"/>
<path d="M29.0464 205.25C29.1016 204.954 29.1592 204.659 29.2231 204.368L29.2271 204.351C29.4057 203.666 29.5752 202.981 29.7339 202.296L29.7349 202.288L29.7378 202.28C29.9178 201.608 30.0969 200.945 30.2769 200.291L30.2798 200.28L30.2837 200.27C30.4828 199.661 30.6724 199.06 30.855 198.467C30.76 198.263 30.6593 198.057 30.5513 197.845C30.4175 197.582 30.2768 197.305 30.1509 197.019L29.4321 195.387L29.0728 194.57L29.0649 194.552L29.0581 194.533L28.9165 194.122L28.7427 193.728L28.7368 193.712L28.731 193.697L28.5229 193.123C27.5681 195.232 26.7382 197.423 26.0337 199.697L26.8169 201.267C26.9663 201.565 27.1112 201.853 27.2544 202.113L27.7339 202.957L27.7358 202.96L28.6938 204.674L28.6929 204.675C28.741 204.751 28.7829 204.822 28.8149 204.88C28.8536 204.95 28.8828 205.002 28.9155 205.052L29.0464 205.25Z" stroke="#89E4E8" stroke-width="0.95"/>
<path d="M35.741 213.597L35.7429 213.569C35.7569 213.404 35.7637 213.244 35.7712 213.072C35.7785 212.908 35.7864 212.734 35.8015 212.551V212.55L35.8611 211.488L35.863 211.475C35.9233 210.781 35.9936 210.087 36.074 209.394V209.393L36.1931 208.386L36.1951 208.374L36.3171 207.527C35.6686 206.609 34.9815 205.662 34.3767 204.669L33.4177 203.147C33.3182 203.007 33.2368 202.867 33.1677 202.741C33.1364 202.684 33.1064 202.634 33.0798 202.585C33.0023 202.876 32.9211 203.169 32.8435 203.466C32.7049 204.114 32.5671 204.779 32.4285 205.463C32.359 205.806 32.2918 206.148 32.2273 206.49L32.0417 207.517C31.9342 208.152 31.8515 208.789 31.7693 209.434C31.922 209.645 32.0756 209.857 32.2283 210.069L32.7976 210.857L34.0125 212.39L34.0183 212.398L34.6169 213.188L34.9041 213.553L35.2273 213.925L35.2283 213.926L35.7146 214.492C35.723 214.194 35.7325 213.895 35.741 213.597Z" stroke="#89E4E8" stroke-width="0.95"/>
<path d="M43.8596 222.655C43.72 221.651 43.5998 220.665 43.5002 219.696V219.688C43.3852 218.331 43.3068 217.005 43.2649 215.713L42.134 214.538L42.1272 214.53L41.4983 213.851C41.3261 213.673 41.0589 213.423 40.8586 213.158L39.6633 211.775L39.2229 211.275C39.0489 213.531 39.0163 215.856 39.1096 218.203L39.6575 218.786L40.3762 219.466L40.3792 219.47L41.8176 220.856L42.1819 221.161L42.1887 221.167L42.1965 221.173C42.2564 221.227 42.3163 221.283 42.3762 221.337C42.436 221.391 42.4962 221.446 42.5559 221.5L43.2932 222.17L43.8596 222.655Z" stroke="#89E4E8" stroke-width="0.95"/>
<path d="M53.2979 229.562C52.568 227.299 51.9822 225.048 51.541 222.808L50.9414 222.371L50.9326 222.365L50.1846 221.794L50.1768 221.788L48.7451 220.651L48.3545 220.351C48.2221 220.258 48.0932 220.141 47.9863 220.02L47.293 219.442L47.2852 219.436L46.7754 218.993C46.8715 219.943 46.9818 220.907 47.1074 221.884C47.3164 223.178 47.5618 224.498 47.8438 225.843L49.3398 226.904H49.3408L50.1777 227.502C50.3123 227.597 50.4474 227.692 50.582 227.787C50.7144 227.881 50.8462 227.975 50.9785 228.069L52.7061 229.176L52.707 229.178L53.2979 229.562Z" stroke="#89E4E8" stroke-width="0.95"/>
<path d="M63.436 234.305C63.1147 233.666 62.8027 233.019 62.5015 232.362C62.2003 231.724 61.9096 231.086 61.6284 230.447L61.6235 230.438C61.3741 229.834 61.1508 229.23 60.9321 228.635L59.4185 227.849L59.3989 227.839L57.7534 226.888L56.9448 226.425L56.937 226.42L56.9282 226.415L56.5386 226.17L56.1333 225.934L56.1206 225.927L56.1099 225.919L55.5835 225.571C55.6561 225.836 55.7302 226.102 55.8091 226.367L55.812 226.376C55.8997 226.695 55.9876 227.018 56.0767 227.367L56.4028 228.337C56.6211 228.986 56.8493 229.652 57.0874 230.337C57.2052 230.658 57.3334 230.988 57.4712 231.328L57.4722 231.332L57.7954 232.147C58.9801 232.753 60.1098 233.362 61.3013 233.903L61.3062 233.906L63.1567 234.775L63.1577 234.774C63.3676 234.869 63.5935 234.965 63.8276 235.063C63.6942 234.81 63.5633 234.558 63.436 234.305Z" stroke="#89E4E8" stroke-width="0.95"/>
<path d="M74.6526 238.322L74.6477 238.315L74.6418 238.309C74.5406 238.164 74.4394 238.025 74.3342 237.882C74.2298 237.74 74.1212 237.592 74.0129 237.437L74.0071 237.429L73.4143 236.54C72.9923 235.938 72.5896 235.344 72.2073 234.76L72.2024 234.752L72.1985 234.744L71.6594 233.847L71.6555 233.841C71.5063 233.585 71.3553 233.337 71.2063 233.094L69.5676 232.498L68.6692 232.172L68.6575 232.167L68.6467 232.162L67.7571 231.785L65.9895 231.078C65.8222 231.016 65.6179 230.911 65.5481 230.879L65.3899 230.811C65.5013 231.061 65.6108 231.307 65.7258 231.547L65.7249 231.548C66.0403 232.157 66.3567 232.774 66.6721 233.4C67.0105 234.015 67.3587 234.639 67.717 235.271L67.7161 235.272C68.0459 235.838 68.3859 236.403 68.7327 236.969C69.3411 237.196 69.9099 237.415 70.5071 237.612L72.5012 238.206L72.5149 238.21L73.4905 238.532L73.9856 238.665L73.9924 238.667L74.4583 238.8L74.4592 238.799L75.1526 238.976C74.9848 238.758 74.8176 238.54 74.6526 238.322Z" stroke="#89E4E8" stroke-width="0.95"/>
<mask id="path-25-inside-1_510_1829" fill="white">
<path d="M27.8898 189.81L27.3208 190.952L27.171 191.251L27.0513 191.523L26.8117 192.122C26.4523 192.902 26.1128 193.69 25.7933 194.488C25.4639 195.304 25.1943 196.12 24.8948 196.936C24.6153 197.77 24.3358 198.614 24.0563 199.466C26.602 204.824 29.8067 209.911 33.6403 214.589L35.1378 216.303L35.8865 217.173C36.1261 217.445 36.3956 217.717 36.6652 217.989L38.2226 219.648L38.4323 219.839L38.6419 220.056L39.0612 220.437L39.8698 221.226L40.7084 222.015C40.8582 222.151 40.978 222.287 41.1278 222.423L41.577 222.803L43.3141 224.299L43.7334 224.68C43.8932 224.789 44.0429 224.907 44.1827 225.034L45.1111 225.741L46.0096 226.475C46.3091 226.693 46.6086 226.938 46.9381 227.155L48.8249 228.515C49.1244 228.733 49.4539 228.978 49.7833 229.195L50.7417 229.821L52.7184 231.099C53.3973 231.498 54.0662 231.888 54.7251 232.269L55.7433 232.867C55.923 232.958 56.0928 233.049 56.2525 233.139L56.7916 233.411L58.8881 234.499C59.0378 234.608 59.2176 234.69 59.3973 234.771L59.9363 235.016L61.0146 235.533L62.0928 236.023L62.6019 236.267C62.7816 236.349 62.9913 236.431 63.171 236.512L65.3573 237.41L65.8964 237.627C66.0761 237.7 66.2658 237.772 66.4655 237.845L67.5736 238.253L69.8198 239.042L72.0961 239.749L73.2342 240.103L73.5337 240.184L73.8332 240.266L74.4022 240.402L76.7084 241L77.3074 241.163L77.8764 241.272L79.0445 241.517L80.2425 241.762L80.8116 241.898L81.1111 241.952L81.4106 242.007C82.2292 241.608 83.0378 241.209 83.8365 240.81C84.6152 240.402 85.3939 239.994 86.1726 239.559C86.9313 239.123 87.6801 238.679 88.4188 238.226L89.4971 237.573C89.8565 237.328 90.2158 237.083 90.5752 236.866L91.0245 236.539C91.0844 236.512 91.1742 236.485 91.2341 236.485L92.7017 236.594C92.9413 236.612 93.1809 236.63 93.4205 236.648H94.1692L97.0744 236.73L99.9796 236.648H100.698C100.938 236.63 101.178 236.612 101.417 236.594L102.885 236.485C102.975 236.485 103.034 236.512 103.094 236.539L103.574 236.866C103.933 237.083 104.262 237.328 104.622 237.573L105.73 238.226C106.469 238.679 107.217 239.123 107.976 239.559C108.755 239.994 109.504 240.402 110.312 240.81C111.091 241.209 111.9 241.608 112.738 242.007L113.008 241.952L113.307 241.898L113.906 241.762L115.074 241.517L116.242 241.272L116.841 241.163L117.41 241L119.747 240.402L120.316 240.266L120.615 240.184L120.885 240.103L122.023 239.749L124.299 239.042L126.545 238.253L127.683 237.845C127.863 237.772 128.043 237.7 128.222 237.627L128.791 237.41L130.978 236.512C131.158 236.431 131.337 236.349 131.517 236.267L132.056 236.023L133.134 235.533L134.182 235.016L134.722 234.771C134.901 234.69 135.081 234.608 135.261 234.499L137.357 233.411L137.866 233.139C138.046 233.049 138.216 232.958 138.375 232.867L139.394 232.269C140.073 231.888 140.752 231.498 141.43 231.099L143.377 229.821L144.366 229.195C144.695 228.978 144.994 228.733 145.324 228.515L147.211 227.155C147.51 226.938 147.81 226.693 148.109 226.475L149.038 225.741L149.936 225.034C150.096 224.907 150.246 224.789 150.385 224.68L150.835 224.299L152.572 222.803L152.991 222.423C153.141 222.287 153.291 222.151 153.41 222.015L154.249 221.226L155.088 220.437L155.507 220.056L155.717 219.839L155.896 219.648L157.484 217.989C157.723 217.717 157.993 217.445 158.262 217.173L159.011 216.303L160.479 214.589C164.312 209.911 167.547 204.824 170.063 199.466C169.803 198.614 169.524 197.77 169.224 196.936C168.954 196.12 168.685 195.304 168.326 194.488C168.006 193.69 167.677 192.902 167.337 192.122L167.068 191.523L166.948 191.251L166.798 190.952L166.229 189.81C166.169 189.701 166.229 189.538 166.349 189.456C166.439 189.375 166.588 189.402 166.648 189.511L167.217 190.68C167.427 191.061 167.607 191.469 167.786 191.85C168.126 192.63 168.465 193.427 168.805 194.243C168.964 194.66 169.124 195.078 169.284 195.495L169.733 196.719C170.013 197.553 170.282 198.405 170.542 199.275C170.572 199.33 170.572 199.439 170.542 199.493C167.996 204.933 164.761 210.047 160.898 214.779L159.4 216.52L158.652 217.391C158.382 217.663 158.113 217.935 157.873 218.234L156.256 219.893C156.016 220.165 155.717 220.437 155.447 220.709L154.608 221.498L153.77 222.287C153.63 222.432 153.49 222.568 153.351 222.695L152.901 223.075L151.164 224.599L150.715 224.979C150.565 225.088 150.415 225.224 150.266 225.333L149.337 226.067L148.409 226.775C148.109 227.019 147.81 227.264 147.48 227.482L145.593 228.842C145.264 229.087 144.935 229.304 144.635 229.522L143.647 230.175L141.64 231.453L139.603 232.65L138.585 233.221C138.425 233.33 138.256 233.429 138.076 233.52L137.537 233.792L135.44 234.88C135.081 235.071 134.722 235.234 134.362 235.424L133.284 235.914L132.206 236.431L131.667 236.675C131.467 236.748 131.277 236.82 131.098 236.893C129.63 237.491 128.163 238.144 126.635 238.661C125.886 238.933 125.138 239.205 124.389 239.45L122.083 240.184L120.915 240.538C120.525 240.647 120.136 240.728 119.747 240.837L117.41 241.435C117.021 241.544 116.632 241.626 116.242 241.707L115.044 241.952L113.876 242.197C113.457 242.279 113.068 242.36 112.678 242.442C112.589 242.442 112.499 242.442 112.439 242.415C111.281 241.852 110.143 241.281 109.024 240.701C108.755 240.565 108.485 240.402 108.216 240.239L107.407 239.776C106.868 239.468 106.329 239.16 105.79 238.851L104.772 238.96C104.442 238.987 104.083 239.015 103.753 239.042L101.687 239.178L101.178 239.205L100.908 239.232H100.668L99.6201 239.259L97.5536 239.314L97.0744 238.933L96.5652 239.314L94.4987 239.259L93.4804 239.232H93.2108L92.9712 239.205L92.4621 239.178L90.3956 239.042C90.0362 239.015 89.7067 238.987 89.3473 238.96L88.329 238.851C87.8098 239.16 87.2807 239.468 86.7416 239.776L85.933 240.239C85.6634 240.402 85.3639 240.565 85.0944 240.701C83.9962 241.281 82.8681 241.852 81.7101 242.415C81.6502 242.442 81.5603 242.442 81.4405 242.442C81.0511 242.36 80.6618 242.279 80.2724 242.197L79.0744 241.952L77.9064 241.707C77.4871 241.626 77.0977 241.544 76.7084 241.435L74.3723 240.837C73.983 240.728 73.5936 240.647 73.2042 240.538L72.0661 240.184L69.76 239.45C68.9813 239.205 68.2326 238.933 67.4838 238.661C65.9564 238.144 64.5187 237.491 63.0212 236.893C62.8415 236.82 62.6618 236.748 62.4821 236.675L61.943 236.431L60.8648 235.914L59.7567 235.424C59.3973 235.234 59.0379 235.071 58.7084 234.88L56.582 233.792L56.0728 233.52C55.8931 233.429 55.7134 233.33 55.5337 233.221L54.5154 232.65L52.4788 231.453L50.5021 230.175L49.5138 229.522C49.1843 229.304 48.8548 229.087 48.5553 228.842L46.6386 227.482C46.3091 227.264 46.0096 227.019 45.7101 226.775L44.7817 226.067L43.8832 225.333C43.7334 225.224 43.5837 225.088 43.4339 224.979L42.9847 224.599L41.2176 223.075L40.7983 222.695C40.6386 222.568 40.4888 222.432 40.3491 222.287L39.5104 221.498L38.7018 220.709C38.4023 220.437 38.1327 220.165 37.8632 219.893L36.2758 218.234C36.0063 217.935 35.7368 217.663 35.4972 217.391L34.7184 216.52L33.2209 214.779C29.3873 210.047 26.1228 204.933 23.607 199.493C23.5471 199.439 23.5471 199.33 23.577 199.275C23.8566 198.405 24.1361 197.553 24.4157 196.719L24.8349 195.495C25.0146 195.078 25.1843 194.66 25.3441 194.243C25.6635 193.427 26.003 192.63 26.3624 191.85C26.5122 191.469 26.7218 191.061 26.9015 190.68L27.4705 189.511C27.5304 189.402 27.6802 189.375 27.8 189.456C27.9198 189.538 27.9497 189.701 27.8898 189.81Z"/>
</mask>
<path d="M27.8898 189.81L27.3208 190.952L27.171 191.251L27.0513 191.523L26.8117 192.122C26.4523 192.902 26.1128 193.69 25.7933 194.488C25.4639 195.304 25.1943 196.12 24.8948 196.936C24.6153 197.77 24.3358 198.614 24.0563 199.466C26.602 204.824 29.8067 209.911 33.6403 214.589L35.1378 216.303L35.8865 217.173C36.1261 217.445 36.3956 217.717 36.6652 217.989L38.2226 219.648L38.4323 219.839L38.6419 220.056L39.0612 220.437L39.8698 221.226L40.7084 222.015C40.8582 222.151 40.978 222.287 41.1278 222.423L41.577 222.803L43.3141 224.299L43.7334 224.68C43.8932 224.789 44.0429 224.907 44.1827 225.034L45.1111 225.741L46.0096 226.475C46.3091 226.693 46.6086 226.938 46.9381 227.155L48.8249 228.515C49.1244 228.733 49.4539 228.978 49.7833 229.195L50.7417 229.821L52.7184 231.099C53.3973 231.498 54.0662 231.888 54.7251 232.269L55.7433 232.867C55.923 232.958 56.0928 233.049 56.2525 233.139L56.7916 233.411L58.8881 234.499C59.0378 234.608 59.2176 234.69 59.3973 234.771L59.9363 235.016L61.0146 235.533L62.0928 236.023L62.6019 236.267C62.7816 236.349 62.9913 236.431 63.171 236.512L65.3573 237.41L65.8964 237.627C66.0761 237.7 66.2658 237.772 66.4655 237.845L67.5736 238.253L69.8198 239.042L72.0961 239.749L73.2342 240.103L73.5337 240.184L73.8332 240.266L74.4022 240.402L76.7084 241L77.3074 241.163L77.8764 241.272L79.0445 241.517L80.2425 241.762L80.8116 241.898L81.1111 241.952L81.4106 242.007C82.2292 241.608 83.0378 241.209 83.8365 240.81C84.6152 240.402 85.3939 239.994 86.1726 239.559C86.9313 239.123 87.6801 238.679 88.4188 238.226L89.4971 237.573C89.8565 237.328 90.2158 237.083 90.5752 236.866L91.0245 236.539C91.0844 236.512 91.1742 236.485 91.2341 236.485L92.7017 236.594C92.9413 236.612 93.1809 236.63 93.4205 236.648H94.1692L97.0744 236.73L99.9796 236.648H100.698C100.938 236.63 101.178 236.612 101.417 236.594L102.885 236.485C102.975 236.485 103.034 236.512 103.094 236.539L103.574 236.866C103.933 237.083 104.262 237.328 104.622 237.573L105.73 238.226C106.469 238.679 107.217 239.123 107.976 239.559C108.755 239.994 109.504 240.402 110.312 240.81C111.091 241.209 111.9 241.608 112.738 242.007L113.008 241.952L113.307 241.898L113.906 241.762L115.074 241.517L116.242 241.272L116.841 241.163L117.41 241L119.747 240.402L120.316 240.266L120.615 240.184L120.885 240.103L122.023 239.749L124.299 239.042L126.545 238.253L127.683 237.845C127.863 237.772 128.043 237.7 128.222 237.627L128.791 237.41L130.978 236.512C131.158 236.431 131.337 236.349 131.517 236.267L132.056 236.023L133.134 235.533L134.182 235.016L134.722 234.771C134.901 234.69 135.081 234.608 135.261 234.499L137.357 233.411L137.866 233.139C138.046 233.049 138.216 232.958 138.375 232.867L139.394 232.269C140.073 231.888 140.752 231.498 141.43 231.099L143.377 229.821L144.366 229.195C144.695 228.978 144.994 228.733 145.324 228.515L147.211 227.155C147.51 226.938 147.81 226.693 148.109 226.475L149.038 225.741L149.936 225.034C150.096 224.907 150.246 224.789 150.385 224.68L150.835 224.299L152.572 222.803L152.991 222.423C153.141 222.287 153.291 222.151 153.41 222.015L154.249 221.226L155.088 220.437L155.507 220.056L155.717 219.839L155.896 219.648L157.484 217.989C157.723 217.717 157.993 217.445 158.262 217.173L159.011 216.303L160.479 214.589C164.312 209.911 167.547 204.824 170.063 199.466C169.803 198.614 169.524 197.77 169.224 196.936C168.954 196.12 168.685 195.304 168.326 194.488C168.006 193.69 167.677 192.902 167.337 192.122L167.068 191.523L166.948 191.251L166.798 190.952L166.229 189.81C166.169 189.701 166.229 189.538 166.349 189.456C166.439 189.375 166.588 189.402 166.648 189.511L167.217 190.68C167.427 191.061 167.607 191.469 167.786 191.85C168.126 192.63 168.465 193.427 168.805 194.243C168.964 194.66 169.124 195.078 169.284 195.495L169.733 196.719C170.013 197.553 170.282 198.405 170.542 199.275C170.572 199.33 170.572 199.439 170.542 199.493C167.996 204.933 164.761 210.047 160.898 214.779L159.4 216.52L158.652 217.391C158.382 217.663 158.113 217.935 157.873 218.234L156.256 219.893C156.016 220.165 155.717 220.437 155.447 220.709L154.608 221.498L153.77 222.287C153.63 222.432 153.49 222.568 153.351 222.695L152.901 223.075L151.164 224.599L150.715 224.979C150.565 225.088 150.415 225.224 150.266 225.333L149.337 226.067L148.409 226.775C148.109 227.019 147.81 227.264 147.48 227.482L145.593 228.842C145.264 229.087 144.935 229.304 144.635 229.522L143.647 230.175L141.64 231.453L139.603 232.65L138.585 233.221C138.425 233.33 138.256 233.429 138.076 233.52L137.537 233.792L135.44 234.88C135.081 235.071 134.722 235.234 134.362 235.424L133.284 235.914L132.206 236.431L131.667 236.675C131.467 236.748 131.277 236.82 131.098 236.893C129.63 237.491 128.163 238.144 126.635 238.661C125.886 238.933 125.138 239.205 124.389 239.45L122.083 240.184L120.915 240.538C120.525 240.647 120.136 240.728 119.747 240.837L117.41 241.435C117.021 241.544 116.632 241.626 116.242 241.707L115.044 241.952L113.876 242.197C113.457 242.279 113.068 242.36 112.678 242.442C112.589 242.442 112.499 242.442 112.439 242.415C111.281 241.852 110.143 241.281 109.024 240.701C108.755 240.565 108.485 240.402 108.216 240.239L107.407 239.776C106.868 239.468 106.329 239.16 105.79 238.851L104.772 238.96C104.442 238.987 104.083 239.015 103.753 239.042L101.687 239.178L101.178 239.205L100.908 239.232H100.668L99.6201 239.259L97.5536 239.314L97.0744 238.933L96.5652 239.314L94.4987 239.259L93.4804 239.232H93.2108L92.9712 239.205L92.4621 239.178L90.3956 239.042C90.0362 239.015 89.7067 238.987 89.3473 238.96L88.329 238.851C87.8098 239.16 87.2807 239.468 86.7416 239.776L85.933 240.239C85.6634 240.402 85.3639 240.565 85.0944 240.701C83.9962 241.281 82.8681 241.852 81.7101 242.415C81.6502 242.442 81.5603 242.442 81.4405 242.442C81.0511 242.36 80.6618 242.279 80.2724 242.197L79.0744 241.952L77.9064 241.707C77.4871 241.626 77.0977 241.544 76.7084 241.435L74.3723 240.837C73.983 240.728 73.5936 240.647 73.2042 240.538L72.0661 240.184L69.76 239.45C68.9813 239.205 68.2326 238.933 67.4838 238.661C65.9564 238.144 64.5187 237.491 63.0212 236.893C62.8415 236.82 62.6618 236.748 62.4821 236.675L61.943 236.431L60.8648 235.914L59.7567 235.424C59.3973 235.234 59.0379 235.071 58.7084 234.88L56.582 233.792L56.0728 233.52C55.8931 233.429 55.7134 233.33 55.5337 233.221L54.5154 232.65L52.4788 231.453L50.5021 230.175L49.5138 229.522C49.1843 229.304 48.8548 229.087 48.5553 228.842L46.6386 227.482C46.3091 227.264 46.0096 227.019 45.7101 226.775L44.7817 226.067L43.8832 225.333C43.7334 225.224 43.5837 225.088 43.4339 224.979L42.9847 224.599L41.2176 223.075L40.7983 222.695C40.6386 222.568 40.4888 222.432 40.3491 222.287L39.5104 221.498L38.7018 220.709C38.4023 220.437 38.1327 220.165 37.8632 219.893L36.2758 218.234C36.0063 217.935 35.7368 217.663 35.4972 217.391L34.7184 216.52L33.2209 214.779C29.3873 210.047 26.1228 204.933 23.607 199.493C23.5471 199.439 23.5471 199.33 23.577 199.275C23.8566 198.405 24.1361 197.553 24.4157 196.719L24.8349 195.495C25.0146 195.078 25.1843 194.66 25.3441 194.243C25.6635 193.427 26.003 192.63 26.3624 191.85C26.5122 191.469 26.7218 191.061 26.9015 190.68L27.4705 189.511C27.5304 189.402 27.6802 189.375 27.8 189.456C27.9198 189.538 27.9497 189.701 27.8898 189.81Z" stroke="#89E4E8" stroke-width="1.9" mask="url(#path-25-inside-1_510_1829)"/>
<path d="M68.3652 225.357C68.1499 224.854 67.9661 224.352 67.7871 223.864C67.6062 223.371 67.4345 222.888 67.2734 222.412L67.0342 221.705L66.9141 221.351L66.9111 221.341L66.8496 221.147L65.2246 220.285L65.2197 220.283L64.7715 220.039C64.6104 219.964 64.4568 219.881 64.3115 219.788L63.4131 219.272L63.4072 219.268L62.5439 218.755C62.4726 218.716 62.4015 218.677 62.3301 218.638C62.2552 218.597 62.1803 218.556 62.1055 218.515L62.0889 218.506L62.0742 218.496L61.6543 218.225L61.6533 218.224L60.8584 217.705C60.9686 218.333 61.0846 218.969 61.2109 219.611L61.2129 219.621C61.2996 220.12 61.4158 220.594 61.5361 221.086L61.5352 221.087C61.6562 221.527 61.7697 221.961 61.876 222.388L62.6523 222.851C62.97 223.013 63.2971 223.185 63.6338 223.364C63.965 223.529 64.2886 223.698 64.6055 223.865C64.9244 224.034 65.2377 224.199 65.5566 224.358L67.5625 225.282L67.5703 225.285L68.0781 225.531L68.3018 225.632L68.5146 225.718C68.464 225.597 68.4158 225.476 68.3652 225.357Z" stroke="#89E4E8" stroke-width="0.95"/>
<path d="M78.521 229.177C78.1641 228.619 77.8225 228.062 77.4966 227.504L77.4917 227.497C77.0046 226.629 76.5357 225.777 76.0835 224.941C75.4759 224.754 74.8892 224.531 74.3052 224.314L73.3247 223.988L73.311 223.985L73.2983 223.98L72.8188 223.789C72.6515 223.731 72.4847 223.665 72.3188 223.59L70.4175 222.808C70.2831 222.759 70.1201 222.699 69.9526 222.611L69.563 222.434C69.6071 222.556 69.6514 222.679 69.6968 222.803C69.8114 223.115 69.8394 223.273 69.9468 223.492L69.9565 223.512L69.9644 223.531L70.2339 224.239C70.6044 225.114 70.9928 225.996 71.3979 226.887L73.3062 227.579L73.312 227.581C73.6882 227.724 73.9916 227.85 74.3306 227.952L76.4868 228.605L76.4937 228.608L76.9946 228.769L76.9956 228.768C77.0854 228.795 77.1753 228.823 77.2651 228.85C77.353 228.876 77.4409 228.903 77.5288 228.93L78.521 229.177Z" stroke="#89E4E8" stroke-width="0.95"/>
<path d="M178.226 175.084L178.267 174.643V174.023L178.269 173.911C178.114 174.066 177.96 174.219 177.806 174.371C177.798 174.751 177.773 175.111 177.748 175.456L177.747 175.465L177.741 175.525C177.902 175.378 178.064 175.231 178.226 175.084Z" stroke="#89E4E8" stroke-width="0.95"/>
<path d="M176.307 176.817L176.401 175.704C176.237 175.85 176.072 175.995 175.906 176.141L175.832 177.17L175.83 177.183L175.826 177.222C175.989 177.087 176.149 176.951 176.307 176.817Z" stroke="#89E4E8" stroke-width="0.95"/>
<path d="M174.346 178.427L174.496 177.402C174.498 177.385 174.499 177.369 174.5 177.353C174.33 177.502 174.152 177.651 173.975 177.794L173.832 178.823C174.002 178.692 174.174 178.56 174.346 178.427Z" stroke="#89E4E8" stroke-width="0.95"/>
<path d="M171.838 180.311C172.007 180.195 172.175 180.079 172.343 179.962C172.392 179.635 172.443 179.308 172.492 178.981C172.494 178.969 172.495 178.957 172.497 178.945C172.328 179.073 172.16 179.201 171.993 179.328L171.937 179.693C171.933 179.8 171.922 179.91 171.901 180.022L171.9 180.03L171.898 180.038L171.838 180.311Z" stroke="#89E4E8" stroke-width="0.95"/>
<path d="M173.146 185.52C173.175 185.494 173.207 185.445 173.218 185.379L173.223 185.356L173.229 185.332C173.239 185.293 173.233 185.26 173.224 185.236C173.196 185.26 173.159 185.311 173.135 185.393C173.126 185.449 173.135 185.493 173.146 185.52Z" stroke="#89E4E8" stroke-width="0.95"/>
<path d="M172.626 187.613C172.657 187.59 172.697 187.541 172.717 187.463C172.731 187.408 172.727 187.364 172.722 187.333C172.72 187.335 172.717 187.335 172.715 187.337C172.685 187.36 172.656 187.397 172.635 187.442L172.617 187.488C172.605 187.545 172.614 187.588 172.624 187.614L172.626 187.613Z" stroke="#89E4E8" stroke-width="0.95"/>
<path d="M172.061 189.692C172.094 189.668 172.131 189.623 172.148 189.557L172.155 189.533L172.163 189.511C172.176 189.473 172.178 189.446 172.177 189.428L172.158 189.442L172.123 189.48C172.107 189.502 172.088 189.536 172.069 189.586C172.053 189.634 172.052 189.671 172.055 189.694C172.057 189.693 172.059 189.693 172.061 189.692Z" stroke="#89E4E8" stroke-width="0.95"/>
<path d="M171.422 191.762C171.454 191.74 171.494 191.694 171.523 191.628C171.537 191.56 171.531 191.51 171.524 191.479L171.467 191.537C171.449 191.563 171.432 191.596 171.417 191.638C171.41 191.668 171.407 191.696 171.408 191.722C171.408 191.74 171.413 191.754 171.416 191.766C171.418 191.765 171.42 191.764 171.422 191.762Z" stroke="#89E4E8" stroke-width="0.95"/>
<path d="M170.702 193.791C170.735 193.766 170.78 193.718 170.817 193.636C170.829 193.599 170.831 193.567 170.83 193.542C170.827 193.544 170.822 193.544 170.819 193.546C170.781 193.568 170.742 193.611 170.72 193.669C170.703 193.722 170.701 193.763 170.702 193.791Z" stroke="#89E4E8" stroke-width="0.95"/>
<path d="M165.226 205.064C165.297 204.917 165.398 204.75 165.453 204.65L165.457 204.644L166.415 202.957L166.892 202.12V202.119C166.958 201.999 167.019 201.87 167.086 201.725L167.302 201.266L168.084 199.697C167.378 197.418 166.554 195.222 165.611 193.11L165.385 193.704L165.237 194.108L165.232 194.121L165.227 194.135L165.047 194.543L164.689 195.381L164.688 195.387L163.969 197.019C163.75 197.516 163.504 197.995 163.267 198.471C163.465 199.066 163.656 199.668 163.838 200.278C164.04 200.938 164.221 201.606 164.383 202.283C164.564 202.976 164.734 203.669 164.895 204.362L164.896 204.368C164.963 204.67 165.022 204.977 165.079 205.285L165.226 205.064Z" stroke="#89E4E8" stroke-width="0.95"/>
<path d="M158.891 213.926L158.892 213.925L159.214 213.553L159.506 213.181L159.508 213.178L160.137 212.39L161.33 210.844C161.517 210.585 161.704 210.327 161.891 210.069C162.044 209.857 162.196 209.644 162.349 209.432C162.289 208.951 162.23 208.493 162.16 208.034L162.076 207.515C161.958 206.831 161.829 206.147 161.691 205.463H161.69L161.688 205.449C161.57 204.771 161.433 204.111 161.276 203.469L161.274 203.463C161.205 203.169 161.133 202.878 161.057 202.59C160.952 202.766 160.831 202.965 160.7 203.147H160.701L159.742 204.669C159.163 205.665 158.445 206.621 157.801 207.529L157.924 208.374L157.925 208.386L158.045 209.393V209.394C158.126 210.087 158.196 210.781 158.256 211.475V211.476L158.346 212.536C158.362 212.725 158.37 212.906 158.374 213.083L158.378 213.61C158.394 213.899 158.407 214.188 158.416 214.478L158.891 213.926Z" stroke="#89E4E8" stroke-width="0.95"/>
<path d="M150.825 222.17L151.564 221.5L151.576 221.487L151.591 221.477C151.722 221.374 151.842 221.273 151.952 221.173L152.312 220.847L153.74 219.47L153.742 219.466L154.461 218.786L155.009 218.201C155.125 215.861 155.076 213.54 154.897 211.284L154.493 211.766L154.489 211.771L153.291 213.157H153.292C153.075 213.411 152.857 213.636 152.651 213.851L152.022 214.53L152.017 214.536L152.011 214.542L150.853 215.717C150.811 217.008 150.734 218.332 150.619 219.688L150.618 219.696L150.505 220.729C150.432 221.364 150.349 222.005 150.259 222.654L150.825 222.17Z" stroke="#89E4E8" stroke-width="0.95"/>
<path d="M141.44 229.18V229.179L143.147 228.064L143.152 228.06C143.437 227.879 143.696 227.698 143.963 227.509V227.508L144.771 226.909L144.779 226.904L146.274 225.843C146.555 224.504 146.8 223.19 147.009 221.901V221.9C147.135 220.917 147.246 219.948 147.343 218.993L146.834 219.436H146.833L146.145 220.034H146.144C146.04 220.128 145.912 220.243 145.776 220.34H145.777L145.418 220.639L145.406 220.649L143.938 221.791L143.224 222.36L143.2 222.377L142.576 222.813C142.135 225.053 141.549 227.305 140.818 229.569L141.44 229.18Z" stroke="#89E4E8" stroke-width="0.95"/>
<path d="M130.505 234.975C130.663 234.906 130.816 234.84 130.961 234.775L132.846 233.904L132.848 233.903C134.038 233.363 135.172 232.75 136.328 232.145L136.677 231.329C136.794 230.993 136.911 230.665 137.028 230.346V230.345C137.267 229.657 137.497 228.988 137.716 228.337L138.045 227.358V227.357C138.102 227.187 138.153 227.024 138.2 226.862L138.337 226.376C138.409 226.106 138.481 225.835 138.554 225.565L138.006 225.921L137.999 225.925L137.609 226.17L137.604 226.174L137.597 226.178L137.178 226.423L137.174 226.425L136.365 226.888L134.72 227.839L134.7 227.849L133.187 228.635C132.968 229.23 132.745 229.834 132.495 230.438L132.49 230.447L132.062 231.405L131.617 232.362C131.336 233.019 131.034 233.666 130.713 234.305L130.708 234.316L130.309 235.061C130.374 235.032 130.44 235.003 130.505 234.975Z" stroke="#89E4E8" stroke-width="0.95"/>
<path d="M119.654 238.802V238.801L120.164 238.665L120.658 238.532L121.634 238.21L121.646 238.207L123.611 237.612V237.611C124.209 237.414 124.809 237.192 125.389 236.968C125.753 236.402 126.102 235.838 126.431 235.272V235.271C126.788 234.642 127.125 234.022 127.442 233.411L127.441 233.41L127.444 233.405C127.78 232.777 128.097 232.158 128.393 231.548V231.547C128.508 231.307 128.622 231.062 128.735 230.817L128.599 230.879L128.582 230.887L128.565 230.894L128.375 230.975C128.306 231.006 128.219 231.044 128.128 231.078H128.129L126.363 231.785L125.508 232.16L125.494 232.166L125.48 232.172L124.582 232.498L122.942 233.093C122.793 233.336 122.642 233.585 122.493 233.841L122.489 233.849L122.484 233.856L121.915 234.754L121.912 234.76L120.741 236.531L120.735 236.54L120.106 237.437C120.006 237.6 119.896 237.751 119.792 237.888C119.677 238.039 119.575 238.169 119.477 238.309L119.472 238.315L119.466 238.322L118.971 238.978L119.654 238.802Z" stroke="#89E4E8" stroke-width="0.95"/>
<path d="M125.817 225.632L126.04 225.531V225.53L126.55 225.285L126.556 225.282L128.55 224.363H128.551C128.876 224.202 129.202 224.034 129.532 223.863C129.855 223.697 130.182 223.529 130.51 223.366C130.825 223.187 131.142 223.018 131.458 222.856L132.248 222.384C132.366 221.959 132.479 221.529 132.583 221.09V221.086C132.703 220.596 132.822 220.109 132.941 219.596C133.067 218.954 133.183 218.32 133.293 217.694L132.463 218.226L132.046 218.496H132.045C131.963 218.551 131.871 218.602 131.804 218.638C131.724 218.682 131.671 218.711 131.635 218.736L131.62 218.745L131.604 218.754L130.706 219.272H130.705L129.844 219.784L129.835 219.789L129.37 220.043L128.929 220.283L128.922 220.287L127.268 221.15L127.209 221.341L127.205 221.351L127.086 221.704L126.845 222.412C126.684 222.887 126.514 223.372 126.333 223.864L125.794 225.333L125.79 225.345L125.785 225.355L125.634 225.706L125.817 225.632Z" stroke="#89E4E8" stroke-width="0.95"/>
<path d="M116.593 228.929C116.679 228.903 116.766 228.876 116.853 228.85C116.943 228.823 117.033 228.795 117.123 228.768L118.74 228.278L119.785 227.953L119.789 227.952C120.128 227.85 120.472 227.719 120.793 227.587L120.812 227.579L122.724 226.885C123.147 225.992 123.536 225.107 123.888 224.231L123.891 224.223L124.181 223.537H124.182L124.452 222.803C124.499 222.675 124.544 222.547 124.59 222.42L124.207 222.606L124.184 222.616L124.162 222.624L123.941 222.712C123.867 222.743 123.781 222.778 123.7 222.808H123.701L121.799 223.59H121.8C121.626 223.669 121.452 223.737 121.277 223.797L120.804 223.958H120.805L119.816 224.312C119.249 224.532 118.646 224.755 118.037 224.941C117.602 225.777 117.144 226.63 116.657 227.497L116.653 227.504L116.648 227.511C116.311 228.066 115.965 228.621 115.612 229.176L116.593 228.929Z" stroke="#89E4E8" stroke-width="0.95"/>
<path d="M9.67456 118.941H20.2768M175.772 118.941H186.375" stroke="#89E4E8" stroke-width="0.95"/>
<path d="M21.1509 114.935V114.937C21.1283 115.265 21.0794 115.656 21.0649 116.045C20.9096 116.198 20.7544 116.352 20.5991 116.508L20.6021 116.395V116.385C20.6021 116.201 20.6116 116.006 20.6304 115.802L20.6733 115.329C20.8338 115.178 20.9943 115.028 21.1548 114.879L21.1509 114.935Z" stroke="#89E4E8" stroke-width="0.95"/>
<path d="M23.0667 113.256L22.9661 114.278C22.81 114.42 22.6534 114.561 22.4973 114.703L22.5901 113.594C22.7437 113.457 22.903 113.321 23.0667 113.184V113.256Z" stroke="#89E4E8" stroke-width="0.95"/>
<path d="M24.8921 112.629C24.8057 112.701 24.7211 112.771 24.6401 112.841C24.5574 112.911 24.4753 112.978 24.394 113.046C24.3962 113.03 24.3986 113.015 24.4009 113L24.5522 111.987C24.7133 111.858 24.8746 111.73 25.0356 111.603L24.8921 112.629Z" stroke="#89E4E8" stroke-width="0.95"/>
<path d="M27.0251 110.135L27.0222 110.158L26.9949 110.41L26.9382 110.693L26.9353 110.707L26.8748 111.091C26.7124 111.215 26.5498 111.34 26.3875 111.465C26.3891 111.453 26.3917 111.441 26.3933 111.429C26.4367 111.102 26.4811 110.779 26.5281 110.457C26.6955 110.343 26.8624 110.23 27.0281 110.118L27.0251 110.135Z" stroke="#89E4E8" stroke-width="0.95"/>
<path d="M20.9768 104.908C20.9858 104.941 20.9931 104.985 20.9836 105.037L20.9817 105.044C20.9706 105.109 20.9387 105.156 20.9094 105.182C20.8985 105.154 20.8886 105.106 20.8997 105.046L20.9006 105.039C20.9095 104.987 20.9392 104.939 20.9768 104.908Z" stroke="#89E4E8" stroke-width="0.95"/>
<path d="M21.5012 102.799C21.5084 102.824 21.5154 102.87 21.4993 102.935C21.4807 102.998 21.4434 103.051 21.4045 103.083C21.3953 103.054 21.3875 103.011 21.4016 102.955C21.4215 102.877 21.4615 102.828 21.4924 102.805C21.4954 102.802 21.4987 102.8 21.5012 102.799Z" stroke="#89E4E8" stroke-width="0.95"/>
<path d="M22.0698 100.726C22.0769 100.755 22.0822 100.795 22.0728 100.846C22.0629 100.866 22.0503 100.889 22.0327 100.91C22.0089 100.94 21.9832 100.962 21.9624 100.977L21.9546 100.981C21.954 100.975 21.952 100.969 21.9517 100.963C21.9501 100.931 21.9537 100.915 21.9565 100.907L21.9604 100.896C21.9886 100.813 22.0327 100.758 22.0698 100.726Z" stroke="#89E4E8" stroke-width="0.95"/>
<path d="M22.7244 98.6854L22.7117 98.7576L22.7078 98.7693C22.6806 98.8491 22.6387 98.8991 22.6072 98.9276C22.6022 98.9009 22.5996 98.8585 22.6189 98.8016L22.6238 98.7889L22.6277 98.7752C22.641 98.7273 22.6739 98.6845 22.7107 98.66C22.7135 98.6581 22.7161 98.6565 22.7185 98.6551C22.7204 98.6642 22.7242 98.674 22.7244 98.6854Z" stroke="#89E4E8" stroke-width="0.95"/>
<path d="M23.4443 96.617C23.447 96.6431 23.4471 96.6818 23.4326 96.7332C23.3953 96.8051 23.3508 96.8489 23.3174 96.8709C23.3169 96.8445 23.3203 96.8106 23.334 96.7733L23.3379 96.7625C23.3637 96.6864 23.4079 96.6405 23.4424 96.619L23.4443 96.617Z" stroke="#89E4E8" stroke-width="0.95"/>
<path d="M29.0464 85.168C29.1016 85.4644 29.1592 85.7594 29.2231 86.0498L29.2271 86.0674C29.4057 86.7523 29.5752 87.4373 29.7339 88.1221L29.7349 88.1299L29.7378 88.1377C29.9178 88.8096 30.0969 89.473 30.2769 90.127L30.2798 90.1377L30.2837 90.1484C30.4828 90.7568 30.6724 91.358 30.855 91.9512C30.76 92.1555 30.6593 92.3607 30.5513 92.5732C30.4175 92.8364 30.2768 93.1135 30.1509 93.3994L29.4321 95.0312L29.0728 95.8477L29.0649 95.8662L29.0581 95.8848L28.9165 96.2959L28.7427 96.6904L28.7368 96.7061L28.731 96.7207L28.5229 97.2949C27.5681 95.1865 26.7382 92.9952 26.0337 90.7207L26.8169 89.1514C26.9663 88.8529 27.1112 88.5652 27.2544 88.3047L27.7339 87.4609L27.7358 87.458L28.6938 85.7441L28.6929 85.7432C28.741 85.6675 28.7829 85.5962 28.8149 85.5381C28.8536 85.4679 28.8828 85.4158 28.9155 85.3662L29.0464 85.168Z" stroke="#89E4E8" stroke-width="0.95"/>
<path d="M35.741 76.8211L35.7429 76.8484C35.7569 77.014 35.7637 77.1744 35.7712 77.3455C35.7785 77.5098 35.7864 77.6844 35.8015 77.867V77.868L35.8611 78.9295L35.863 78.9432C35.9233 79.6368 35.9936 80.3307 36.074 81.0242V81.0252L36.1931 82.032L36.1951 82.0438L36.3171 82.8904C35.6686 83.8087 34.9815 84.7556 34.3767 85.7488L33.4177 87.2713C33.3182 87.4105 33.2368 87.5511 33.1677 87.6766C33.1364 87.7335 33.1064 87.7841 33.0798 87.8328C33.0023 87.5423 32.9211 87.2493 32.8435 86.952C32.7049 86.3044 32.5671 85.6385 32.4285 84.9549C32.359 84.6124 32.2918 84.27 32.2273 83.9276L32.0417 82.9012C31.9342 82.266 31.8515 81.6294 31.7693 80.9842C31.922 80.7725 32.0756 80.5611 32.2283 80.3494L32.7976 79.5613L34.0125 78.0281L34.0183 78.0203L34.6169 77.2303L34.9041 76.8651L35.2273 76.493L35.2283 76.492L35.7146 75.9256C35.723 76.2241 35.7325 76.5226 35.741 76.8211Z" stroke="#89E4E8" stroke-width="0.95"/>
<path d="M43.8596 67.7626C43.72 68.7667 43.5998 69.7533 43.5002 70.7216V70.7294C43.3852 72.0871 43.3068 73.4125 43.2649 74.705L42.134 75.8798L42.1272 75.8876L41.4983 76.5673C41.3261 76.7453 41.0589 76.9953 40.8586 77.2597L39.6633 78.6425L39.2229 79.1425C39.0489 76.8871 39.0163 74.5622 39.1096 72.2148L39.6575 71.6317L40.3762 70.9521L40.3792 70.9482L41.8176 69.5614L42.1819 69.2567L42.1887 69.2509L42.1965 69.245C42.2564 69.1906 42.3163 69.1353 42.3762 69.081C42.436 69.0267 42.4962 68.9721 42.5559 68.9179L43.2932 68.248L43.8596 67.7626Z" stroke="#89E4E8" stroke-width="0.95"/>
<path d="M53.2979 60.8563C52.568 63.119 51.9822 65.3702 51.541 67.6102L50.9414 68.0467L50.9326 68.0526L50.1846 68.6238L50.1768 68.6297L48.7451 69.7674L48.3545 70.0672C48.2221 70.1603 48.0932 70.2766 47.9863 70.3983L47.293 70.9764L47.2852 70.9822L46.7754 71.4246C46.8715 70.4747 46.9818 69.5111 47.1074 68.534C47.3164 67.2398 47.5618 65.9198 47.8438 64.575L49.3398 63.5135H49.3408L50.1777 62.9158C50.3123 62.8208 50.4474 62.7258 50.582 62.6307C50.7144 62.5372 50.8462 62.4429 50.9785 62.3494L52.7061 61.242L52.707 61.2401L53.2979 60.8563Z" stroke="#89E4E8" stroke-width="0.95"/>
<path d="M63.436 56.1131C63.1147 56.7515 62.8027 57.399 62.5015 58.0555C62.2003 58.6937 61.9096 59.3322 61.6284 59.9705L61.6235 59.9803C61.3741 60.5844 61.1508 61.1878 60.9321 61.783L59.4185 62.5692L59.3989 62.5789L57.7534 63.5301L56.9448 63.993L56.937 63.9979L56.9282 64.0027L56.5386 64.2479L56.1333 64.4842L56.1206 64.491L56.1099 64.4988L55.5835 64.8465C55.6561 64.5815 55.7302 64.3157 55.8091 64.0506L55.812 64.0418C55.8997 63.7234 55.9876 63.3999 56.0767 63.0506L56.4028 62.0809C56.6211 61.4322 56.8493 60.7656 57.0874 60.0809C57.2052 59.7599 57.3334 59.4295 57.4712 59.0897L57.4722 59.0858L57.7954 58.2713C58.9801 57.6645 60.1098 57.0555 61.3013 56.5145L61.3062 56.5115L63.1567 55.6434L63.1577 55.6443C63.3676 55.549 63.5935 55.4526 63.8276 55.3553C63.6942 55.608 63.5633 55.8603 63.436 56.1131Z" stroke="#89E4E8" stroke-width="0.95"/>
<path d="M74.6526 52.0957L74.6477 52.1025L74.6418 52.1093C74.5406 52.2538 74.4394 52.3928 74.3342 52.5361C74.2298 52.6783 74.1212 52.8259 74.0129 52.9804L74.0071 52.9892L73.4143 53.8779C72.9923 54.4802 72.5896 55.0734 72.2073 55.6582L72.2024 55.666L72.1985 55.6738L71.6594 56.5713L71.6555 56.5771C71.5063 56.8331 71.3553 57.0813 71.2063 57.3242L69.5676 57.9199L68.6692 58.2461L68.6575 58.2509L68.6467 58.2558L67.7571 58.6328L65.9895 59.3398C65.8222 59.4024 65.6179 59.5074 65.5481 59.539L65.3899 59.6064C65.5013 59.3569 65.6108 59.1113 65.7258 58.8711L65.7249 58.8701C66.0403 58.2612 66.3567 57.644 66.6721 57.0175C67.0105 56.403 67.3587 55.7793 67.717 55.1465L67.7161 55.1455C68.0459 54.5798 68.3859 54.015 68.7327 53.4492C69.3411 53.2218 69.9099 53.0029 70.5071 52.8056L72.5012 52.2119L72.5149 52.208L73.4905 51.8857L73.9856 51.7529L73.9924 51.7509L74.4583 51.6181L74.4592 51.6191L75.1526 51.4424C74.9848 51.6603 74.8176 51.8777 74.6526 52.0957Z" stroke="#89E4E8" stroke-width="0.95"/>
<mask id="path-61-inside-2_510_1829" fill="white">
<path d="M27.8898 100.608L27.3208 99.4657L27.171 99.1665L27.0513 98.8945L26.8117 98.2961C26.4523 97.5164 26.1128 96.7276 25.7933 95.9297C25.4639 95.1137 25.1943 94.2977 24.8948 93.4817C24.6153 92.6476 24.3358 91.8044 24.0563 90.9521C26.602 85.5937 29.8067 80.5073 33.6403 75.8289L35.1378 74.1153L35.8865 73.2449C36.1261 72.9729 36.3956 72.7009 36.6652 72.4289L38.2226 70.7698L38.4323 70.5794L38.6419 70.3618L39.0612 69.981L39.8698 69.1922L40.7084 68.4034C40.8582 68.2674 40.978 68.1314 41.1278 67.9954L41.577 67.6146L43.3141 66.1186L43.7334 65.7378C43.8932 65.629 44.0429 65.5111 44.1827 65.3842L45.1111 64.677L46.0096 63.9426C46.3091 63.725 46.6086 63.4802 46.9381 63.2626L48.8249 61.9026C49.1244 61.685 49.4539 61.4402 49.7833 61.2226L50.7417 60.597L52.7184 59.3186C53.3973 58.9196 54.0662 58.5298 54.7251 58.149L55.7433 57.5506C55.923 57.4599 56.0928 57.3692 56.2525 57.2786L56.7916 57.0066L58.8881 55.9186C59.0378 55.8098 59.2176 55.7282 59.3973 55.6466L59.9363 55.4018L61.0146 54.885L62.0928 54.3954L62.6019 54.1506C62.7816 54.069 62.9913 53.9874 63.171 53.9058L65.3573 53.0082L65.8964 52.7906C66.0761 52.7181 66.2658 52.6455 66.4655 52.573L67.5736 52.165L69.8198 51.3762L72.0961 50.669L73.2342 50.3154L73.5337 50.2338L73.8332 50.1522L74.4022 50.0162L76.7084 49.4178L77.3074 49.2546L77.8764 49.1458L79.0445 48.901L80.2425 48.6562L80.8116 48.5202L81.1111 48.4658L81.4106 48.4114C82.2292 48.8103 83.0378 49.2093 83.8365 49.6082C84.6152 50.0162 85.3939 50.4242 86.1726 50.8594C86.9313 51.2946 87.6801 51.7389 88.4188 52.1922L89.4971 52.845C89.8565 53.0898 90.2158 53.3346 90.5752 53.5522L91.0245 53.8786C91.0844 53.9058 91.1742 53.933 91.2341 53.933L92.7017 53.8242C92.9413 53.8061 93.1809 53.7879 93.4205 53.7698H94.1692L97.0744 53.6882L99.9796 53.7698H100.698C100.938 53.7879 101.178 53.8061 101.417 53.8242L102.885 53.933C102.975 53.933 103.034 53.9058 103.094 53.8786L103.574 53.5522C103.933 53.3346 104.262 53.0898 104.622 52.845L105.73 52.1922C106.469 51.7389 107.217 51.2946 107.976 50.8594C108.755 50.4242 109.504 50.0162 110.312 49.6082C111.091 49.2093 111.9 48.8103 112.738 48.4114L113.008 48.4658L113.307 48.5202L113.906 48.6562L115.074 48.901L116.242 49.1458L116.841 49.2546L117.41 49.4178L119.747 50.0162L120.316 50.1522L120.615 50.2338L120.885 50.3154L122.023 50.669L124.299 51.3762L126.545 52.165L127.683 52.573C127.863 52.6455 128.043 52.7181 128.222 52.7906L128.791 53.0082L130.978 53.9058C131.158 53.9874 131.337 54.069 131.517 54.1506L132.056 54.3954L133.134 54.885L134.182 55.4018L134.722 55.6466C134.901 55.7282 135.081 55.8098 135.261 55.9186L137.357 57.0066L137.866 57.2786C138.046 57.3692 138.216 57.4599 138.375 57.5506L139.394 58.149C140.073 58.5298 140.752 58.9196 141.43 59.3186L143.377 60.597L144.366 61.2226C144.695 61.4402 144.994 61.685 145.324 61.9026L147.211 63.2626C147.51 63.4802 147.81 63.725 148.109 63.9426L149.038 64.677L149.936 65.3842C150.096 65.5111 150.246 65.629 150.385 65.7378L150.835 66.1186L152.572 67.6146L152.991 67.9954C153.141 68.1314 153.291 68.2674 153.41 68.4034L154.249 69.1922L155.088 69.981L155.507 70.3618L155.717 70.5794L155.896 70.7698L157.484 72.4289C157.723 72.7009 157.993 72.9729 158.262 73.2449L159.011 74.1153L160.479 75.8289C164.312 80.5073 167.547 85.5937 170.063 90.9521C169.803 91.8044 169.524 92.6476 169.224 93.4817C168.954 94.2977 168.685 95.1137 168.326 95.9297C168.006 96.7276 167.677 97.5164 167.337 98.2961L167.068 98.8945L166.948 99.1665L166.798 99.4657L166.229 100.608C166.169 100.717 166.229 100.88 166.349 100.962C166.439 101.043 166.588 101.016 166.648 100.907L167.217 99.7377C167.427 99.3569 167.607 98.9489 167.786 98.5681C168.126 97.7884 168.465 96.9905 168.805 96.1745C168.964 95.7574 169.124 95.3404 169.284 94.9233L169.733 93.6993C170.013 92.8652 170.282 92.0129 170.542 91.1425C170.572 91.0881 170.572 90.9793 170.542 90.9249C167.996 85.4849 164.761 80.3713 160.898 75.6385L159.4 73.8977L158.652 73.0273C158.382 72.7553 158.113 72.4833 157.873 72.1841L156.256 70.525C156.016 70.253 155.717 69.981 155.447 69.709L154.608 68.9202L153.77 68.1314C153.63 67.9863 153.49 67.8503 153.351 67.7234L152.901 67.3426L151.164 65.8194L150.715 65.4386C150.565 65.3298 150.415 65.1938 150.266 65.085L149.337 64.3506L148.409 63.6434C148.109 63.3986 147.81 63.1538 147.48 62.9362L145.593 61.5762C145.264 61.3314 144.935 61.1138 144.635 60.8962L143.647 60.2434L141.64 58.965L139.603 57.7682L138.585 57.197C138.425 57.0882 138.256 56.9884 138.076 56.8978L137.537 56.6258L135.44 55.5378C135.081 55.3474 134.722 55.1842 134.362 54.9938L133.284 54.5042L132.206 53.9874L131.667 53.7426C131.467 53.6701 131.277 53.5975 131.098 53.525C129.63 52.9266 128.163 52.2738 126.635 51.757C125.886 51.485 125.138 51.213 124.389 50.9682L122.083 50.2338L120.915 49.8802C120.525 49.7714 120.136 49.6898 119.747 49.581L117.41 48.9826C117.021 48.8738 116.632 48.7922 116.242 48.7106L115.044 48.4658L113.876 48.221C113.457 48.1394 113.068 48.0578 112.678 47.9762C112.589 47.9762 112.499 47.9762 112.439 48.0034C111.281 48.5655 110.143 49.1367 109.024 49.717C108.755 49.853 108.485 50.0162 108.216 50.1794L107.407 50.6418C106.868 50.9501 106.329 51.2583 105.79 51.5666L104.772 51.4578C104.442 51.4306 104.083 51.4034 103.753 51.3762L101.687 51.2402L101.178 51.213L100.908 51.1858H100.668L99.6201 51.1586L97.5536 51.1042L97.0744 51.485L96.5652 51.1042L94.4987 51.1586L93.4804 51.1858H93.2108L92.9712 51.213L92.4621 51.2402L90.3956 51.3762C90.0362 51.4034 89.7067 51.4306 89.3473 51.4578L88.329 51.5666C87.8098 51.2583 87.2807 50.9501 86.7416 50.6418L85.933 50.1794C85.6634 50.0162 85.3639 49.853 85.0944 49.717C83.9962 49.1367 82.8681 48.5655 81.7101 48.0034C81.6502 47.9762 81.5603 47.9762 81.4405 47.9762C81.0511 48.0578 80.6618 48.1394 80.2724 48.221L79.0744 48.4658L77.9064 48.7106C77.4871 48.7922 77.0977 48.8738 76.7084 48.9826L74.3723 49.581C73.983 49.6898 73.5936 49.7714 73.2042 49.8802L72.0661 50.2338L69.76 50.9682C68.9813 51.213 68.2326 51.485 67.4838 51.757C65.9564 52.2738 64.5187 52.9266 63.0212 53.525C62.8415 53.5975 62.6618 53.6701 62.4821 53.7426L61.943 53.9874L60.8648 54.5042L59.7567 54.9938C59.3973 55.1842 59.0379 55.3474 58.7084 55.5378L56.582 56.6258L56.0728 56.8978C55.8931 56.9884 55.7134 57.0882 55.5337 57.197L54.5154 57.7682L52.4788 58.965L50.5021 60.2434L49.5138 60.8962C49.1843 61.1138 48.8548 61.3314 48.5553 61.5762L46.6386 62.9362C46.3091 63.1538 46.0096 63.3986 45.7101 63.6434L44.7817 64.3506L43.8832 65.085C43.7334 65.1938 43.5837 65.3298 43.4339 65.4386L42.9847 65.8194L41.2176 67.3426L40.7983 67.7234C40.6386 67.8503 40.4888 67.9863 40.3491 68.1314L39.5104 68.9202L38.7018 69.709C38.4023 69.981 38.1327 70.253 37.8632 70.525L36.2758 72.1841C36.0063 72.4833 35.7368 72.7553 35.4972 73.0273L34.7184 73.8977L33.2209 75.6385C29.3873 80.3713 26.1228 85.4849 23.607 90.9249C23.5471 90.9793 23.5471 91.0881 23.577 91.1425C23.8566 92.0129 24.1361 92.8652 24.4157 93.6993L24.8349 94.9233C25.0146 95.3404 25.1843 95.7574 25.3441 96.1745C25.6635 96.9905 26.003 97.7884 26.3624 98.5681C26.5122 98.9489 26.7218 99.3569 26.9015 99.7377L27.4705 100.907C27.5304 101.016 27.6802 101.043 27.8 100.962C27.9198 100.88 27.9497 100.717 27.8898 100.608Z"/>
</mask>
<path d="M27.8898 100.608L27.3208 99.4657L27.171 99.1665L27.0513 98.8945L26.8117 98.2961C26.4523 97.5164 26.1128 96.7276 25.7933 95.9297C25.4639 95.1137 25.1943 94.2977 24.8948 93.4817C24.6153 92.6476 24.3358 91.8044 24.0563 90.9521C26.602 85.5937 29.8067 80.5073 33.6403 75.8289L35.1378 74.1153L35.8865 73.2449C36.1261 72.9729 36.3956 72.7009 36.6652 72.4289L38.2226 70.7698L38.4323 70.5794L38.6419 70.3618L39.0612 69.981L39.8698 69.1922L40.7084 68.4034C40.8582 68.2674 40.978 68.1314 41.1278 67.9954L41.577 67.6146L43.3141 66.1186L43.7334 65.7378C43.8932 65.629 44.0429 65.5111 44.1827 65.3842L45.1111 64.677L46.0096 63.9426C46.3091 63.725 46.6086 63.4802 46.9381 63.2626L48.8249 61.9026C49.1244 61.685 49.4539 61.4402 49.7833 61.2226L50.7417 60.597L52.7184 59.3186C53.3973 58.9196 54.0662 58.5298 54.7251 58.149L55.7433 57.5506C55.923 57.4599 56.0928 57.3692 56.2525 57.2786L56.7916 57.0066L58.8881 55.9186C59.0378 55.8098 59.2176 55.7282 59.3973 55.6466L59.9363 55.4018L61.0146 54.885L62.0928 54.3954L62.6019 54.1506C62.7816 54.069 62.9913 53.9874 63.171 53.9058L65.3573 53.0082L65.8964 52.7906C66.0761 52.7181 66.2658 52.6455 66.4655 52.573L67.5736 52.165L69.8198 51.3762L72.0961 50.669L73.2342 50.3154L73.5337 50.2338L73.8332 50.1522L74.4022 50.0162L76.7084 49.4178L77.3074 49.2546L77.8764 49.1458L79.0445 48.901L80.2425 48.6562L80.8116 48.5202L81.1111 48.4658L81.4106 48.4114C82.2292 48.8103 83.0378 49.2093 83.8365 49.6082C84.6152 50.0162 85.3939 50.4242 86.1726 50.8594C86.9313 51.2946 87.6801 51.7389 88.4188 52.1922L89.4971 52.845C89.8565 53.0898 90.2158 53.3346 90.5752 53.5522L91.0245 53.8786C91.0844 53.9058 91.1742 53.933 91.2341 53.933L92.7017 53.8242C92.9413 53.8061 93.1809 53.7879 93.4205 53.7698H94.1692L97.0744 53.6882L99.9796 53.7698H100.698C100.938 53.7879 101.178 53.8061 101.417 53.8242L102.885 53.933C102.975 53.933 103.034 53.9058 103.094 53.8786L103.574 53.5522C103.933 53.3346 104.262 53.0898 104.622 52.845L105.73 52.1922C106.469 51.7389 107.217 51.2946 107.976 50.8594C108.755 50.4242 109.504 50.0162 110.312 49.6082C111.091 49.2093 111.9 48.8103 112.738 48.4114L113.008 48.4658L113.307 48.5202L113.906 48.6562L115.074 48.901L116.242 49.1458L116.841 49.2546L117.41 49.4178L119.747 50.0162L120.316 50.1522L120.615 50.2338L120.885 50.3154L122.023 50.669L124.299 51.3762L126.545 52.165L127.683 52.573C127.863 52.6455 128.043 52.7181 128.222 52.7906L128.791 53.0082L130.978 53.9058C131.158 53.9874 131.337 54.069 131.517 54.1506L132.056 54.3954L133.134 54.885L134.182 55.4018L134.722 55.6466C134.901 55.7282 135.081 55.8098 135.261 55.9186L137.357 57.0066L137.866 57.2786C138.046 57.3692 138.216 57.4599 138.375 57.5506L139.394 58.149C140.073 58.5298 140.752 58.9196 141.43 59.3186L143.377 60.597L144.366 61.2226C144.695 61.4402 144.994 61.685 145.324 61.9026L147.211 63.2626C147.51 63.4802 147.81 63.725 148.109 63.9426L149.038 64.677L149.936 65.3842C150.096 65.5111 150.246 65.629 150.385 65.7378L150.835 66.1186L152.572 67.6146L152.991 67.9954C153.141 68.1314 153.291 68.2674 153.41 68.4034L154.249 69.1922L155.088 69.981L155.507 70.3618L155.717 70.5794L155.896 70.7698L157.484 72.4289C157.723 72.7009 157.993 72.9729 158.262 73.2449L159.011 74.1153L160.479 75.8289C164.312 80.5073 167.547 85.5937 170.063 90.9521C169.803 91.8044 169.524 92.6476 169.224 93.4817C168.954 94.2977 168.685 95.1137 168.326 95.9297C168.006 96.7276 167.677 97.5164 167.337 98.2961L167.068 98.8945L166.948 99.1665L166.798 99.4657L166.229 100.608C166.169 100.717 166.229 100.88 166.349 100.962C166.439 101.043 166.588 101.016 166.648 100.907L167.217 99.7377C167.427 99.3569 167.607 98.9489 167.786 98.5681C168.126 97.7884 168.465 96.9905 168.805 96.1745C168.964 95.7574 169.124 95.3404 169.284 94.9233L169.733 93.6993C170.013 92.8652 170.282 92.0129 170.542 91.1425C170.572 91.0881 170.572 90.9793 170.542 90.9249C167.996 85.4849 164.761 80.3713 160.898 75.6385L159.4 73.8977L158.652 73.0273C158.382 72.7553 158.113 72.4833 157.873 72.1841L156.256 70.525C156.016 70.253 155.717 69.981 155.447 69.709L154.608 68.9202L153.77 68.1314C153.63 67.9863 153.49 67.8503 153.351 67.7234L152.901 67.3426L151.164 65.8194L150.715 65.4386C150.565 65.3298 150.415 65.1938 150.266 65.085L149.337 64.3506L148.409 63.6434C148.109 63.3986 147.81 63.1538 147.48 62.9362L145.593 61.5762C145.264 61.3314 144.935 61.1138 144.635 60.8962L143.647 60.2434L141.64 58.965L139.603 57.7682L138.585 57.197C138.425 57.0882 138.256 56.9884 138.076 56.8978L137.537 56.6258L135.44 55.5378C135.081 55.3474 134.722 55.1842 134.362 54.9938L133.284 54.5042L132.206 53.9874L131.667 53.7426C131.467 53.6701 131.277 53.5975 131.098 53.525C129.63 52.9266 128.163 52.2738 126.635 51.757C125.886 51.485 125.138 51.213 124.389 50.9682L122.083 50.2338L120.915 49.8802C120.525 49.7714 120.136 49.6898 119.747 49.581L117.41 48.9826C117.021 48.8738 116.632 48.7922 116.242 48.7106L115.044 48.4658L113.876 48.221C113.457 48.1394 113.068 48.0578 112.678 47.9762C112.589 47.9762 112.499 47.9762 112.439 48.0034C111.281 48.5655 110.143 49.1367 109.024 49.717C108.755 49.853 108.485 50.0162 108.216 50.1794L107.407 50.6418C106.868 50.9501 106.329 51.2583 105.79 51.5666L104.772 51.4578C104.442 51.4306 104.083 51.4034 103.753 51.3762L101.687 51.2402L101.178 51.213L100.908 51.1858H100.668L99.6201 51.1586L97.5536 51.1042L97.0744 51.485L96.5652 51.1042L94.4987 51.1586L93.4804 51.1858H93.2108L92.9712 51.213L92.4621 51.2402L90.3956 51.3762C90.0362 51.4034 89.7067 51.4306 89.3473 51.4578L88.329 51.5666C87.8098 51.2583 87.2807 50.9501 86.7416 50.6418L85.933 50.1794C85.6634 50.0162 85.3639 49.853 85.0944 49.717C83.9962 49.1367 82.8681 48.5655 81.7101 48.0034C81.6502 47.9762 81.5603 47.9762 81.4405 47.9762C81.0511 48.0578 80.6618 48.1394 80.2724 48.221L79.0744 48.4658L77.9064 48.7106C77.4871 48.7922 77.0977 48.8738 76.7084 48.9826L74.3723 49.581C73.983 49.6898 73.5936 49.7714 73.2042 49.8802L72.0661 50.2338L69.76 50.9682C68.9813 51.213 68.2326 51.485 67.4838 51.757C65.9564 52.2738 64.5187 52.9266 63.0212 53.525C62.8415 53.5975 62.6618 53.6701 62.4821 53.7426L61.943 53.9874L60.8648 54.5042L59.7567 54.9938C59.3973 55.1842 59.0379 55.3474 58.7084 55.5378L56.582 56.6258L56.0728 56.8978C55.8931 56.9884 55.7134 57.0882 55.5337 57.197L54.5154 57.7682L52.4788 58.965L50.5021 60.2434L49.5138 60.8962C49.1843 61.1138 48.8548 61.3314 48.5553 61.5762L46.6386 62.9362C46.3091 63.1538 46.0096 63.3986 45.7101 63.6434L44.7817 64.3506L43.8832 65.085C43.7334 65.1938 43.5837 65.3298 43.4339 65.4386L42.9847 65.8194L41.2176 67.3426L40.7983 67.7234C40.6386 67.8503 40.4888 67.9863 40.3491 68.1314L39.5104 68.9202L38.7018 69.709C38.4023 69.981 38.1327 70.253 37.8632 70.525L36.2758 72.1841C36.0063 72.4833 35.7368 72.7553 35.4972 73.0273L34.7184 73.8977L33.2209 75.6385C29.3873 80.3713 26.1228 85.4849 23.607 90.9249C23.5471 90.9793 23.5471 91.0881 23.577 91.1425C23.8566 92.0129 24.1361 92.8652 24.4157 93.6993L24.8349 94.9233C25.0146 95.3404 25.1843 95.7574 25.3441 96.1745C25.6635 96.9905 26.003 97.7884 26.3624 98.5681C26.5122 98.9489 26.7218 99.3569 26.9015 99.7377L27.4705 100.907C27.5304 101.016 27.6802 101.043 27.8 100.962C27.9198 100.88 27.9497 100.717 27.8898 100.608Z" stroke="#89E4E8" stroke-width="1.9" mask="url(#path-61-inside-2_510_1829)"/>
<path d="M68.3652 65.0613C68.1499 65.5643 67.9661 66.0658 67.7871 66.5535C67.6062 67.0465 67.4345 67.5304 67.2734 68.0057L67.0342 68.7127L66.9141 69.0672L66.9111 69.077L66.8496 69.2713L65.2246 70.1326L65.2197 70.1346L64.7715 70.3787C64.6104 70.4534 64.4568 70.5368 64.3115 70.6297L63.4131 71.1463L63.4072 71.1502L62.5439 71.6629C62.4726 71.7018 62.4015 71.7412 62.3301 71.7801C62.2552 71.8209 62.1803 71.8624 62.1055 71.9031L62.0889 71.9119L62.0742 71.9217L61.6543 72.1932L61.6533 72.1942L60.8584 72.7127C60.9686 72.085 61.0846 71.449 61.2109 70.8065L61.2129 70.7967C61.2996 70.2982 61.4158 69.8236 61.5361 69.3318L61.5352 69.3309C61.6562 68.8907 61.7697 68.4571 61.876 68.0301L62.6523 67.5672C62.97 67.4048 63.2971 67.2334 63.6338 67.0535C63.965 66.8892 64.2886 66.7199 64.6055 66.5526C64.9244 66.3842 65.2377 66.2186 65.5566 66.0604L67.5625 65.1356L67.5703 65.1326L68.0781 64.8865L68.3018 64.7859L68.5146 64.7C68.464 64.8207 68.4158 64.9418 68.3652 65.0613Z" stroke="#89E4E8" stroke-width="0.95"/>
<path d="M78.521 61.2401C78.1641 61.7975 77.8225 62.355 77.4966 62.9129L77.4917 62.9197C77.0046 63.7875 76.5357 64.6402 76.0835 65.4764C75.4759 65.6625 74.8892 65.8863 74.3052 66.1033L73.3247 66.4285L73.311 66.4324L73.2983 66.4373L72.8188 66.6277C72.6515 66.6856 72.4847 66.7517 72.3188 66.827L70.4175 67.6092C70.2831 67.658 70.1201 67.7185 69.9526 67.8065L69.563 67.9832C69.6071 67.8608 69.6514 67.7377 69.6968 67.6141C69.8114 67.3018 69.8394 67.1441 69.9468 66.9246L69.9565 66.9051L69.9644 66.8856L70.2339 66.1776C70.6044 65.303 70.9928 64.4206 71.3979 63.5301L73.3062 62.8377L73.312 62.8358C73.6882 62.6934 73.9916 62.5673 74.3306 62.4647L76.4868 61.8123L76.4937 61.8094L76.9946 61.6483L76.9956 61.6492C77.0854 61.622 77.1753 61.5944 77.2651 61.5672C77.353 61.5406 77.4409 61.5137 77.5288 61.4871L78.521 61.2401Z" stroke="#89E4E8" stroke-width="0.95"/>
<path d="M175.376 115.334L175.417 115.775V116.395L175.419 116.507C175.264 116.352 175.11 116.199 174.956 116.047C174.948 115.667 174.924 115.307 174.898 114.962L174.897 114.953L174.891 114.893C175.053 115.04 175.214 115.187 175.376 115.334Z" stroke="#89E4E8" stroke-width="0.95"/>
<path d="M173.458 113.6L173.551 114.714C173.387 114.568 173.222 114.423 173.056 114.277L172.982 113.248L172.98 113.235L172.976 113.196C173.139 113.331 173.299 113.466 173.458 113.6Z" stroke="#89E4E8" stroke-width="0.95"/>
<path d="M171.496 111.991L171.646 113.016C171.648 113.033 171.649 113.049 171.65 113.065C171.48 112.916 171.302 112.767 171.125 112.624L170.982 111.595C171.152 111.726 171.324 111.858 171.496 111.991Z" stroke="#89E4E8" stroke-width="0.95"/>
<path d="M168.988 110.107C169.157 110.223 169.326 110.339 169.493 110.456C169.543 110.783 169.593 111.11 169.642 111.437C169.644 111.449 169.645 111.461 169.647 111.472C169.478 111.345 169.31 111.217 169.143 111.09L169.087 110.725C169.083 110.618 169.072 110.508 169.052 110.396L169.051 110.388L169.049 110.38L168.988 110.107Z" stroke="#89E4E8" stroke-width="0.95"/>
<path d="M173.146 104.898C173.175 104.924 173.207 104.973 173.218 105.039L173.223 105.062L173.229 105.086C173.239 105.125 173.233 105.158 173.224 105.182C173.196 105.158 173.159 105.106 173.135 105.025C173.126 104.969 173.135 104.925 173.146 104.898Z" stroke="#89E4E8" stroke-width="0.95"/>
<path d="M172.626 102.805C172.657 102.828 172.697 102.877 172.717 102.955C172.731 103.01 172.727 103.054 172.722 103.085C172.72 103.083 172.717 103.083 172.715 103.081C172.685 103.058 172.656 103.021 172.635 102.976L172.617 102.93C172.605 102.873 172.614 102.83 172.624 102.804L172.626 102.805Z" stroke="#89E4E8" stroke-width="0.95"/>
<path d="M172.061 100.727C172.094 100.75 172.131 100.796 172.148 100.861L172.155 100.885L172.163 100.907C172.176 100.945 172.178 100.973 172.177 100.99L172.158 100.977L172.123 100.938C172.107 100.916 172.088 100.882 172.069 100.832C172.053 100.784 172.052 100.747 172.055 100.724C172.057 100.725 172.059 100.725 172.061 100.727Z" stroke="#89E4E8" stroke-width="0.95"/>
<path d="M171.422 98.6561C171.454 98.678 171.494 98.7239 171.523 98.7899C171.537 98.8575 171.531 98.9075 171.524 98.9393L171.467 98.8807C171.449 98.8551 171.432 98.8215 171.417 98.7801C171.41 98.7504 171.407 98.7218 171.408 98.6961C171.408 98.6779 171.413 98.6635 171.416 98.6522C171.418 98.6534 171.42 98.6544 171.422 98.6561Z" stroke="#89E4E8" stroke-width="0.95"/>
<path d="M170.702 96.6268C170.735 96.652 170.78 96.6998 170.817 96.782C170.829 96.8185 170.831 96.8506 170.83 96.8758C170.827 96.8741 170.822 96.8741 170.819 96.8719C170.781 96.8494 170.742 96.807 170.72 96.7488C170.703 96.6963 170.701 96.6554 170.702 96.6268Z" stroke="#89E4E8" stroke-width="0.95"/>
<path d="M165.226 85.3545C165.297 85.501 165.398 85.6683 165.453 85.7686L165.457 85.7744L166.415 87.4609L166.892 88.2979V88.2988C166.958 88.4187 167.019 88.5482 167.086 88.6934L167.302 89.1523L168.084 90.7207C167.378 93.0001 166.554 95.196 165.611 97.3086L165.385 96.7139L165.237 96.3105L165.232 96.2969L165.227 96.2832L165.047 95.875L164.689 95.0371L164.688 95.0312L163.969 93.3994C163.75 92.9023 163.504 92.423 163.267 91.9473C163.465 91.3519 163.656 90.7497 163.838 90.1396C164.04 89.4803 164.221 88.812 164.383 88.1348C164.564 87.4418 164.734 86.7487 164.895 86.0557L164.896 86.0498C164.963 85.748 165.022 85.4411 165.079 85.1328L165.226 85.3545Z" stroke="#89E4E8" stroke-width="0.95"/>
<path d="M158.891 76.492L158.892 76.493L159.214 76.8651L159.506 77.2371L159.508 77.2401L160.137 78.0281L161.33 79.574C161.517 79.8327 161.704 80.0908 161.891 80.3494C162.044 80.5614 162.196 80.7741 162.349 80.9861C162.289 81.4671 162.23 81.9247 162.16 82.3836L162.076 82.9031C161.958 83.587 161.829 84.271 161.691 84.9549H161.69L161.688 84.9686C161.57 85.6472 161.433 86.3074 161.276 86.949L161.274 86.9549C161.205 87.2494 161.133 87.5404 161.057 87.8279C160.952 87.6519 160.831 87.4531 160.7 87.2713H160.701L159.742 85.7488C159.163 84.7526 158.445 83.7965 157.801 82.8885L157.924 82.0438L157.925 82.032L158.045 81.0252V81.0242C158.126 80.3307 158.196 79.6368 158.256 78.9432V78.9422L158.346 77.8817C158.362 77.6932 158.37 77.5124 158.374 77.3348L158.378 76.8084C158.394 76.519 158.407 76.2296 158.416 75.9402L158.891 76.492Z" stroke="#89E4E8" stroke-width="0.95"/>
<path d="M150.825 68.248L151.564 68.9179L151.576 68.9306L151.591 68.9413C151.722 69.0434 151.842 69.145 151.952 69.245L152.312 69.5712L153.74 70.9482L153.742 70.9521L154.461 71.6317L155.009 72.2167C155.125 74.557 155.076 76.8782 154.897 79.1337L154.493 78.6523L154.489 78.6464L153.291 77.2607H153.292C153.075 77.0064 152.857 76.7817 152.651 76.5673L152.022 75.8876L152.017 75.8817L152.011 75.8759L150.853 74.7011C150.811 73.4098 150.734 72.0857 150.619 70.7294L150.618 70.7216L150.505 69.6884C150.432 69.0543 150.349 68.4127 150.259 67.7636L150.825 68.248Z" stroke="#89E4E8" stroke-width="0.95"/>
<path d="M141.44 61.2381V61.2391L143.147 62.3543L143.152 62.3582C143.437 62.5394 143.696 62.7202 143.963 62.909V62.91L144.771 63.5086L144.779 63.5135L146.274 64.575C146.555 65.9143 146.8 67.2283 147.009 68.5174V68.5184C147.135 69.5008 147.246 70.4697 147.343 71.4246L146.834 70.9822H146.833L146.145 70.3836H146.144C146.04 70.2899 145.912 70.1748 145.776 70.0779H145.777L145.418 69.7791L145.406 69.7693L143.938 68.6268L143.224 68.0584L143.2 68.0408L142.576 67.6053C142.135 65.3647 141.549 63.1128 140.818 60.8494L141.44 61.2381Z" stroke="#89E4E8" stroke-width="0.95"/>
<path d="M130.505 55.4432C130.663 55.5115 130.816 55.5775 130.961 55.6434L132.846 56.5135L132.848 56.5145C134.038 57.0551 135.172 57.6678 136.328 58.2733L136.677 59.0887C136.794 59.4249 136.911 59.7527 137.028 60.0721V60.0731C137.267 60.7606 137.497 61.4298 137.716 62.0809L138.045 63.0604V63.0613C138.102 63.2306 138.153 63.3938 138.2 63.5555L138.337 64.0418C138.409 64.3123 138.481 64.5829 138.554 64.8533L138.006 64.4969L137.999 64.493L137.609 64.2479L137.604 64.244L137.597 64.2401L137.178 63.9949L137.174 63.993L136.365 63.5301L134.72 62.5789L134.7 62.5692L133.187 61.783C132.968 61.1878 132.745 60.5844 132.495 59.9803L132.49 59.9705L132.062 59.0125L131.617 58.0555C131.336 57.399 131.034 56.7515 130.713 56.1131L130.708 56.1024L130.309 55.3572C130.374 55.3859 130.44 55.4151 130.505 55.4432Z" stroke="#89E4E8" stroke-width="0.95"/>
<path d="M119.654 51.6162V51.6172L120.164 51.7529L120.658 51.8857L121.634 52.208L121.646 52.2109L123.611 52.8056V52.8066C124.209 53.0042 124.809 53.2261 125.389 53.4502C125.753 54.0159 126.102 54.5802 126.431 55.1455V55.1465C126.788 55.7761 127.125 56.3959 127.442 57.0068L127.441 57.0078L127.444 57.0127C127.78 57.6412 128.097 58.2603 128.393 58.8701V58.8711C128.508 59.1112 128.622 59.3558 128.735 59.6006L128.599 59.539L128.582 59.5312L128.565 59.5244L128.375 59.4433C128.306 59.4123 128.219 59.3734 128.128 59.3398H128.129L126.363 58.6328L125.508 58.2578L125.494 58.2519L125.48 58.2461L124.582 57.9199L122.942 57.3252C122.793 57.082 122.642 56.8333 122.493 56.5771L122.489 56.5693L122.484 56.5615L121.915 55.664L121.912 55.6582L120.741 53.8867L120.735 53.8779L120.106 52.9804C120.006 52.8182 119.896 52.6674 119.792 52.5302C119.677 52.3792 119.575 52.2489 119.477 52.1093L119.472 52.1025L119.466 52.0957L118.971 51.4404L119.654 51.6162Z" stroke="#89E4E8" stroke-width="0.95"/>
<path d="M125.817 64.7859L126.04 64.8865V64.8875L126.55 65.1326L126.556 65.1356L128.55 66.0545H128.551C128.876 66.2157 129.202 66.3842 129.532 66.5545C129.855 66.7211 130.182 66.8891 130.51 67.0516C130.825 67.2307 131.142 67.4004 131.458 67.5623L132.248 68.034C132.366 68.4584 132.479 68.8894 132.583 69.3279V69.3318C132.703 69.8217 132.822 70.3087 132.941 70.8221C133.067 71.4635 133.183 72.0979 133.293 72.7244L132.463 72.1922L132.046 71.9217H132.045C131.963 71.8673 131.871 71.8163 131.804 71.7801C131.724 71.7361 131.671 71.7073 131.635 71.6824L131.62 71.6727L131.604 71.6639L130.706 71.1463H130.705L129.844 70.6336L129.835 70.6287L129.37 70.3748L128.929 70.1346L128.922 70.1307L127.268 69.2684L127.209 69.077L127.205 69.0672L127.086 68.7137L126.845 68.0057C126.684 67.5305 126.514 67.0464 126.333 66.5535L125.794 65.0848L125.79 65.0731L125.785 65.0633L125.634 64.7117L125.817 64.7859Z" stroke="#89E4E8" stroke-width="0.95"/>
<path d="M116.593 61.4881C116.679 61.5144 116.766 61.5409 116.853 61.5672C116.943 61.5944 117.033 61.622 117.123 61.6492L118.74 62.1385L119.785 62.4637L119.789 62.4647C120.128 62.5674 120.472 62.6975 120.793 62.8299L120.812 62.8377L122.724 63.532C123.147 64.4253 123.536 65.31 123.888 66.1863L123.891 66.1942L124.181 66.8797H124.182L124.452 67.6141C124.499 67.7422 124.544 67.8701 124.59 67.9969L124.207 67.8113L124.184 67.8006L124.162 67.7928L123.941 67.7049C123.867 67.6741 123.781 67.6392 123.7 67.6092H123.701L121.799 66.827H121.8C121.626 66.7483 121.452 66.6795 121.277 66.6199L120.804 66.4588H120.805L119.816 66.1053C119.249 65.8845 118.646 65.6616 118.037 65.4764C117.602 64.6402 117.144 63.7869 116.657 62.9197L116.653 62.9129L116.648 62.9061C116.311 62.3506 115.965 61.7964 115.612 61.241L116.593 61.4881Z" stroke="#89E4E8" stroke-width="0.95"/>
<g filter="url(#filter1_d_510_1829)">
<circle cx="97.0744" cy="229.425" r="3.8" fill="#89E4E8"/>
</g>
<g filter="url(#filter2_d_510_1829)">
<circle cx="14.4245" cy="145.825" r="3.8" fill="#89E4E8"/>
</g>
<g filter="url(#filter3_d_510_1829)">
<circle cx="179.725" cy="145.825" r="3.8" fill="#89E4E8"/>
</g>
<g filter="url(#filter4_d_510_1829)">
<circle cx="97.0744" cy="63.175" r="3.8" fill="#89E4E8"/>
</g>
<g filter="url(#filter5_d_510_1829)">
<circle cx="97.7382" cy="145.315" r="73.591" stroke="#89E4E8" stroke-width="5.25441" shape-rendering="crispEdges"/>
</g>
<defs>
<filter id="filter0_d_510_1829" x="154.679" y="56.9178" width="246.642" height="173.131" filterUnits="userSpaceOnUse" color-interpolation-filters="sRGB">
<feFlood flood-opacity="0" result="BackgroundImageFix"/>
<feColorMatrix in="SourceAlpha" type="matrix" values="0 0 0 0 0 0 0 0 0 0 0 0 0 0 0 0 0 0 127 0" result="hardAlpha"/>
<feOffset/>
<feGaussianBlur stdDeviation="2.01994"/>
<feComposite in2="hardAlpha" operator="out"/>
<feColorMatrix type="matrix" values="0 0 0 0 0.537255 0 0 0 0 0.894118 0 0 0 0 0.909804 0 0 0 1 0"/>
<feBlend mode="normal" in2="BackgroundImageFix" result="effect1_dropShadow_510_1829"/>
<feBlend mode="normal" in="SourceGraphic" in2="effect1_dropShadow_510_1829" result="shape"/>
</filter>
<filter id="filter1_d_510_1829" x="82.6499" y="215.001" width="28.8492" height="28.8491" filterUnits="userSpaceOnUse" color-interpolation-filters="sRGB">
<feFlood flood-opacity="0" result="BackgroundImageFix"/>
<feColorMatrix in="SourceAlpha" type="matrix" values="0 0 0 0 0 0 0 0 0 0 0 0 0 0 0 0 0 0 127 0" result="hardAlpha"/>
<feOffset/>
<feGaussianBlur stdDeviation="5.31226"/>
<feComposite in2="hardAlpha" operator="out"/>
<feColorMatrix type="matrix" values="0 0 0 0 0.537255 0 0 0 0 0.894118 0 0 0 0 0.909804 0 0 0 1 0"/>
<feBlend mode="normal" in2="BackgroundImageFix" result="effect1_dropShadow_510_1829"/>
<feBlend mode="normal" in="SourceGraphic" in2="effect1_dropShadow_510_1829" result="shape"/>
</filter>
<filter id="filter2_d_510_1829" x="-1.52588e-05" y="131.401" width="28.8492" height="28.8491" filterUnits="userSpaceOnUse" color-interpolation-filters="sRGB">
<feFlood flood-opacity="0" result="BackgroundImageFix"/>
<feColorMatrix in="SourceAlpha" type="matrix" values="0 0 0 0 0 0 0 0 0 0 0 0 0 0 0 0 0 0 127 0" result="hardAlpha"/>
<feOffset/>
<feGaussianBlur stdDeviation="5.31226"/>
<feComposite in2="hardAlpha" operator="out"/>
<feColorMatrix type="matrix" values="0 0 0 0 0.537255 0 0 0 0 0.894118 0 0 0 0 0.909804 0 0 0 1 0"/>
<feBlend mode="normal" in2="BackgroundImageFix" result="effect1_dropShadow_510_1829"/>
<feBlend mode="normal" in="SourceGraphic" in2="effect1_dropShadow_510_1829" result="shape"/>
</filter>
<filter id="filter3_d_510_1829" x="165.3" y="131.401" width="28.8492" height="28.8491" filterUnits="userSpaceOnUse" color-interpolation-filters="sRGB">
<feFlood flood-opacity="0" result="BackgroundImageFix"/>
<feColorMatrix in="SourceAlpha" type="matrix" values="0 0 0 0 0 0 0 0 0 0 0 0 0 0 0 0 0 0 127 0" result="hardAlpha"/>
<feOffset/>
<feGaussianBlur stdDeviation="5.31226"/>
<feComposite in2="hardAlpha" operator="out"/>
<feColorMatrix type="matrix" values="0 0 0 0 0.537255 0 0 0 0 0.894118 0 0 0 0 0.909804 0 0 0 1 0"/>
<feBlend mode="normal" in2="BackgroundImageFix" result="effect1_dropShadow_510_1829"/>
<feBlend mode="normal" in="SourceGraphic" in2="effect1_dropShadow_510_1829" result="shape"/>
</filter>
<filter id="filter4_d_510_1829" x="82.6499" y="48.7505" width="28.8492" height="28.8491" filterUnits="userSpaceOnUse" color-interpolation-filters="sRGB">
<feFlood flood-opacity="0" result="BackgroundImageFix"/>
<feColorMatrix in="SourceAlpha" type="matrix" values="0 0 0 0 0 0 0 0 0 0 0 0 0 0 0 0 0 0 127 0" result="hardAlpha"/>
<feOffset/>
<feGaussianBlur stdDeviation="5.31226"/>
<feComposite in2="hardAlpha" operator="out"/>
<feColorMatrix type="matrix" values="0 0 0 0 0.537255 0 0 0 0 0.894118 0 0 0 0 0.909804 0 0 0 1 0"/>
<feBlend mode="normal" in2="BackgroundImageFix" result="effect1_dropShadow_510_1829"/>
<feBlend mode="normal" in="SourceGraphic" in2="effect1_dropShadow_510_1829" result="shape"/>
</filter>
<filter id="filter5_d_510_1829" x="8.23936" y="55.8165" width="178.998" height="178.998" filterUnits="userSpaceOnUse" color-interpolation-filters="sRGB">
<feFlood flood-opacity="0" result="BackgroundImageFix"/>
<feColorMatrix in="SourceAlpha" type="matrix" values="0 0 0 0 0 0 0 0 0 0 0 0 0 0 0 0 0 0 127 0" result="hardAlpha"/>
<feOffset/>
<feGaussianBlur stdDeviation="6.64033"/>
<feComposite in2="hardAlpha" operator="out"/>
<feColorMatrix type="matrix" values="0 0 0 0 0.537255 0 0 0 0 0.894118 0 0 0 0 0.909804 0 0 0 1 0"/>
<feBlend mode="normal" in2="BackgroundImageFix" result="effect1_dropShadow_510_1829"/>
<feBlend mode="normal" in="SourceGraphic" in2="effect1_dropShadow_510_1829" result="shape"/>
</filter>
<linearGradient id="paint0_linear_510_1829" x1="265.113" y1="62.1696" x2="265.113" y2="66.3064" gradientUnits="userSpaceOnUse">
<stop stop-color="#89E4E8"/>
<stop offset="1" stop-color="#00F4FF"/>
</linearGradient>
<linearGradient id="paint1_linear_510_1829" x1="277.394" y1="63.7186" x2="277.394" y2="224.279" gradientUnits="userSpaceOnUse">
<stop stop-color="#89E4E8"/>
<stop offset="1" stop-color="#00F4FF"/>
</linearGradient>
<linearGradient id="paint2_linear_510_1829" x1="328.975" y1="218.333" x2="328.975" y2="224.797" gradientUnits="userSpaceOnUse">
<stop stop-color="#89E4E8"/>
<stop offset="1" stop-color="#00F4FF"/>
</linearGradient>
<linearGradient id="paint3_linear_510_1829" x1="266.147" y1="212.645" x2="266.147" y2="220.143" gradientUnits="userSpaceOnUse">
<stop stop-color="#89E4E8"/>
<stop offset="1" stop-color="#00F4FF"/>
</linearGradient>
<linearGradient id="paint4_linear_510_1829" x1="245.98" y1="212.645" x2="245.98" y2="220.143" gradientUnits="userSpaceOnUse">
<stop stop-color="#89E4E8"/>
<stop offset="1" stop-color="#00F4FF"/>
</linearGradient>
<linearGradient id="paint5_linear_510_1829" x1="225.813" y1="212.645" x2="225.813" y2="220.143" gradientUnits="userSpaceOnUse">
<stop stop-color="#89E4E8"/>
<stop offset="1" stop-color="#00F4FF"/>
</linearGradient>
<linearGradient id="paint6_linear_510_1829" x1="205.646" y1="212.645" x2="205.646" y2="220.143" gradientUnits="userSpaceOnUse">
<stop stop-color="#89E4E8"/>
<stop offset="1" stop-color="#00F4FF"/>
</linearGradient>
<linearGradient id="paint7_linear_510_1829" x1="185.479" y1="212.645" x2="185.479" y2="220.143" gradientUnits="userSpaceOnUse">
<stop stop-color="#89E4E8"/>
<stop offset="1" stop-color="#00F4FF"/>
</linearGradient>
</defs>
</svg>
