<svg width="981" height="125" viewBox="0 0 981 125" fill="none" xmlns="http://www.w3.org/2000/svg">
<g filter="url(#filter0_d_314_1134)">
<path d="M406.211 16.8546H241.645L236.066 22.4435H411.232L406.211 16.8546Z" fill="#4DF4FC"/>
<path d="M167.449 45.9163H188.09L195.342 38.6508H160.197L167.449 45.9163Z" fill="#4DF4FC"/>
<path d="M297.987 49.8289H265.074L258.38 56.5355H291.293L297.987 49.8289Z" fill="#4DF4FC"/>
<path d="M293.525 56.5356H310.819C311.19 56.5356 311.562 56.5356 311.934 56.5356L327.554 40.328H449.165C449.537 40.328 449.723 40.1417 449.723 39.7691C449.723 39.3965 449.723 39.0239 449.723 38.6514L441.355 30.827C441.355 30.4544 441.169 30.2681 440.797 30.2681H319.744L293.525 56.5356Z" fill="#4DF4FC"/>
<path d="M738.69 16.8546H574.681L569.103 22.4435H744.268L738.69 16.8546Z" fill="#4DF4FC"/>
<path d="M660.591 30.2681H539.537C539.537 30.2681 539.351 30.4544 538.979 30.827L531.17 38.6514C530.798 39.0239 530.611 39.3965 530.611 39.7691C530.983 40.1417 531.356 40.328 531.727 40.328H652.781L668.959 56.5356C668.959 56.5356 669.145 56.5356 669.516 56.5356H686.81L660.591 30.2681Z" fill="#4DF4FC"/>
<path d="M792.243 45.9163H812.884L820.136 38.6508H784.991L792.243 45.9163Z" fill="#4DF4FC"/>
<path d="M715.26 49.8289H682.347L689.041 56.5355H722.512L715.26 49.8289Z" fill="#4DF4FC"/>
<path fill-rule="evenodd" clip-rule="evenodd" d="M976.335 40.328L967.967 48.1524C967.967 48.525 967.781 48.7113 967.409 48.7113H945.653C945.281 48.7113 945.095 48.525 945.095 48.1524L936.727 40.328H904.93L888.752 56.5356H878.711L894.889 40.328H880.385L864.207 56.5356H854.724L870.901 40.328H856.397L840.219 56.5356C840.219 56.5356 840.033 56.5356 839.661 56.5356H820.136L795.033 81.6854C795.033 81.6854 794.847 81.6854 794.475 81.6854H676.211L645.529 112.424C645.529 112.797 645.343 112.983 644.971 112.983H582.492L574.682 120.807C574.31 120.807 574.124 120.807 574.124 120.807H406.211C406.211 120.807 406.025 120.807 405.653 120.807L397.843 112.983H335.363C334.992 112.983 334.806 112.797 334.806 112.424L304.124 81.6854H185.86C185.488 81.6854 185.302 81.6854 185.302 81.6854L160.198 56.5356H140.674C140.302 56.5356 140.116 56.5356 140.116 56.5356L123.938 40.328H109.992L126.17 56.5356H116.128L99.9505 40.328H85.4465L101.624 56.5356H91.5827L75.4049 40.328H43.6076L35.2399 48.1524C35.2399 48.525 35.0537 48.7113 34.6818 48.7113H12.9258C12.9258 48.7113 12.7397 48.525 12.3678 48.1524L4.55806 40.328C4.18615 39.9554 4 39.5829 4 39.2103C4.3719 38.8377 4.74387 38.6514 5.11577 38.6514H13.4835H157.409L166.893 47.5935C166.893 47.9661 167.078 48.1524 167.45 48.1524H188.091C188.463 48.1524 188.835 47.9661 189.207 47.5935L198.132 38.6514H277.905L285.715 30.827C286.087 30.4544 286.459 30.2681 286.831 30.2681H317.512L300.219 47.5935H265.074C264.702 47.5935 264.331 47.7798 263.959 48.1524L255.591 56.5356H224.909L217.099 64.3601C217.099 64.7327 216.913 64.9189 216.542 64.9189H186.417C186.046 64.9189 185.86 64.7327 185.86 64.3601L178.05 56.5356H162.988L186.417 80.0088H304.124L334.806 49.2701C334.806 49.2701 334.992 49.2701 335.363 49.2701H490.446H644.971C645.343 49.2701 645.529 49.2701 645.529 49.2701L676.211 80.0088H794.475L817.347 56.5356H802.285L794.475 64.3601C794.475 64.7327 794.289 64.9189 793.918 64.9189H763.794C763.794 64.9189 763.608 64.7327 763.236 64.3601L755.426 56.5356H724.744L716.376 48.1524C716.004 47.7798 715.818 47.5935 715.818 47.5935H680.674L663.38 30.2681H694.062C694.062 30.2681 694.248 30.4544 694.62 30.827L702.43 38.6514H782.203L791.686 47.5935C791.686 47.9661 791.872 48.1524 792.244 48.1524H812.885C813.257 48.1524 813.628 47.9661 814 47.5935L822.926 38.6514H967.409H975.219C975.963 38.6514 976.335 38.8377 976.335 39.2103C976.335 39.5829 976.335 39.9554 976.335 40.328ZM674.537 81.1266L644.971 50.9468H490.446H335.922L305.798 81.1266L335.922 110.747H490.446H644.971L674.537 81.1266Z" fill="#4DF4FC"/>
<path d="M529.496 30.2681H450.839C450.467 30.2681 450.281 30.4544 450.281 30.827C449.909 31.1996 449.909 31.5722 450.281 31.9448L458.649 40.328C458.649 40.328 458.835 40.328 459.207 40.328H521.686C521.686 40.328 521.871 40.328 522.243 40.328L530.053 31.9448C530.425 31.5722 530.611 31.1996 530.611 30.827C530.239 30.4544 529.868 30.2681 529.496 30.2681Z" fill="#4DF4FC"/>
<path d="M131.189 22.4432H202.037H219.888H233.834L241.086 15.1777C241.086 14.8051 241.272 14.6188 241.644 14.6188H406.21C406.582 14.6188 406.768 14.8051 406.768 15.1777L414.02 22.4432H490.446H566.313L573.566 15.1777C573.566 14.8051 573.752 14.6188 574.123 14.6188H738.69C739.061 14.6188 739.433 14.8051 739.805 15.1777L746.5 22.4432H761.004H778.855H849.144C849.516 22.4432 849.702 22.2569 849.702 21.8843C850.074 21.5117 850.074 21.1391 849.702 20.7665L841.334 12.3833C841.334 12.3833 841.148 12.3833 840.777 12.3833H771.045L763.235 4.55883C762.863 4.18624 762.677 4 762.677 4H527.822L521.128 11.2655H459.764L452.512 4H218.214C217.842 4 217.47 4.18624 217.099 4.55883L209.289 12.3833H139.557C139.185 12.3833 138.999 12.3833 138.999 12.3833L130.632 20.7665C130.26 21.1391 130.26 21.5117 130.632 21.8843C130.632 22.2569 130.817 22.4432 131.189 22.4432Z" fill="#4DF4FC"/>
<path d="M745.384 63.8V73.8599H747.615V63.8H745.384Z" fill="#4DF4FC"/>
<path d="M738.131 63.8V73.8599H739.804V63.8H738.131Z" fill="#4DF4FC"/>
<path d="M730.88 64.9177V73.8599H732.554V66.5944V64.3589V63.8H731.996H730.88V64.9177Z" fill="#4DF4FC"/>
<path d="M723.07 63.8V73.8599H724.743V63.8H723.07Z" fill="#4DF4FC"/>
<path d="M715.819 63.8V73.8599H717.492V63.8H715.819Z" fill="#4DF4FC"/>
<path d="M708.008 63.8V73.8599H710.24V63.8H708.008Z" fill="#4DF4FC"/>
<path d="M700.756 63.8V73.8599H702.43V63.8H700.756Z" fill="#4DF4FC"/>
<path d="M694.061 63.8H693.503V73.8599H695.176V64.9177V63.8H694.061Z" fill="#4DF4FC"/>
<path d="M685.693 63.8V73.8599H687.366V63.8H685.693Z" fill="#4DF4FC"/>
<path d="M234.949 73.8599V63.8H233.276V73.8599H234.949Z" fill="#4DF4FC"/>
<path d="M242.202 73.8599V63.8H240.528V73.8599H242.202Z" fill="#4DF4FC"/>
<path d="M248.338 63.8H247.78V64.3589V66.5944V73.8599H250.012V64.9177V63.8H248.338Z" fill="#4DF4FC"/>
<path d="M257.264 73.8599V63.8H255.591V73.8599H257.264Z" fill="#4DF4FC"/>
<path d="M264.516 73.8599V63.8H262.842V73.8599H264.516Z" fill="#4DF4FC"/>
<path d="M272.326 73.8599V63.8H270.653V73.8599H272.326Z" fill="#4DF4FC"/>
<path d="M279.578 73.8599V63.8H277.905V73.8599H279.578Z" fill="#4DF4FC"/>
<path d="M285.156 64.9177V73.8599H287.388V63.8H286.83H285.156V64.9177Z" fill="#4DF4FC"/>
<path d="M294.641 73.8599V63.8H292.967V73.8599H294.641Z" fill="#4DF4FC"/>
<path d="M345.4 75.1777V71.4857H376.288V78.1937L369.502 77.2577V75.1777H356.06V85.9937H369.502V83.9137L376.288 82.9777V89.6857H349.274V75.1777H345.4ZM380.957 89.6857V71.4857H407.971V89.6857H380.957ZM387.743 85.9937H401.185V75.1777H387.743V85.9937ZM413.178 89.6857V70.7577L433.406 82.0677V75.1777H431.196V71.4857H440.192V89.6857H434.446L419.964 81.3657V85.9937H422.174V89.6857H413.178ZM443.578 78.7657V71.4857H472.672V78.7657L465.886 77.8297V75.1777H461.518V89.6857H454.732V75.1777H450.364V77.8297L443.578 78.7657ZM472.131 89.6857L478.475 75.1777H475.251V71.4857H493.321L501.225 89.6857H494.205L492.229 85.1357H481.153L479.177 89.6857H472.131ZM482.765 81.4437H490.617L487.861 75.1777H485.521L482.765 81.4437ZM499.089 75.1777V71.4857H529.977V78.1937L523.191 77.2577V75.1777H509.749V85.9937H523.191V83.9137L529.977 82.9777V89.6857H502.963V75.1777H499.089ZM532.826 78.7657V71.4857H561.92V78.7657L555.134 77.8297V75.1777H550.766V89.6857H543.98V75.1777H539.612V77.8297L532.826 78.7657ZM573.103 75.1777V71.4857H583.763V84.2257L587.091 85.9937H597.179V71.4857H603.965V89.6857H585.271L576.977 85.2657V75.1777H573.103ZM608.908 89.6857V83.7057L615.694 84.6937V85.9937H628.85V83.7057L608.908 80.5597V71.4857H635.636V77.8037L628.85 76.7637V75.1777H615.694V77.6477L635.636 80.7937V89.6857H608.908Z" fill="#94F2F7"/>
</g>
<defs>
<filter id="filter0_d_314_1134" x="0" y="0" width="980.335" height="124.807" filterUnits="userSpaceOnUse" color-interpolation-filters="sRGB">
<feFlood flood-opacity="0" result="BackgroundImageFix"/>
<feColorMatrix in="SourceAlpha" type="matrix" values="0 0 0 0 0 0 0 0 0 0 0 0 0 0 0 0 0 0 127 0" result="hardAlpha"/>
<feOffset/>
<feGaussianBlur stdDeviation="2"/>
<feComposite in2="hardAlpha" operator="out"/>
<feColorMatrix type="matrix" values="0 0 0 0 0 0 0 0 0 1 0 0 0 0 1 0 0 0 1 0"/>
<feBlend mode="normal" in2="BackgroundImageFix" result="effect1_dropShadow_314_1134"/>
<feBlend mode="normal" in="SourceGraphic" in2="effect1_dropShadow_314_1134" result="shape"/>
</filter>
</defs>
</svg>
