<svg width="22" height="18" viewBox="0 0 22 18" fill="none" xmlns="http://www.w3.org/2000/svg">
<path d="M10.5359 9.5778L2.10718 4.2568V14.8988H21.0718C21.0718 16.0743 20.1189 17.0272 18.9434 17.0272H2.10718C1.52771 17.0272 1.03182 16.819 0.619511 16.4025C0.206504 15.9854 0 15.4841 0 14.8988V2.1284C0 1.54309 0.206504 1.04185 0.619511 0.624685C1.03182 0.208228 1.52771 0 2.10718 0H18.9646C19.5441 0 20.0403 0.208228 20.4533 0.624685C20.8656 1.04185 21.0718 1.54309 21.0718 2.1284V14.8988H18.9646V4.2568L10.5359 9.5778ZM10.5359 7.4494L18.9646 2.1284H2.10718L10.5359 7.4494ZM2.10718 4.2568V2.1284V14.8988V8.5136V4.2568Z" fill="#FEFFFF"/>
</svg>
