<svg width="18" height="18" viewBox="0 0 18 18" fill="none" xmlns="http://www.w3.org/2000/svg">
<path d="M16.8662 17.0272C14.7268 17.0272 12.6415 16.5738 10.6103 15.6669C8.57838 14.7607 6.77899 13.5625 5.21211 12.0723C3.64456 10.5827 2.38416 8.87212 1.43089 6.94048C0.476964 5.00947 0 3.02706 0 0.993254C0 0.709467 0.0995056 0.472978 0.298517 0.283787C0.497528 0.0945955 0.746293 0 1.04481 0H5.07479C5.30697 0 5.51427 0.0709466 5.6967 0.21284C5.87913 0.354733 5.98692 0.536042 6.02009 0.756765L6.66688 4.06761C6.70005 4.28833 6.69607 4.48919 6.65494 4.67018C6.61315 4.85181 6.51762 5.01357 6.36836 5.15546L3.98023 7.47305C4.67677 8.6082 5.54744 9.6724 6.59225 10.6657C7.63706 11.6589 8.78967 12.5181 10.0501 13.2434L12.3885 11.0204C12.5377 10.8785 12.7327 10.7719 12.9735 10.7007C13.2137 10.63 13.4499 10.6105 13.682 10.642L17.115 11.3042C17.3472 11.3515 17.5379 11.4577 17.6871 11.623C17.8364 11.7888 17.911 11.9821 17.911 12.2028V16.034C17.911 16.3177 17.8115 16.5542 17.6125 16.7434C17.4135 16.9326 17.1647 17.0272 16.8662 17.0272Z" fill="#FEFFFF"/>
</svg>
