<svg width="39" height="39" viewBox="0 0 39 39" fill="none" xmlns="http://www.w3.org/2000/svg">
<path d="M17.4384 33.0381C16.9508 33.5255 16.2896 33.7993 15.6002 33.7993C14.9108 33.7993 14.2496 33.5255 13.762 33.0381L2.062 21.3381C1.57457 20.8505 1.30075 20.1893 1.30075 19.4999C1.30075 18.8104 1.57457 18.1492 2.062 17.6617L13.762 5.96167C14.2524 5.48806 14.9091 5.22599 15.5908 5.23192C16.2726 5.23784 16.9247 5.51128 17.4067 5.99334C17.8888 6.4754 18.1622 7.12752 18.1681 7.80923C18.1741 8.49094 17.912 9.14771 17.4384 9.63807L10.4002 16.8999H35.1002C35.7898 16.8999 36.4511 17.1738 36.9387 17.6614C37.4263 18.149 37.7002 18.8103 37.7002 19.4999C37.7002 20.1894 37.4263 20.8508 36.9387 21.3383C36.4511 21.8259 35.7898 22.0999 35.1002 22.0999H10.4002L17.4384 29.3617C17.9258 29.8492 18.1996 30.5104 18.1996 31.1999C18.1996 31.8893 17.9258 32.5505 17.4384 33.0381Z" fill="#FFEC09"/>
</svg>
