<svg width="326" height="81" viewBox="0 0 326 81" fill="none" xmlns="http://www.w3.org/2000/svg">
<path d="M4.3418 12.832C1.44727 12.832 0 10.7227 0 6.50391C0 2.16797 1.44727 0 4.3418 0C7.23633 0 8.68359 2.16797 8.68359 6.50391C8.68359 10.7227 7.23633 12.832 4.3418 12.832ZM4.33301 7.99805C3.96387 7.99805 3.66504 7.86328 3.43652 7.59375C3.21387 7.31836 3.10254 6.95508 3.10254 6.50391C3.10254 6.05273 3.21387 5.69238 3.43652 5.42285C3.66504 5.14746 3.96387 5.00977 4.33301 5.00977C4.70215 5.00977 4.99805 5.14746 5.2207 5.42285C5.44922 5.69238 5.56348 6.05273 5.56348 6.50391C5.56348 6.95508 5.44922 7.31836 5.2207 7.59375C4.99805 7.86328 4.70215 7.99805 4.33301 7.99805ZM4.3418 10.8545C5.77734 10.8545 6.49512 9.4043 6.49512 6.50391C6.49512 3.48633 5.77734 1.97754 4.3418 1.97754C2.89453 1.97754 2.1709 3.48633 2.1709 6.50391C2.1709 9.4043 2.89453 10.8545 4.3418 10.8545ZM14.0889 12.6562V0.175781H16.2158V12.6562H14.0889ZM11.0215 12.6562V10.7578H14.2646V12.6562H11.0215ZM16.04 12.6562V10.7578H18.9492V12.6562H16.04ZM11.1973 3.26953V1.23047L14.0889 0.175781V2.25L11.1973 3.26953ZM25.4355 12.832C22.541 12.832 21.0938 10.7227 21.0938 6.50391C21.0938 2.16797 22.541 0 25.4355 0C28.3301 0 29.7773 2.16797 29.7773 6.50391C29.7773 10.7227 28.3301 12.832 25.4355 12.832ZM25.4268 7.99805C25.0576 7.99805 24.7588 7.86328 24.5303 7.59375C24.3076 7.31836 24.1963 6.95508 24.1963 6.50391C24.1963 6.05273 24.3076 5.69238 24.5303 5.42285C24.7588 5.14746 25.0576 5.00977 25.4268 5.00977C25.7959 5.00977 26.0918 5.14746 26.3145 5.42285C26.543 5.69238 26.6572 6.05273 26.6572 6.50391C26.6572 6.95508 26.543 7.31836 26.3145 7.59375C26.0918 7.86328 25.7959 7.99805 25.4268 7.99805ZM25.4355 10.8545C26.8711 10.8545 27.5889 9.4043 27.5889 6.50391C27.5889 3.48633 26.8711 1.97754 25.4355 1.97754C23.9883 1.97754 23.2646 3.48633 23.2646 6.50391C23.2646 9.4043 23.9883 10.8545 25.4355 10.8545ZM35.9824 12.832C33.0879 12.832 31.6406 10.7227 31.6406 6.50391C31.6406 2.16797 33.0879 0 35.9824 0C38.877 0 40.3242 2.16797 40.3242 6.50391C40.3242 10.7227 38.877 12.832 35.9824 12.832ZM35.9736 7.99805C35.6045 7.99805 35.3057 7.86328 35.0771 7.59375C34.8545 7.31836 34.7432 6.95508 34.7432 6.50391C34.7432 6.05273 34.8545 5.69238 35.0771 5.42285C35.3057 5.14746 35.6045 5.00977 35.9736 5.00977C36.3428 5.00977 36.6387 5.14746 36.8613 5.42285C37.0898 5.69238 37.2041 6.05273 37.2041 6.50391C37.2041 6.95508 37.0898 7.31836 36.8613 7.59375C36.6387 7.86328 36.3428 7.99805 35.9736 7.99805ZM35.9824 10.8545C37.418 10.8545 38.1357 9.4043 38.1357 6.50391C38.1357 3.48633 37.418 1.97754 35.9824 1.97754C34.5352 1.97754 33.8115 3.48633 33.8115 6.50391C33.8115 9.4043 34.5352 10.8545 35.9824 10.8545ZM46.5293 12.832C43.6348 12.832 42.1875 10.7227 42.1875 6.50391C42.1875 2.16797 43.6348 0 46.5293 0C49.4238 0 50.8711 2.16797 50.8711 6.50391C50.8711 10.7227 49.4238 12.832 46.5293 12.832ZM46.5205 7.99805C46.1514 7.99805 45.8525 7.86328 45.624 7.59375C45.4014 7.31836 45.29 6.95508 45.29 6.50391C45.29 6.05273 45.4014 5.69238 45.624 5.42285C45.8525 5.14746 46.1514 5.00977 46.5205 5.00977C46.8896 5.00977 47.1855 5.14746 47.4082 5.42285C47.6367 5.69238 47.751 6.05273 47.751 6.50391C47.751 6.95508 47.6367 7.31836 47.4082 7.59375C47.1855 7.86328 46.8896 7.99805 46.5205 7.99805ZM46.5293 10.8545C47.9648 10.8545 48.6826 9.4043 48.6826 6.50391C48.6826 3.48633 47.9648 1.97754 46.5293 1.97754C45.082 1.97754 44.3584 3.48633 44.3584 6.50391C44.3584 9.4043 45.082 10.8545 46.5293 10.8545ZM56.2764 12.6562V0.175781H58.4033V12.6562H56.2764ZM53.209 12.6562V10.7578H56.4521V12.6562H53.209ZM58.2275 12.6562V10.7578H61.1367V12.6562H58.2275ZM53.3848 3.26953V1.23047L56.2764 0.175781V2.25L53.3848 3.26953ZM67.623 12.832C64.7285 12.832 63.2812 10.7227 63.2812 6.50391C63.2812 2.16797 64.7285 0 67.623 0C70.5176 0 71.9648 2.16797 71.9648 6.50391C71.9648 10.7227 70.5176 12.832 67.623 12.832ZM67.6143 7.99805C67.2451 7.99805 66.9463 7.86328 66.7178 7.59375C66.4951 7.31836 66.3838 6.95508 66.3838 6.50391C66.3838 6.05273 66.4951 5.69238 66.7178 5.42285C66.9463 5.14746 67.2451 5.00977 67.6143 5.00977C67.9834 5.00977 68.2793 5.14746 68.502 5.42285C68.7305 5.69238 68.8447 6.05273 68.8447 6.50391C68.8447 6.95508 68.7305 7.31836 68.502 7.59375C68.2793 7.86328 67.9834 7.99805 67.6143 7.99805ZM67.623 10.8545C69.0586 10.8545 69.7764 9.4043 69.7764 6.50391C69.7764 3.48633 69.0586 1.97754 67.623 1.97754C66.1758 1.97754 65.4521 3.48633 65.4521 6.50391C65.4521 9.4043 66.1758 10.8545 67.623 10.8545ZM78.1699 12.832C75.2754 12.832 73.8281 10.7227 73.8281 6.50391C73.8281 2.16797 75.2754 0 78.1699 0C81.0645 0 82.5117 2.16797 82.5117 6.50391C82.5117 10.7227 81.0645 12.832 78.1699 12.832ZM78.1611 7.99805C77.792 7.99805 77.4932 7.86328 77.2646 7.59375C77.042 7.31836 76.9307 6.95508 76.9307 6.50391C76.9307 6.05273 77.042 5.69238 77.2646 5.42285C77.4932 5.14746 77.792 5.00977 78.1611 5.00977C78.5303 5.00977 78.8262 5.14746 79.0488 5.42285C79.2773 5.69238 79.3916 6.05273 79.3916 6.50391C79.3916 6.95508 79.2773 7.31836 79.0488 7.59375C78.8262 7.86328 78.5303 7.99805 78.1611 7.99805ZM78.1699 10.8545C79.6055 10.8545 80.3232 9.4043 80.3232 6.50391C80.3232 3.48633 79.6055 1.97754 78.1699 1.97754C76.7227 1.97754 75.999 3.48633 75.999 6.50391C75.999 9.4043 76.7227 10.8545 78.1699 10.8545ZM88.7168 12.832C85.8223 12.832 84.375 10.7227 84.375 6.50391C84.375 2.16797 85.8223 0 88.7168 0C91.6113 0 93.0586 2.16797 93.0586 6.50391C93.0586 10.7227 91.6113 12.832 88.7168 12.832ZM88.708 7.99805C88.3389 7.99805 88.04 7.86328 87.8115 7.59375C87.5889 7.31836 87.4775 6.95508 87.4775 6.50391C87.4775 6.05273 87.5889 5.69238 87.8115 5.42285C88.04 5.14746 88.3389 5.00977 88.708 5.00977C89.0771 5.00977 89.373 5.14746 89.5957 5.42285C89.8242 5.69238 89.9385 6.05273 89.9385 6.50391C89.9385 6.95508 89.8242 7.31836 89.5957 7.59375C89.373 7.86328 89.0771 7.99805 88.708 7.99805ZM88.7168 10.8545C90.1523 10.8545 90.8701 9.4043 90.8701 6.50391C90.8701 3.48633 90.1523 1.97754 88.7168 1.97754C87.2695 1.97754 86.5459 3.48633 86.5459 6.50391C86.5459 9.4043 87.2695 10.8545 88.7168 10.8545ZM98.4639 12.6562V0.175781H100.591V12.6562H98.4639ZM95.3965 12.6562V10.7578H98.6396V12.6562H95.3965ZM100.415 12.6562V10.7578H103.324V12.6562H100.415ZM95.5723 3.26953V1.23047L98.4639 0.175781V2.25L95.5723 3.26953ZM109.811 12.832C106.916 12.832 105.469 10.7227 105.469 6.50391C105.469 2.16797 106.916 0 109.811 0C112.705 0 114.152 2.16797 114.152 6.50391C114.152 10.7227 112.705 12.832 109.811 12.832ZM109.802 7.99805C109.433 7.99805 109.134 7.86328 108.905 7.59375C108.683 7.31836 108.571 6.95508 108.571 6.50391C108.571 6.05273 108.683 5.69238 108.905 5.42285C109.134 5.14746 109.433 5.00977 109.802 5.00977C110.171 5.00977 110.467 5.14746 110.689 5.42285C110.918 5.69238 111.032 6.05273 111.032 6.50391C111.032 6.95508 110.918 7.31836 110.689 7.59375C110.467 7.86328 110.171 7.99805 109.802 7.99805ZM109.811 10.8545C111.246 10.8545 111.964 9.4043 111.964 6.50391C111.964 3.48633 111.246 1.97754 109.811 1.97754C108.363 1.97754 107.64 3.48633 107.64 6.50391C107.64 9.4043 108.363 10.8545 109.811 10.8545ZM120.357 12.832C117.463 12.832 116.016 10.7227 116.016 6.50391C116.016 2.16797 117.463 0 120.357 0C123.252 0 124.699 2.16797 124.699 6.50391C124.699 10.7227 123.252 12.832 120.357 12.832ZM120.349 7.99805C119.979 7.99805 119.681 7.86328 119.452 7.59375C119.229 7.31836 119.118 6.95508 119.118 6.50391C119.118 6.05273 119.229 5.69238 119.452 5.42285C119.681 5.14746 119.979 5.00977 120.349 5.00977C120.718 5.00977 121.014 5.14746 121.236 5.42285C121.465 5.69238 121.579 6.05273 121.579 6.50391C121.579 6.95508 121.465 7.31836 121.236 7.59375C121.014 7.86328 120.718 7.99805 120.349 7.99805ZM120.357 10.8545C121.793 10.8545 122.511 9.4043 122.511 6.50391C122.511 3.48633 121.793 1.97754 120.357 1.97754C118.91 1.97754 118.187 3.48633 118.187 6.50391C118.187 9.4043 118.91 10.8545 120.357 10.8545ZM130.104 12.6562V0.175781H132.231V12.6562H130.104ZM127.037 12.6562V10.7578H130.28V12.6562H127.037ZM132.056 12.6562V10.7578H134.965V12.6562H132.056ZM127.213 3.26953V1.23047L130.104 0.175781V2.25L127.213 3.26953ZM141.451 12.832C138.557 12.832 137.109 10.7227 137.109 6.50391C137.109 2.16797 138.557 0 141.451 0C144.346 0 145.793 2.16797 145.793 6.50391C145.793 10.7227 144.346 12.832 141.451 12.832ZM141.442 7.99805C141.073 7.99805 140.774 7.86328 140.546 7.59375C140.323 7.31836 140.212 6.95508 140.212 6.50391C140.212 6.05273 140.323 5.69238 140.546 5.42285C140.774 5.14746 141.073 5.00977 141.442 5.00977C141.812 5.00977 142.107 5.14746 142.33 5.42285C142.559 5.69238 142.673 6.05273 142.673 6.50391C142.673 6.95508 142.559 7.31836 142.33 7.59375C142.107 7.86328 141.812 7.99805 141.442 7.99805ZM141.451 10.8545C142.887 10.8545 143.604 9.4043 143.604 6.50391C143.604 3.48633 142.887 1.97754 141.451 1.97754C140.004 1.97754 139.28 3.48633 139.28 6.50391C139.28 9.4043 140.004 10.8545 141.451 10.8545ZM151.198 12.6562V0.175781H153.325V12.6562H151.198ZM148.131 12.6562V10.7578H151.374V12.6562H148.131ZM153.149 12.6562V10.7578H156.059V12.6562H153.149ZM148.307 3.26953V1.23047L151.198 0.175781V2.25L148.307 3.26953ZM161.745 12.6562V0.175781H163.872V12.6562H161.745ZM158.678 12.6562V10.7578H161.921V12.6562H158.678ZM163.696 12.6562V10.7578H166.605V12.6562H163.696ZM158.854 3.26953V1.23047L161.745 0.175781V2.25L158.854 3.26953ZM173.092 12.832C170.197 12.832 168.75 10.7227 168.75 6.50391C168.75 2.16797 170.197 0 173.092 0C175.986 0 177.434 2.16797 177.434 6.50391C177.434 10.7227 175.986 12.832 173.092 12.832ZM173.083 7.99805C172.714 7.99805 172.415 7.86328 172.187 7.59375C171.964 7.31836 171.853 6.95508 171.853 6.50391C171.853 6.05273 171.964 5.69238 172.187 5.42285C172.415 5.14746 172.714 5.00977 173.083 5.00977C173.452 5.00977 173.748 5.14746 173.971 5.42285C174.199 5.69238 174.313 6.05273 174.313 6.50391C174.313 6.95508 174.199 7.31836 173.971 7.59375C173.748 7.86328 173.452 7.99805 173.083 7.99805ZM173.092 10.8545C174.527 10.8545 175.245 9.4043 175.245 6.50391C175.245 3.48633 174.527 1.97754 173.092 1.97754C171.645 1.97754 170.921 3.48633 170.921 6.50391C170.921 9.4043 171.645 10.8545 173.092 10.8545ZM183.639 12.832C180.744 12.832 179.297 10.7227 179.297 6.50391C179.297 2.16797 180.744 0 183.639 0C186.533 0 187.98 2.16797 187.98 6.50391C187.98 10.7227 186.533 12.832 183.639 12.832ZM183.63 7.99805C183.261 7.99805 182.962 7.86328 182.733 7.59375C182.511 7.31836 182.399 6.95508 182.399 6.50391C182.399 6.05273 182.511 5.69238 182.733 5.42285C182.962 5.14746 183.261 5.00977 183.63 5.00977C183.999 5.00977 184.295 5.14746 184.518 5.42285C184.746 5.69238 184.86 6.05273 184.86 6.50391C184.86 6.95508 184.746 7.31836 184.518 7.59375C184.295 7.86328 183.999 7.99805 183.63 7.99805ZM183.639 10.8545C185.074 10.8545 185.792 9.4043 185.792 6.50391C185.792 3.48633 185.074 1.97754 183.639 1.97754C182.191 1.97754 181.468 3.48633 181.468 6.50391C181.468 9.4043 182.191 10.8545 183.639 10.8545ZM193.386 12.6562V0.175781H195.513V12.6562H193.386ZM190.318 12.6562V10.7578H193.562V12.6562H190.318ZM195.337 12.6562V10.7578H198.246V12.6562H195.337ZM190.494 3.26953V1.23047L193.386 0.175781V2.25L190.494 3.26953ZM203.933 12.6562V0.175781H206.06V12.6562H203.933ZM200.865 12.6562V10.7578H204.108V12.6562H200.865ZM205.884 12.6562V10.7578H208.793V12.6562H205.884ZM201.041 3.26953V1.23047L203.933 0.175781V2.25L201.041 3.26953ZM215.279 12.832C212.385 12.832 210.938 10.7227 210.938 6.50391C210.938 2.16797 212.385 0 215.279 0C218.174 0 219.621 2.16797 219.621 6.50391C219.621 10.7227 218.174 12.832 215.279 12.832ZM215.271 7.99805C214.901 7.99805 214.603 7.86328 214.374 7.59375C214.151 7.31836 214.04 6.95508 214.04 6.50391C214.04 6.05273 214.151 5.69238 214.374 5.42285C214.603 5.14746 214.901 5.00977 215.271 5.00977C215.64 5.00977 215.936 5.14746 216.158 5.42285C216.387 5.69238 216.501 6.05273 216.501 6.50391C216.501 6.95508 216.387 7.31836 216.158 7.59375C215.936 7.86328 215.64 7.99805 215.271 7.99805ZM215.279 10.8545C216.715 10.8545 217.433 9.4043 217.433 6.50391C217.433 3.48633 216.715 1.97754 215.279 1.97754C213.832 1.97754 213.108 3.48633 213.108 6.50391C213.108 9.4043 213.832 10.8545 215.279 10.8545ZM225.826 12.832C222.932 12.832 221.484 10.7227 221.484 6.50391C221.484 2.16797 222.932 0 225.826 0C228.721 0 230.168 2.16797 230.168 6.50391C230.168 10.7227 228.721 12.832 225.826 12.832ZM225.817 7.99805C225.448 7.99805 225.149 7.86328 224.921 7.59375C224.698 7.31836 224.587 6.95508 224.587 6.50391C224.587 6.05273 224.698 5.69238 224.921 5.42285C225.149 5.14746 225.448 5.00977 225.817 5.00977C226.187 5.00977 226.482 5.14746 226.705 5.42285C226.934 5.69238 227.048 6.05273 227.048 6.50391C227.048 6.95508 226.934 7.31836 226.705 7.59375C226.482 7.86328 226.187 7.99805 225.817 7.99805ZM225.826 10.8545C227.262 10.8545 227.979 9.4043 227.979 6.50391C227.979 3.48633 227.262 1.97754 225.826 1.97754C224.379 1.97754 223.655 3.48633 223.655 6.50391C223.655 9.4043 224.379 10.8545 225.826 10.8545ZM235.573 12.6562V0.175781H237.7V12.6562H235.573ZM232.506 12.6562V10.7578H235.749V12.6562H232.506ZM237.524 12.6562V10.7578H240.434V12.6562H237.524ZM232.682 3.26953V1.23047L235.573 0.175781V2.25L232.682 3.26953ZM246.12 12.6562V0.175781H248.247V12.6562H246.12ZM243.053 12.6562V10.7578H246.296V12.6562H243.053ZM248.071 12.6562V10.7578H250.98V12.6562H248.071ZM243.229 3.26953V1.23047L246.12 0.175781V2.25L243.229 3.26953ZM257.467 12.832C254.572 12.832 253.125 10.7227 253.125 6.50391C253.125 2.16797 254.572 0 257.467 0C260.361 0 261.809 2.16797 261.809 6.50391C261.809 10.7227 260.361 12.832 257.467 12.832ZM257.458 7.99805C257.089 7.99805 256.79 7.86328 256.562 7.59375C256.339 7.31836 256.228 6.95508 256.228 6.50391C256.228 6.05273 256.339 5.69238 256.562 5.42285C256.79 5.14746 257.089 5.00977 257.458 5.00977C257.827 5.00977 258.123 5.14746 258.346 5.42285C258.574 5.69238 258.688 6.05273 258.688 6.50391C258.688 6.95508 258.574 7.31836 258.346 7.59375C258.123 7.86328 257.827 7.99805 257.458 7.99805ZM257.467 10.8545C258.902 10.8545 259.62 9.4043 259.62 6.50391C259.62 3.48633 258.902 1.97754 257.467 1.97754C256.02 1.97754 255.296 3.48633 255.296 6.50391C255.296 9.4043 256.02 10.8545 257.467 10.8545ZM267.214 12.6562V0.175781H269.341V12.6562H267.214ZM264.146 12.6562V10.7578H267.39V12.6562H264.146ZM269.165 12.6562V10.7578H272.074V12.6562H269.165ZM264.322 3.26953V1.23047L267.214 0.175781V2.25L264.322 3.26953ZM278.561 12.832C275.666 12.832 274.219 10.7227 274.219 6.50391C274.219 2.16797 275.666 0 278.561 0C281.455 0 282.902 2.16797 282.902 6.50391C282.902 10.7227 281.455 12.832 278.561 12.832ZM278.552 7.99805C278.183 7.99805 277.884 7.86328 277.655 7.59375C277.433 7.31836 277.321 6.95508 277.321 6.50391C277.321 6.05273 277.433 5.69238 277.655 5.42285C277.884 5.14746 278.183 5.00977 278.552 5.00977C278.921 5.00977 279.217 5.14746 279.439 5.42285C279.668 5.69238 279.782 6.05273 279.782 6.50391C279.782 6.95508 279.668 7.31836 279.439 7.59375C279.217 7.86328 278.921 7.99805 278.552 7.99805ZM278.561 10.8545C279.996 10.8545 280.714 9.4043 280.714 6.50391C280.714 3.48633 279.996 1.97754 278.561 1.97754C277.113 1.97754 276.39 3.48633 276.39 6.50391C276.39 9.4043 277.113 10.8545 278.561 10.8545ZM288.308 12.6562V0.175781H290.435V12.6562H288.308ZM285.24 12.6562V10.7578H288.483V12.6562H285.24ZM290.259 12.6562V10.7578H293.168V12.6562H290.259ZM285.416 3.26953V1.23047L288.308 0.175781V2.25L285.416 3.26953ZM299.654 12.832C296.76 12.832 295.312 10.7227 295.312 6.50391C295.312 2.16797 296.76 0 299.654 0C302.549 0 303.996 2.16797 303.996 6.50391C303.996 10.7227 302.549 12.832 299.654 12.832ZM299.646 7.99805C299.276 7.99805 298.978 7.86328 298.749 7.59375C298.526 7.31836 298.415 6.95508 298.415 6.50391C298.415 6.05273 298.526 5.69238 298.749 5.42285C298.978 5.14746 299.276 5.00977 299.646 5.00977C300.015 5.00977 300.311 5.14746 300.533 5.42285C300.762 5.69238 300.876 6.05273 300.876 6.50391C300.876 6.95508 300.762 7.31836 300.533 7.59375C300.311 7.86328 300.015 7.99805 299.646 7.99805ZM299.654 10.8545C301.09 10.8545 301.808 9.4043 301.808 6.50391C301.808 3.48633 301.09 1.97754 299.654 1.97754C298.207 1.97754 297.483 3.48633 297.483 6.50391C297.483 9.4043 298.207 10.8545 299.654 10.8545ZM310.201 12.832C307.307 12.832 305.859 10.7227 305.859 6.50391C305.859 2.16797 307.307 0 310.201 0C313.096 0 314.543 2.16797 314.543 6.50391C314.543 10.7227 313.096 12.832 310.201 12.832ZM310.192 7.99805C309.823 7.99805 309.524 7.86328 309.296 7.59375C309.073 7.31836 308.962 6.95508 308.962 6.50391C308.962 6.05273 309.073 5.69238 309.296 5.42285C309.524 5.14746 309.823 5.00977 310.192 5.00977C310.562 5.00977 310.857 5.14746 311.08 5.42285C311.309 5.69238 311.423 6.05273 311.423 6.50391C311.423 6.95508 311.309 7.31836 311.08 7.59375C310.857 7.86328 310.562 7.99805 310.192 7.99805ZM310.201 10.8545C311.637 10.8545 312.354 9.4043 312.354 6.50391C312.354 3.48633 311.637 1.97754 310.201 1.97754C308.754 1.97754 308.03 3.48633 308.03 6.50391C308.03 9.4043 308.754 10.8545 310.201 10.8545ZM320.748 12.832C317.854 12.832 316.406 10.7227 316.406 6.50391C316.406 2.16797 317.854 0 320.748 0C323.643 0 325.09 2.16797 325.09 6.50391C325.09 10.7227 323.643 12.832 320.748 12.832ZM320.739 7.99805C320.37 7.99805 320.071 7.86328 319.843 7.59375C319.62 7.31836 319.509 6.95508 319.509 6.50391C319.509 6.05273 319.62 5.69238 319.843 5.42285C320.071 5.14746 320.37 5.00977 320.739 5.00977C321.108 5.00977 321.404 5.14746 321.627 5.42285C321.855 5.69238 321.97 6.05273 321.97 6.50391C321.97 6.95508 321.855 7.31836 321.627 7.59375C321.404 7.86328 321.108 7.99805 320.739 7.99805ZM320.748 10.8545C322.184 10.8545 322.901 9.4043 322.901 6.50391C322.901 3.48633 322.184 1.97754 320.748 1.97754C319.301 1.97754 318.577 3.48633 318.577 6.50391C318.577 9.4043 319.301 10.8545 320.748 10.8545ZM3.54199 29.6562V17.1758H5.66895V29.6562H3.54199ZM0.474609 29.6562V27.7578H3.71777V29.6562H0.474609ZM5.49316 29.6562V27.7578H8.40234V29.6562H5.49316ZM0.650391 20.2695V18.2305L3.54199 17.1758V19.25L0.650391 20.2695ZM14.8887 29.832C11.9941 29.832 10.5469 27.7227 10.5469 23.5039C10.5469 19.168 11.9941 17 14.8887 17C17.7832 17 19.2305 19.168 19.2305 23.5039C19.2305 27.7227 17.7832 29.832 14.8887 29.832ZM14.8799 24.998C14.5107 24.998 14.2119 24.8633 13.9834 24.5938C13.7607 24.3184 13.6494 23.9551 13.6494 23.5039C13.6494 23.0527 13.7607 22.6924 13.9834 22.4229C14.2119 22.1475 14.5107 22.0098 14.8799 22.0098C15.249 22.0098 15.5449 22.1475 15.7676 22.4229C15.9961 22.6924 16.1104 23.0527 16.1104 23.5039C16.1104 23.9551 15.9961 24.3184 15.7676 24.5938C15.5449 24.8633 15.249 24.998 14.8799 24.998ZM14.8887 27.8545C16.3242 27.8545 17.042 26.4043 17.042 23.5039C17.042 20.4863 16.3242 18.9775 14.8887 18.9775C13.4414 18.9775 12.7178 20.4863 12.7178 23.5039C12.7178 26.4043 13.4414 27.8545 14.8887 27.8545ZM25.4355 29.832C22.541 29.832 21.0938 27.7227 21.0938 23.5039C21.0938 19.168 22.541 17 25.4355 17C28.3301 17 29.7773 19.168 29.7773 23.5039C29.7773 27.7227 28.3301 29.832 25.4355 29.832ZM25.4268 24.998C25.0576 24.998 24.7588 24.8633 24.5303 24.5938C24.3076 24.3184 24.1963 23.9551 24.1963 23.5039C24.1963 23.0527 24.3076 22.6924 24.5303 22.4229C24.7588 22.1475 25.0576 22.0098 25.4268 22.0098C25.7959 22.0098 26.0918 22.1475 26.3145 22.4229C26.543 22.6924 26.6572 23.0527 26.6572 23.5039C26.6572 23.9551 26.543 24.3184 26.3145 24.5938C26.0918 24.8633 25.7959 24.998 25.4268 24.998ZM25.4355 27.8545C26.8711 27.8545 27.5889 26.4043 27.5889 23.5039C27.5889 20.4863 26.8711 18.9775 25.4355 18.9775C23.9883 18.9775 23.2646 20.4863 23.2646 23.5039C23.2646 26.4043 23.9883 27.8545 25.4355 27.8545ZM35.9824 29.832C33.0879 29.832 31.6406 27.7227 31.6406 23.5039C31.6406 19.168 33.0879 17 35.9824 17C38.877 17 40.3242 19.168 40.3242 23.5039C40.3242 27.7227 38.877 29.832 35.9824 29.832ZM35.9736 24.998C35.6045 24.998 35.3057 24.8633 35.0771 24.5938C34.8545 24.3184 34.7432 23.9551 34.7432 23.5039C34.7432 23.0527 34.8545 22.6924 35.0771 22.4229C35.3057 22.1475 35.6045 22.0098 35.9736 22.0098C36.3428 22.0098 36.6387 22.1475 36.8613 22.4229C37.0898 22.6924 37.2041 23.0527 37.2041 23.5039C37.2041 23.9551 37.0898 24.3184 36.8613 24.5938C36.6387 24.8633 36.3428 24.998 35.9736 24.998ZM35.9824 27.8545C37.418 27.8545 38.1357 26.4043 38.1357 23.5039C38.1357 20.4863 37.418 18.9775 35.9824 18.9775C34.5352 18.9775 33.8115 20.4863 33.8115 23.5039C33.8115 26.4043 34.5352 27.8545 35.9824 27.8545ZM45.7295 29.6562V17.1758H47.8564V29.6562H45.7295ZM42.6621 29.6562V27.7578H45.9053V29.6562H42.6621ZM47.6807 29.6562V27.7578H50.5898V29.6562H47.6807ZM42.8379 20.2695V18.2305L45.7295 17.1758V19.25L42.8379 20.2695ZM56.2764 29.6562V17.1758H58.4033V29.6562H56.2764ZM53.209 29.6562V27.7578H56.4521V29.6562H53.209ZM58.2275 29.6562V27.7578H61.1367V29.6562H58.2275ZM53.3848 20.2695V18.2305L56.2764 17.1758V19.25L53.3848 20.2695ZM67.623 29.832C64.7285 29.832 63.2812 27.7227 63.2812 23.5039C63.2812 19.168 64.7285 17 67.623 17C70.5176 17 71.9648 19.168 71.9648 23.5039C71.9648 27.7227 70.5176 29.832 67.623 29.832ZM67.6143 24.998C67.2451 24.998 66.9463 24.8633 66.7178 24.5938C66.4951 24.3184 66.3838 23.9551 66.3838 23.5039C66.3838 23.0527 66.4951 22.6924 66.7178 22.4229C66.9463 22.1475 67.2451 22.0098 67.6143 22.0098C67.9834 22.0098 68.2793 22.1475 68.502 22.4229C68.7305 22.6924 68.8447 23.0527 68.8447 23.5039C68.8447 23.9551 68.7305 24.3184 68.502 24.5938C68.2793 24.8633 67.9834 24.998 67.6143 24.998ZM67.623 27.8545C69.0586 27.8545 69.7764 26.4043 69.7764 23.5039C69.7764 20.4863 69.0586 18.9775 67.623 18.9775C66.1758 18.9775 65.4521 20.4863 65.4521 23.5039C65.4521 26.4043 66.1758 27.8545 67.623 27.8545ZM77.3701 29.6562V17.1758H79.4971V29.6562H77.3701ZM74.3027 29.6562V27.7578H77.5459V29.6562H74.3027ZM79.3213 29.6562V27.7578H82.2305V29.6562H79.3213ZM74.4785 20.2695V18.2305L77.3701 17.1758V19.25L74.4785 20.2695ZM88.7168 29.832C85.8223 29.832 84.375 27.7227 84.375 23.5039C84.375 19.168 85.8223 17 88.7168 17C91.6113 17 93.0586 19.168 93.0586 23.5039C93.0586 27.7227 91.6113 29.832 88.7168 29.832ZM88.708 24.998C88.3389 24.998 88.04 24.8633 87.8115 24.5938C87.5889 24.3184 87.4775 23.9551 87.4775 23.5039C87.4775 23.0527 87.5889 22.6924 87.8115 22.4229C88.04 22.1475 88.3389 22.0098 88.708 22.0098C89.0771 22.0098 89.373 22.1475 89.5957 22.4229C89.8242 22.6924 89.9385 23.0527 89.9385 23.5039C89.9385 23.9551 89.8242 24.3184 89.5957 24.5938C89.373 24.8633 89.0771 24.998 88.708 24.998ZM88.7168 27.8545C90.1523 27.8545 90.8701 26.4043 90.8701 23.5039C90.8701 20.4863 90.1523 18.9775 88.7168 18.9775C87.2695 18.9775 86.5459 20.4863 86.5459 23.5039C86.5459 26.4043 87.2695 27.8545 88.7168 27.8545ZM99.2637 29.832C96.3691 29.832 94.9219 27.7227 94.9219 23.5039C94.9219 19.168 96.3691 17 99.2637 17C102.158 17 103.605 19.168 103.605 23.5039C103.605 27.7227 102.158 29.832 99.2637 29.832ZM99.2549 24.998C98.8857 24.998 98.5869 24.8633 98.3584 24.5938C98.1357 24.3184 98.0244 23.9551 98.0244 23.5039C98.0244 23.0527 98.1357 22.6924 98.3584 22.4229C98.5869 22.1475 98.8857 22.0098 99.2549 22.0098C99.624 22.0098 99.9199 22.1475 100.143 22.4229C100.371 22.6924 100.485 23.0527 100.485 23.5039C100.485 23.9551 100.371 24.3184 100.143 24.5938C99.9199 24.8633 99.624 24.998 99.2549 24.998ZM99.2637 27.8545C100.699 27.8545 101.417 26.4043 101.417 23.5039C101.417 20.4863 100.699 18.9775 99.2637 18.9775C97.8164 18.9775 97.0928 20.4863 97.0928 23.5039C97.0928 26.4043 97.8164 27.8545 99.2637 27.8545ZM109.011 29.6562V17.1758H111.138V29.6562H109.011ZM105.943 29.6562V27.7578H109.187V29.6562H105.943ZM110.962 29.6562V27.7578H113.871V29.6562H110.962ZM106.119 20.2695V18.2305L109.011 17.1758V19.25L106.119 20.2695ZM119.558 29.6562V17.1758H121.685V29.6562H119.558ZM116.49 29.6562V27.7578H119.733V29.6562H116.49ZM121.509 29.6562V27.7578H124.418V29.6562H121.509ZM116.666 20.2695V18.2305L119.558 17.1758V19.25L116.666 20.2695ZM130.904 29.832C128.01 29.832 126.562 27.7227 126.562 23.5039C126.562 19.168 128.01 17 130.904 17C133.799 17 135.246 19.168 135.246 23.5039C135.246 27.7227 133.799 29.832 130.904 29.832ZM130.896 24.998C130.526 24.998 130.228 24.8633 129.999 24.5938C129.776 24.3184 129.665 23.9551 129.665 23.5039C129.665 23.0527 129.776 22.6924 129.999 22.4229C130.228 22.1475 130.526 22.0098 130.896 22.0098C131.265 22.0098 131.561 22.1475 131.783 22.4229C132.012 22.6924 132.126 23.0527 132.126 23.5039C132.126 23.9551 132.012 24.3184 131.783 24.5938C131.561 24.8633 131.265 24.998 130.896 24.998ZM130.904 27.8545C132.34 27.8545 133.058 26.4043 133.058 23.5039C133.058 20.4863 132.34 18.9775 130.904 18.9775C129.457 18.9775 128.733 20.4863 128.733 23.5039C128.733 26.4043 129.457 27.8545 130.904 27.8545ZM141.451 29.832C138.557 29.832 137.109 27.7227 137.109 23.5039C137.109 19.168 138.557 17 141.451 17C144.346 17 145.793 19.168 145.793 23.5039C145.793 27.7227 144.346 29.832 141.451 29.832ZM141.442 24.998C141.073 24.998 140.774 24.8633 140.546 24.5938C140.323 24.3184 140.212 23.9551 140.212 23.5039C140.212 23.0527 140.323 22.6924 140.546 22.4229C140.774 22.1475 141.073 22.0098 141.442 22.0098C141.812 22.0098 142.107 22.1475 142.33 22.4229C142.559 22.6924 142.673 23.0527 142.673 23.5039C142.673 23.9551 142.559 24.3184 142.33 24.5938C142.107 24.8633 141.812 24.998 141.442 24.998ZM141.451 27.8545C142.887 27.8545 143.604 26.4043 143.604 23.5039C143.604 20.4863 142.887 18.9775 141.451 18.9775C140.004 18.9775 139.28 20.4863 139.28 23.5039C139.28 26.4043 140.004 27.8545 141.451 27.8545ZM151.198 29.6562V17.1758H153.325V29.6562H151.198ZM148.131 29.6562V27.7578H151.374V29.6562H148.131ZM153.149 29.6562V27.7578H156.059V29.6562H153.149ZM148.307 20.2695V18.2305L151.198 17.1758V19.25L148.307 20.2695ZM162.545 29.832C159.65 29.832 158.203 27.7227 158.203 23.5039C158.203 19.168 159.65 17 162.545 17C165.439 17 166.887 19.168 166.887 23.5039C166.887 27.7227 165.439 29.832 162.545 29.832ZM162.536 24.998C162.167 24.998 161.868 24.8633 161.64 24.5938C161.417 24.3184 161.306 23.9551 161.306 23.5039C161.306 23.0527 161.417 22.6924 161.64 22.4229C161.868 22.1475 162.167 22.0098 162.536 22.0098C162.905 22.0098 163.201 22.1475 163.424 22.4229C163.652 22.6924 163.767 23.0527 163.767 23.5039C163.767 23.9551 163.652 24.3184 163.424 24.5938C163.201 24.8633 162.905 24.998 162.536 24.998ZM162.545 27.8545C163.98 27.8545 164.698 26.4043 164.698 23.5039C164.698 20.4863 163.98 18.9775 162.545 18.9775C161.098 18.9775 160.374 20.4863 160.374 23.5039C160.374 26.4043 161.098 27.8545 162.545 27.8545ZM173.092 29.832C170.197 29.832 168.75 27.7227 168.75 23.5039C168.75 19.168 170.197 17 173.092 17C175.986 17 177.434 19.168 177.434 23.5039C177.434 27.7227 175.986 29.832 173.092 29.832ZM173.083 24.998C172.714 24.998 172.415 24.8633 172.187 24.5938C171.964 24.3184 171.853 23.9551 171.853 23.5039C171.853 23.0527 171.964 22.6924 172.187 22.4229C172.415 22.1475 172.714 22.0098 173.083 22.0098C173.452 22.0098 173.748 22.1475 173.971 22.4229C174.199 22.6924 174.313 23.0527 174.313 23.5039C174.313 23.9551 174.199 24.3184 173.971 24.5938C173.748 24.8633 173.452 24.998 173.083 24.998ZM173.092 27.8545C174.527 27.8545 175.245 26.4043 175.245 23.5039C175.245 20.4863 174.527 18.9775 173.092 18.9775C171.645 18.9775 170.921 20.4863 170.921 23.5039C170.921 26.4043 171.645 27.8545 173.092 27.8545ZM182.839 29.6562V17.1758H184.966V29.6562H182.839ZM179.771 29.6562V27.7578H183.015V29.6562H179.771ZM184.79 29.6562V27.7578H187.699V29.6562H184.79ZM179.947 20.2695V18.2305L182.839 17.1758V19.25L179.947 20.2695ZM194.186 29.832C191.291 29.832 189.844 27.7227 189.844 23.5039C189.844 19.168 191.291 17 194.186 17C197.08 17 198.527 19.168 198.527 23.5039C198.527 27.7227 197.08 29.832 194.186 29.832ZM194.177 24.998C193.808 24.998 193.509 24.8633 193.28 24.5938C193.058 24.3184 192.946 23.9551 192.946 23.5039C192.946 23.0527 193.058 22.6924 193.28 22.4229C193.509 22.1475 193.808 22.0098 194.177 22.0098C194.546 22.0098 194.842 22.1475 195.064 22.4229C195.293 22.6924 195.407 23.0527 195.407 23.5039C195.407 23.9551 195.293 24.3184 195.064 24.5938C194.842 24.8633 194.546 24.998 194.177 24.998ZM194.186 27.8545C195.621 27.8545 196.339 26.4043 196.339 23.5039C196.339 20.4863 195.621 18.9775 194.186 18.9775C192.738 18.9775 192.015 20.4863 192.015 23.5039C192.015 26.4043 192.738 27.8545 194.186 27.8545ZM203.933 29.6562V17.1758H206.06V29.6562H203.933ZM200.865 29.6562V27.7578H204.108V29.6562H200.865ZM205.884 29.6562V27.7578H208.793V29.6562H205.884ZM201.041 20.2695V18.2305L203.933 17.1758V19.25L201.041 20.2695ZM215.279 29.832C212.385 29.832 210.938 27.7227 210.938 23.5039C210.938 19.168 212.385 17 215.279 17C218.174 17 219.621 19.168 219.621 23.5039C219.621 27.7227 218.174 29.832 215.279 29.832ZM215.271 24.998C214.901 24.998 214.603 24.8633 214.374 24.5938C214.151 24.3184 214.04 23.9551 214.04 23.5039C214.04 23.0527 214.151 22.6924 214.374 22.4229C214.603 22.1475 214.901 22.0098 215.271 22.0098C215.64 22.0098 215.936 22.1475 216.158 22.4229C216.387 22.6924 216.501 23.0527 216.501 23.5039C216.501 23.9551 216.387 24.3184 216.158 24.5938C215.936 24.8633 215.64 24.998 215.271 24.998ZM215.279 27.8545C216.715 27.8545 217.433 26.4043 217.433 23.5039C217.433 20.4863 216.715 18.9775 215.279 18.9775C213.832 18.9775 213.108 20.4863 213.108 23.5039C213.108 26.4043 213.832 27.8545 215.279 27.8545ZM225.026 29.6562V17.1758H227.153V29.6562H225.026ZM221.959 29.6562V27.7578H225.202V29.6562H221.959ZM226.978 29.6562V27.7578H229.887V29.6562H226.978ZM222.135 20.2695V18.2305L225.026 17.1758V19.25L222.135 20.2695ZM235.573 29.6562V17.1758H237.7V29.6562H235.573ZM232.506 29.6562V27.7578H235.749V29.6562H232.506ZM237.524 29.6562V27.7578H240.434V29.6562H237.524ZM232.682 20.2695V18.2305L235.573 17.1758V19.25L232.682 20.2695ZM246.92 29.832C244.025 29.832 242.578 27.7227 242.578 23.5039C242.578 19.168 244.025 17 246.92 17C249.814 17 251.262 19.168 251.262 23.5039C251.262 27.7227 249.814 29.832 246.92 29.832ZM246.911 24.998C246.542 24.998 246.243 24.8633 246.015 24.5938C245.792 24.3184 245.681 23.9551 245.681 23.5039C245.681 23.0527 245.792 22.6924 246.015 22.4229C246.243 22.1475 246.542 22.0098 246.911 22.0098C247.28 22.0098 247.576 22.1475 247.799 22.4229C248.027 22.6924 248.142 23.0527 248.142 23.5039C248.142 23.9551 248.027 24.3184 247.799 24.5938C247.576 24.8633 247.28 24.998 246.911 24.998ZM246.92 27.8545C248.355 27.8545 249.073 26.4043 249.073 23.5039C249.073 20.4863 248.355 18.9775 246.92 18.9775C245.473 18.9775 244.749 20.4863 244.749 23.5039C244.749 26.4043 245.473 27.8545 246.92 27.8545ZM256.667 29.6562V17.1758H258.794V29.6562H256.667ZM253.6 29.6562V27.7578H256.843V29.6562H253.6ZM258.618 29.6562V27.7578H261.527V29.6562H258.618ZM253.775 20.2695V18.2305L256.667 17.1758V19.25L253.775 20.2695ZM268.014 29.832C265.119 29.832 263.672 27.7227 263.672 23.5039C263.672 19.168 265.119 17 268.014 17C270.908 17 272.355 19.168 272.355 23.5039C272.355 27.7227 270.908 29.832 268.014 29.832ZM268.005 24.998C267.636 24.998 267.337 24.8633 267.108 24.5938C266.886 24.3184 266.774 23.9551 266.774 23.5039C266.774 23.0527 266.886 22.6924 267.108 22.4229C267.337 22.1475 267.636 22.0098 268.005 22.0098C268.374 22.0098 268.67 22.1475 268.893 22.4229C269.121 22.6924 269.235 23.0527 269.235 23.5039C269.235 23.9551 269.121 24.3184 268.893 24.5938C268.67 24.8633 268.374 24.998 268.005 24.998ZM268.014 27.8545C269.449 27.8545 270.167 26.4043 270.167 23.5039C270.167 20.4863 269.449 18.9775 268.014 18.9775C266.566 18.9775 265.843 20.4863 265.843 23.5039C265.843 26.4043 266.566 27.8545 268.014 27.8545ZM278.561 29.832C275.666 29.832 274.219 27.7227 274.219 23.5039C274.219 19.168 275.666 17 278.561 17C281.455 17 282.902 19.168 282.902 23.5039C282.902 27.7227 281.455 29.832 278.561 29.832ZM278.552 24.998C278.183 24.998 277.884 24.8633 277.655 24.5938C277.433 24.3184 277.321 23.9551 277.321 23.5039C277.321 23.0527 277.433 22.6924 277.655 22.4229C277.884 22.1475 278.183 22.0098 278.552 22.0098C278.921 22.0098 279.217 22.1475 279.439 22.4229C279.668 22.6924 279.782 23.0527 279.782 23.5039C279.782 23.9551 279.668 24.3184 279.439 24.5938C279.217 24.8633 278.921 24.998 278.552 24.998ZM278.561 27.8545C279.996 27.8545 280.714 26.4043 280.714 23.5039C280.714 20.4863 279.996 18.9775 278.561 18.9775C277.113 18.9775 276.39 20.4863 276.39 23.5039C276.39 26.4043 277.113 27.8545 278.561 27.8545ZM289.107 29.832C286.213 29.832 284.766 27.7227 284.766 23.5039C284.766 19.168 286.213 17 289.107 17C292.002 17 293.449 19.168 293.449 23.5039C293.449 27.7227 292.002 29.832 289.107 29.832ZM289.099 24.998C288.729 24.998 288.431 24.8633 288.202 24.5938C287.979 24.3184 287.868 23.9551 287.868 23.5039C287.868 23.0527 287.979 22.6924 288.202 22.4229C288.431 22.1475 288.729 22.0098 289.099 22.0098C289.468 22.0098 289.764 22.1475 289.986 22.4229C290.215 22.6924 290.329 23.0527 290.329 23.5039C290.329 23.9551 290.215 24.3184 289.986 24.5938C289.764 24.8633 289.468 24.998 289.099 24.998ZM289.107 27.8545C290.543 27.8545 291.261 26.4043 291.261 23.5039C291.261 20.4863 290.543 18.9775 289.107 18.9775C287.66 18.9775 286.937 20.4863 286.937 23.5039C286.937 26.4043 287.66 27.8545 289.107 27.8545ZM298.854 29.6562V17.1758H300.981V29.6562H298.854ZM295.787 29.6562V27.7578H299.03V29.6562H295.787ZM300.806 29.6562V27.7578H303.715V29.6562H300.806ZM295.963 20.2695V18.2305L298.854 17.1758V19.25L295.963 20.2695ZM310.201 29.832C307.307 29.832 305.859 27.7227 305.859 23.5039C305.859 19.168 307.307 17 310.201 17C313.096 17 314.543 19.168 314.543 23.5039C314.543 27.7227 313.096 29.832 310.201 29.832ZM310.192 24.998C309.823 24.998 309.524 24.8633 309.296 24.5938C309.073 24.3184 308.962 23.9551 308.962 23.5039C308.962 23.0527 309.073 22.6924 309.296 22.4229C309.524 22.1475 309.823 22.0098 310.192 22.0098C310.562 22.0098 310.857 22.1475 311.08 22.4229C311.309 22.6924 311.423 23.0527 311.423 23.5039C311.423 23.9551 311.309 24.3184 311.08 24.5938C310.857 24.8633 310.562 24.998 310.192 24.998ZM310.201 27.8545C311.637 27.8545 312.354 26.4043 312.354 23.5039C312.354 20.4863 311.637 18.9775 310.201 18.9775C308.754 18.9775 308.03 20.4863 308.03 23.5039C308.03 26.4043 308.754 27.8545 310.201 27.8545ZM320.748 29.832C317.854 29.832 316.406 27.7227 316.406 23.5039C316.406 19.168 317.854 17 320.748 17C323.643 17 325.09 19.168 325.09 23.5039C325.09 27.7227 323.643 29.832 320.748 29.832ZM320.739 24.998C320.37 24.998 320.071 24.8633 319.843 24.5938C319.62 24.3184 319.509 23.9551 319.509 23.5039C319.509 23.0527 319.62 22.6924 319.843 22.4229C320.071 22.1475 320.37 22.0098 320.739 22.0098C321.108 22.0098 321.404 22.1475 321.627 22.4229C321.855 22.6924 321.97 23.0527 321.97 23.5039C321.97 23.9551 321.855 24.3184 321.627 24.5938C321.404 24.8633 321.108 24.998 320.739 24.998ZM320.748 27.8545C322.184 27.8545 322.901 26.4043 322.901 23.5039C322.901 20.4863 322.184 18.9775 320.748 18.9775C319.301 18.9775 318.577 20.4863 318.577 23.5039C318.577 26.4043 319.301 27.8545 320.748 27.8545ZM4.3418 46.832C1.44727 46.832 0 44.7227 0 40.5039C0 36.168 1.44727 34 4.3418 34C7.23633 34 8.68359 36.168 8.68359 40.5039C8.68359 44.7227 7.23633 46.832 4.3418 46.832ZM4.33301 41.998C3.96387 41.998 3.66504 41.8633 3.43652 41.5938C3.21387 41.3184 3.10254 40.9551 3.10254 40.5039C3.10254 40.0527 3.21387 39.6924 3.43652 39.4229C3.66504 39.1475 3.96387 39.0098 4.33301 39.0098C4.70215 39.0098 4.99805 39.1475 5.2207 39.4229C5.44922 39.6924 5.56348 40.0527 5.56348 40.5039C5.56348 40.9551 5.44922 41.3184 5.2207 41.5938C4.99805 41.8633 4.70215 41.998 4.33301 41.998ZM4.3418 44.8545C5.77734 44.8545 6.49512 43.4043 6.49512 40.5039C6.49512 37.4863 5.77734 35.9775 4.3418 35.9775C2.89453 35.9775 2.1709 37.4863 2.1709 40.5039C2.1709 43.4043 2.89453 44.8545 4.3418 44.8545ZM14.0889 46.6562V34.1758H16.2158V46.6562H14.0889ZM11.0215 46.6562V44.7578H14.2646V46.6562H11.0215ZM16.04 46.6562V44.7578H18.9492V46.6562H16.04ZM11.1973 37.2695V35.2305L14.0889 34.1758V36.25L11.1973 37.2695ZM25.4355 46.832C22.541 46.832 21.0938 44.7227 21.0938 40.5039C21.0938 36.168 22.541 34 25.4355 34C28.3301 34 29.7773 36.168 29.7773 40.5039C29.7773 44.7227 28.3301 46.832 25.4355 46.832ZM25.4268 41.998C25.0576 41.998 24.7588 41.8633 24.5303 41.5938C24.3076 41.3184 24.1963 40.9551 24.1963 40.5039C24.1963 40.0527 24.3076 39.6924 24.5303 39.4229C24.7588 39.1475 25.0576 39.0098 25.4268 39.0098C25.7959 39.0098 26.0918 39.1475 26.3145 39.4229C26.543 39.6924 26.6572 40.0527 26.6572 40.5039C26.6572 40.9551 26.543 41.3184 26.3145 41.5938C26.0918 41.8633 25.7959 41.998 25.4268 41.998ZM25.4355 44.8545C26.8711 44.8545 27.5889 43.4043 27.5889 40.5039C27.5889 37.4863 26.8711 35.9775 25.4355 35.9775C23.9883 35.9775 23.2646 37.4863 23.2646 40.5039C23.2646 43.4043 23.9883 44.8545 25.4355 44.8545ZM35.1826 46.6562V34.1758H37.3096V46.6562H35.1826ZM32.1152 46.6562V44.7578H35.3584V46.6562H32.1152ZM37.1338 46.6562V44.7578H40.043V46.6562H37.1338ZM32.291 37.2695V35.2305L35.1826 34.1758V36.25L32.291 37.2695ZM46.5293 46.832C43.6348 46.832 42.1875 44.7227 42.1875 40.5039C42.1875 36.168 43.6348 34 46.5293 34C49.4238 34 50.8711 36.168 50.8711 40.5039C50.8711 44.7227 49.4238 46.832 46.5293 46.832ZM46.5205 41.998C46.1514 41.998 45.8525 41.8633 45.624 41.5938C45.4014 41.3184 45.29 40.9551 45.29 40.5039C45.29 40.0527 45.4014 39.6924 45.624 39.4229C45.8525 39.1475 46.1514 39.0098 46.5205 39.0098C46.8896 39.0098 47.1855 39.1475 47.4082 39.4229C47.6367 39.6924 47.751 40.0527 47.751 40.5039C47.751 40.9551 47.6367 41.3184 47.4082 41.5938C47.1855 41.8633 46.8896 41.998 46.5205 41.998ZM46.5293 44.8545C47.9648 44.8545 48.6826 43.4043 48.6826 40.5039C48.6826 37.4863 47.9648 35.9775 46.5293 35.9775C45.082 35.9775 44.3584 37.4863 44.3584 40.5039C44.3584 43.4043 45.082 44.8545 46.5293 44.8545ZM56.2764 46.6562V34.1758H58.4033V46.6562H56.2764ZM53.209 46.6562V44.7578H56.4521V46.6562H53.209ZM58.2275 46.6562V44.7578H61.1367V46.6562H58.2275ZM53.3848 37.2695V35.2305L56.2764 34.1758V36.25L53.3848 37.2695ZM66.8232 46.6562V34.1758H68.9502V46.6562H66.8232ZM63.7559 46.6562V44.7578H66.999V46.6562H63.7559ZM68.7744 46.6562V44.7578H71.6836V46.6562H68.7744ZM63.9316 37.2695V35.2305L66.8232 34.1758V36.25L63.9316 37.2695ZM78.1699 46.832C75.2754 46.832 73.8281 44.7227 73.8281 40.5039C73.8281 36.168 75.2754 34 78.1699 34C81.0645 34 82.5117 36.168 82.5117 40.5039C82.5117 44.7227 81.0645 46.832 78.1699 46.832ZM78.1611 41.998C77.792 41.998 77.4932 41.8633 77.2646 41.5938C77.042 41.3184 76.9307 40.9551 76.9307 40.5039C76.9307 40.0527 77.042 39.6924 77.2646 39.4229C77.4932 39.1475 77.792 39.0098 78.1611 39.0098C78.5303 39.0098 78.8262 39.1475 79.0488 39.4229C79.2773 39.6924 79.3916 40.0527 79.3916 40.5039C79.3916 40.9551 79.2773 41.3184 79.0488 41.5938C78.8262 41.8633 78.5303 41.998 78.1611 41.998ZM78.1699 44.8545C79.6055 44.8545 80.3232 43.4043 80.3232 40.5039C80.3232 37.4863 79.6055 35.9775 78.1699 35.9775C76.7227 35.9775 75.999 37.4863 75.999 40.5039C75.999 43.4043 76.7227 44.8545 78.1699 44.8545ZM88.7168 46.832C85.8223 46.832 84.375 44.7227 84.375 40.5039C84.375 36.168 85.8223 34 88.7168 34C91.6113 34 93.0586 36.168 93.0586 40.5039C93.0586 44.7227 91.6113 46.832 88.7168 46.832ZM88.708 41.998C88.3389 41.998 88.04 41.8633 87.8115 41.5938C87.5889 41.3184 87.4775 40.9551 87.4775 40.5039C87.4775 40.0527 87.5889 39.6924 87.8115 39.4229C88.04 39.1475 88.3389 39.0098 88.708 39.0098C89.0771 39.0098 89.373 39.1475 89.5957 39.4229C89.8242 39.6924 89.9385 40.0527 89.9385 40.5039C89.9385 40.9551 89.8242 41.3184 89.5957 41.5938C89.373 41.8633 89.0771 41.998 88.708 41.998ZM88.7168 44.8545C90.1523 44.8545 90.8701 43.4043 90.8701 40.5039C90.8701 37.4863 90.1523 35.9775 88.7168 35.9775C87.2695 35.9775 86.5459 37.4863 86.5459 40.5039C86.5459 43.4043 87.2695 44.8545 88.7168 44.8545ZM98.4639 46.6562V34.1758H100.591V46.6562H98.4639ZM95.3965 46.6562V44.7578H98.6396V46.6562H95.3965ZM100.415 46.6562V44.7578H103.324V46.6562H100.415ZM95.5723 37.2695V35.2305L98.4639 34.1758V36.25L95.5723 37.2695ZM109.811 46.832C106.916 46.832 105.469 44.7227 105.469 40.5039C105.469 36.168 106.916 34 109.811 34C112.705 34 114.152 36.168 114.152 40.5039C114.152 44.7227 112.705 46.832 109.811 46.832ZM109.802 41.998C109.433 41.998 109.134 41.8633 108.905 41.5938C108.683 41.3184 108.571 40.9551 108.571 40.5039C108.571 40.0527 108.683 39.6924 108.905 39.4229C109.134 39.1475 109.433 39.0098 109.802 39.0098C110.171 39.0098 110.467 39.1475 110.689 39.4229C110.918 39.6924 111.032 40.0527 111.032 40.5039C111.032 40.9551 110.918 41.3184 110.689 41.5938C110.467 41.8633 110.171 41.998 109.802 41.998ZM109.811 44.8545C111.246 44.8545 111.964 43.4043 111.964 40.5039C111.964 37.4863 111.246 35.9775 109.811 35.9775C108.363 35.9775 107.64 37.4863 107.64 40.5039C107.64 43.4043 108.363 44.8545 109.811 44.8545ZM120.357 46.832C117.463 46.832 116.016 44.7227 116.016 40.5039C116.016 36.168 117.463 34 120.357 34C123.252 34 124.699 36.168 124.699 40.5039C124.699 44.7227 123.252 46.832 120.357 46.832ZM120.349 41.998C119.979 41.998 119.681 41.8633 119.452 41.5938C119.229 41.3184 119.118 40.9551 119.118 40.5039C119.118 40.0527 119.229 39.6924 119.452 39.4229C119.681 39.1475 119.979 39.0098 120.349 39.0098C120.718 39.0098 121.014 39.1475 121.236 39.4229C121.465 39.6924 121.579 40.0527 121.579 40.5039C121.579 40.9551 121.465 41.3184 121.236 41.5938C121.014 41.8633 120.718 41.998 120.349 41.998ZM120.357 44.8545C121.793 44.8545 122.511 43.4043 122.511 40.5039C122.511 37.4863 121.793 35.9775 120.357 35.9775C118.91 35.9775 118.187 37.4863 118.187 40.5039C118.187 43.4043 118.91 44.8545 120.357 44.8545ZM130.904 46.832C128.01 46.832 126.562 44.7227 126.562 40.5039C126.562 36.168 128.01 34 130.904 34C133.799 34 135.246 36.168 135.246 40.5039C135.246 44.7227 133.799 46.832 130.904 46.832ZM130.896 41.998C130.526 41.998 130.228 41.8633 129.999 41.5938C129.776 41.3184 129.665 40.9551 129.665 40.5039C129.665 40.0527 129.776 39.6924 129.999 39.4229C130.228 39.1475 130.526 39.0098 130.896 39.0098C131.265 39.0098 131.561 39.1475 131.783 39.4229C132.012 39.6924 132.126 40.0527 132.126 40.5039C132.126 40.9551 132.012 41.3184 131.783 41.5938C131.561 41.8633 131.265 41.998 130.896 41.998ZM130.904 44.8545C132.34 44.8545 133.058 43.4043 133.058 40.5039C133.058 37.4863 132.34 35.9775 130.904 35.9775C129.457 35.9775 128.733 37.4863 128.733 40.5039C128.733 43.4043 129.457 44.8545 130.904 44.8545ZM140.651 46.6562V34.1758H142.778V46.6562H140.651ZM137.584 46.6562V44.7578H140.827V46.6562H137.584ZM142.603 46.6562V44.7578H145.512V46.6562H142.603ZM137.76 37.2695V35.2305L140.651 34.1758V36.25L137.76 37.2695ZM151.998 46.832C149.104 46.832 147.656 44.7227 147.656 40.5039C147.656 36.168 149.104 34 151.998 34C154.893 34 156.34 36.168 156.34 40.5039C156.34 44.7227 154.893 46.832 151.998 46.832ZM151.989 41.998C151.62 41.998 151.321 41.8633 151.093 41.5938C150.87 41.3184 150.759 40.9551 150.759 40.5039C150.759 40.0527 150.87 39.6924 151.093 39.4229C151.321 39.1475 151.62 39.0098 151.989 39.0098C152.358 39.0098 152.654 39.1475 152.877 39.4229C153.105 39.6924 153.22 40.0527 153.22 40.5039C153.22 40.9551 153.105 41.3184 152.877 41.5938C152.654 41.8633 152.358 41.998 151.989 41.998ZM151.998 44.8545C153.434 44.8545 154.151 43.4043 154.151 40.5039C154.151 37.4863 153.434 35.9775 151.998 35.9775C150.551 35.9775 149.827 37.4863 149.827 40.5039C149.827 43.4043 150.551 44.8545 151.998 44.8545ZM162.545 46.832C159.65 46.832 158.203 44.7227 158.203 40.5039C158.203 36.168 159.65 34 162.545 34C165.439 34 166.887 36.168 166.887 40.5039C166.887 44.7227 165.439 46.832 162.545 46.832ZM162.536 41.998C162.167 41.998 161.868 41.8633 161.64 41.5938C161.417 41.3184 161.306 40.9551 161.306 40.5039C161.306 40.0527 161.417 39.6924 161.64 39.4229C161.868 39.1475 162.167 39.0098 162.536 39.0098C162.905 39.0098 163.201 39.1475 163.424 39.4229C163.652 39.6924 163.767 40.0527 163.767 40.5039C163.767 40.9551 163.652 41.3184 163.424 41.5938C163.201 41.8633 162.905 41.998 162.536 41.998ZM162.545 44.8545C163.98 44.8545 164.698 43.4043 164.698 40.5039C164.698 37.4863 163.98 35.9775 162.545 35.9775C161.098 35.9775 160.374 37.4863 160.374 40.5039C160.374 43.4043 161.098 44.8545 162.545 44.8545ZM172.292 46.6562V34.1758H174.419V46.6562H172.292ZM169.225 46.6562V44.7578H172.468V46.6562H169.225ZM174.243 46.6562V44.7578H177.152V46.6562H174.243ZM169.4 37.2695V35.2305L172.292 34.1758V36.25L169.4 37.2695ZM182.839 46.6562V34.1758H184.966V46.6562H182.839ZM179.771 46.6562V44.7578H183.015V46.6562H179.771ZM184.79 46.6562V44.7578H187.699V46.6562H184.79ZM179.947 37.2695V35.2305L182.839 34.1758V36.25L179.947 37.2695ZM194.186 46.832C191.291 46.832 189.844 44.7227 189.844 40.5039C189.844 36.168 191.291 34 194.186 34C197.08 34 198.527 36.168 198.527 40.5039C198.527 44.7227 197.08 46.832 194.186 46.832ZM194.177 41.998C193.808 41.998 193.509 41.8633 193.28 41.5938C193.058 41.3184 192.946 40.9551 192.946 40.5039C192.946 40.0527 193.058 39.6924 193.28 39.4229C193.509 39.1475 193.808 39.0098 194.177 39.0098C194.546 39.0098 194.842 39.1475 195.064 39.4229C195.293 39.6924 195.407 40.0527 195.407 40.5039C195.407 40.9551 195.293 41.3184 195.064 41.5938C194.842 41.8633 194.546 41.998 194.177 41.998ZM194.186 44.8545C195.621 44.8545 196.339 43.4043 196.339 40.5039C196.339 37.4863 195.621 35.9775 194.186 35.9775C192.738 35.9775 192.015 37.4863 192.015 40.5039C192.015 43.4043 192.738 44.8545 194.186 44.8545ZM203.933 46.6562V34.1758H206.06V46.6562H203.933ZM200.865 46.6562V44.7578H204.108V46.6562H200.865ZM205.884 46.6562V44.7578H208.793V46.6562H205.884ZM201.041 37.2695V35.2305L203.933 34.1758V36.25L201.041 37.2695ZM215.279 46.832C212.385 46.832 210.938 44.7227 210.938 40.5039C210.938 36.168 212.385 34 215.279 34C218.174 34 219.621 36.168 219.621 40.5039C219.621 44.7227 218.174 46.832 215.279 46.832ZM215.271 41.998C214.901 41.998 214.603 41.8633 214.374 41.5938C214.151 41.3184 214.04 40.9551 214.04 40.5039C214.04 40.0527 214.151 39.6924 214.374 39.4229C214.603 39.1475 214.901 39.0098 215.271 39.0098C215.64 39.0098 215.936 39.1475 216.158 39.4229C216.387 39.6924 216.501 40.0527 216.501 40.5039C216.501 40.9551 216.387 41.3184 216.158 41.5938C215.936 41.8633 215.64 41.998 215.271 41.998ZM215.279 44.8545C216.715 44.8545 217.433 43.4043 217.433 40.5039C217.433 37.4863 216.715 35.9775 215.279 35.9775C213.832 35.9775 213.108 37.4863 213.108 40.5039C213.108 43.4043 213.832 44.8545 215.279 44.8545ZM225.026 46.6562V34.1758H227.153V46.6562H225.026ZM221.959 46.6562V44.7578H225.202V46.6562H221.959ZM226.978 46.6562V44.7578H229.887V46.6562H226.978ZM222.135 37.2695V35.2305L225.026 34.1758V36.25L222.135 37.2695ZM235.573 46.6562V34.1758H237.7V46.6562H235.573ZM232.506 46.6562V44.7578H235.749V46.6562H232.506ZM237.524 46.6562V44.7578H240.434V46.6562H237.524ZM232.682 37.2695V35.2305L235.573 34.1758V36.25L232.682 37.2695ZM246.92 46.832C244.025 46.832 242.578 44.7227 242.578 40.5039C242.578 36.168 244.025 34 246.92 34C249.814 34 251.262 36.168 251.262 40.5039C251.262 44.7227 249.814 46.832 246.92 46.832ZM246.911 41.998C246.542 41.998 246.243 41.8633 246.015 41.5938C245.792 41.3184 245.681 40.9551 245.681 40.5039C245.681 40.0527 245.792 39.6924 246.015 39.4229C246.243 39.1475 246.542 39.0098 246.911 39.0098C247.28 39.0098 247.576 39.1475 247.799 39.4229C248.027 39.6924 248.142 40.0527 248.142 40.5039C248.142 40.9551 248.027 41.3184 247.799 41.5938C247.576 41.8633 247.28 41.998 246.911 41.998ZM246.92 44.8545C248.355 44.8545 249.073 43.4043 249.073 40.5039C249.073 37.4863 248.355 35.9775 246.92 35.9775C245.473 35.9775 244.749 37.4863 244.749 40.5039C244.749 43.4043 245.473 44.8545 246.92 44.8545ZM257.467 46.832C254.572 46.832 253.125 44.7227 253.125 40.5039C253.125 36.168 254.572 34 257.467 34C260.361 34 261.809 36.168 261.809 40.5039C261.809 44.7227 260.361 46.832 257.467 46.832ZM257.458 41.998C257.089 41.998 256.79 41.8633 256.562 41.5938C256.339 41.3184 256.228 40.9551 256.228 40.5039C256.228 40.0527 256.339 39.6924 256.562 39.4229C256.79 39.1475 257.089 39.0098 257.458 39.0098C257.827 39.0098 258.123 39.1475 258.346 39.4229C258.574 39.6924 258.688 40.0527 258.688 40.5039C258.688 40.9551 258.574 41.3184 258.346 41.5938C258.123 41.8633 257.827 41.998 257.458 41.998ZM257.467 44.8545C258.902 44.8545 259.62 43.4043 259.62 40.5039C259.62 37.4863 258.902 35.9775 257.467 35.9775C256.02 35.9775 255.296 37.4863 255.296 40.5039C255.296 43.4043 256.02 44.8545 257.467 44.8545ZM268.014 46.832C265.119 46.832 263.672 44.7227 263.672 40.5039C263.672 36.168 265.119 34 268.014 34C270.908 34 272.355 36.168 272.355 40.5039C272.355 44.7227 270.908 46.832 268.014 46.832ZM268.005 41.998C267.636 41.998 267.337 41.8633 267.108 41.5938C266.886 41.3184 266.774 40.9551 266.774 40.5039C266.774 40.0527 266.886 39.6924 267.108 39.4229C267.337 39.1475 267.636 39.0098 268.005 39.0098C268.374 39.0098 268.67 39.1475 268.893 39.4229C269.121 39.6924 269.235 40.0527 269.235 40.5039C269.235 40.9551 269.121 41.3184 268.893 41.5938C268.67 41.8633 268.374 41.998 268.005 41.998ZM268.014 44.8545C269.449 44.8545 270.167 43.4043 270.167 40.5039C270.167 37.4863 269.449 35.9775 268.014 35.9775C266.566 35.9775 265.843 37.4863 265.843 40.5039C265.843 43.4043 266.566 44.8545 268.014 44.8545ZM277.761 46.6562V34.1758H279.888V46.6562H277.761ZM274.693 46.6562V44.7578H277.937V46.6562H274.693ZM279.712 46.6562V44.7578H282.621V46.6562H279.712ZM274.869 37.2695V35.2305L277.761 34.1758V36.25L274.869 37.2695ZM289.107 46.832C286.213 46.832 284.766 44.7227 284.766 40.5039C284.766 36.168 286.213 34 289.107 34C292.002 34 293.449 36.168 293.449 40.5039C293.449 44.7227 292.002 46.832 289.107 46.832ZM289.099 41.998C288.729 41.998 288.431 41.8633 288.202 41.5938C287.979 41.3184 287.868 40.9551 287.868 40.5039C287.868 40.0527 287.979 39.6924 288.202 39.4229C288.431 39.1475 288.729 39.0098 289.099 39.0098C289.468 39.0098 289.764 39.1475 289.986 39.4229C290.215 39.6924 290.329 40.0527 290.329 40.5039C290.329 40.9551 290.215 41.3184 289.986 41.5938C289.764 41.8633 289.468 41.998 289.099 41.998ZM289.107 44.8545C290.543 44.8545 291.261 43.4043 291.261 40.5039C291.261 37.4863 290.543 35.9775 289.107 35.9775C287.66 35.9775 286.937 37.4863 286.937 40.5039C286.937 43.4043 287.66 44.8545 289.107 44.8545ZM299.654 46.832C296.76 46.832 295.312 44.7227 295.312 40.5039C295.312 36.168 296.76 34 299.654 34C302.549 34 303.996 36.168 303.996 40.5039C303.996 44.7227 302.549 46.832 299.654 46.832ZM299.646 41.998C299.276 41.998 298.978 41.8633 298.749 41.5938C298.526 41.3184 298.415 40.9551 298.415 40.5039C298.415 40.0527 298.526 39.6924 298.749 39.4229C298.978 39.1475 299.276 39.0098 299.646 39.0098C300.015 39.0098 300.311 39.1475 300.533 39.4229C300.762 39.6924 300.876 40.0527 300.876 40.5039C300.876 40.9551 300.762 41.3184 300.533 41.5938C300.311 41.8633 300.015 41.998 299.646 41.998ZM299.654 44.8545C301.09 44.8545 301.808 43.4043 301.808 40.5039C301.808 37.4863 301.09 35.9775 299.654 35.9775C298.207 35.9775 297.483 37.4863 297.483 40.5039C297.483 43.4043 298.207 44.8545 299.654 44.8545ZM310.201 46.832C307.307 46.832 305.859 44.7227 305.859 40.5039C305.859 36.168 307.307 34 310.201 34C313.096 34 314.543 36.168 314.543 40.5039C314.543 44.7227 313.096 46.832 310.201 46.832ZM310.192 41.998C309.823 41.998 309.524 41.8633 309.296 41.5938C309.073 41.3184 308.962 40.9551 308.962 40.5039C308.962 40.0527 309.073 39.6924 309.296 39.4229C309.524 39.1475 309.823 39.0098 310.192 39.0098C310.562 39.0098 310.857 39.1475 311.08 39.4229C311.309 39.6924 311.423 40.0527 311.423 40.5039C311.423 40.9551 311.309 41.3184 311.08 41.5938C310.857 41.8633 310.562 41.998 310.192 41.998ZM310.201 44.8545C311.637 44.8545 312.354 43.4043 312.354 40.5039C312.354 37.4863 311.637 35.9775 310.201 35.9775C308.754 35.9775 308.03 37.4863 308.03 40.5039C308.03 43.4043 308.754 44.8545 310.201 44.8545ZM319.948 46.6562V34.1758H322.075V46.6562H319.948ZM316.881 46.6562V44.7578H320.124V46.6562H316.881ZM321.899 46.6562V44.7578H324.809V46.6562H321.899ZM317.057 37.2695V35.2305L319.948 34.1758V36.25L317.057 37.2695ZM4.3418 63.832C1.44727 63.832 0 61.7227 0 57.5039C0 53.168 1.44727 51 4.3418 51C7.23633 51 8.68359 53.168 8.68359 57.5039C8.68359 61.7227 7.23633 63.832 4.3418 63.832ZM4.33301 58.998C3.96387 58.998 3.66504 58.8633 3.43652 58.5938C3.21387 58.3184 3.10254 57.9551 3.10254 57.5039C3.10254 57.0527 3.21387 56.6924 3.43652 56.4229C3.66504 56.1475 3.96387 56.0098 4.33301 56.0098C4.70215 56.0098 4.99805 56.1475 5.2207 56.4229C5.44922 56.6924 5.56348 57.0527 5.56348 57.5039C5.56348 57.9551 5.44922 58.3184 5.2207 58.5938C4.99805 58.8633 4.70215 58.998 4.33301 58.998ZM4.3418 61.8545C5.77734 61.8545 6.49512 60.4043 6.49512 57.5039C6.49512 54.4863 5.77734 52.9775 4.3418 52.9775C2.89453 52.9775 2.1709 54.4863 2.1709 57.5039C2.1709 60.4043 2.89453 61.8545 4.3418 61.8545ZM14.0889 63.6562V51.1758H16.2158V63.6562H14.0889ZM11.0215 63.6562V61.7578H14.2646V63.6562H11.0215ZM16.04 63.6562V61.7578H18.9492V63.6562H16.04ZM11.1973 54.2695V52.2305L14.0889 51.1758V53.25L11.1973 54.2695ZM25.4355 63.832C22.541 63.832 21.0938 61.7227 21.0938 57.5039C21.0938 53.168 22.541 51 25.4355 51C28.3301 51 29.7773 53.168 29.7773 57.5039C29.7773 61.7227 28.3301 63.832 25.4355 63.832ZM25.4268 58.998C25.0576 58.998 24.7588 58.8633 24.5303 58.5938C24.3076 58.3184 24.1963 57.9551 24.1963 57.5039C24.1963 57.0527 24.3076 56.6924 24.5303 56.4229C24.7588 56.1475 25.0576 56.0098 25.4268 56.0098C25.7959 56.0098 26.0918 56.1475 26.3145 56.4229C26.543 56.6924 26.6572 57.0527 26.6572 57.5039C26.6572 57.9551 26.543 58.3184 26.3145 58.5938C26.0918 58.8633 25.7959 58.998 25.4268 58.998ZM25.4355 61.8545C26.8711 61.8545 27.5889 60.4043 27.5889 57.5039C27.5889 54.4863 26.8711 52.9775 25.4355 52.9775C23.9883 52.9775 23.2646 54.4863 23.2646 57.5039C23.2646 60.4043 23.9883 61.8545 25.4355 61.8545ZM35.1826 63.6562V51.1758H37.3096V63.6562H35.1826ZM32.1152 63.6562V61.7578H35.3584V63.6562H32.1152ZM37.1338 63.6562V61.7578H40.043V63.6562H37.1338ZM32.291 54.2695V52.2305L35.1826 51.1758V53.25L32.291 54.2695ZM45.7295 63.6562V51.1758H47.8564V63.6562H45.7295ZM42.6621 63.6562V61.7578H45.9053V63.6562H42.6621ZM47.6807 63.6562V61.7578H50.5898V63.6562H47.6807ZM42.8379 54.2695V52.2305L45.7295 51.1758V53.25L42.8379 54.2695ZM57.0762 63.832C54.1816 63.832 52.7344 61.7227 52.7344 57.5039C52.7344 53.168 54.1816 51 57.0762 51C59.9707 51 61.418 53.168 61.418 57.5039C61.418 61.7227 59.9707 63.832 57.0762 63.832ZM57.0674 58.998C56.6982 58.998 56.3994 58.8633 56.1709 58.5938C55.9482 58.3184 55.8369 57.9551 55.8369 57.5039C55.8369 57.0527 55.9482 56.6924 56.1709 56.4229C56.3994 56.1475 56.6982 56.0098 57.0674 56.0098C57.4365 56.0098 57.7324 56.1475 57.9551 56.4229C58.1836 56.6924 58.2979 57.0527 58.2979 57.5039C58.2979 57.9551 58.1836 58.3184 57.9551 58.5938C57.7324 58.8633 57.4365 58.998 57.0674 58.998ZM57.0762 61.8545C58.5117 61.8545 59.2295 60.4043 59.2295 57.5039C59.2295 54.4863 58.5117 52.9775 57.0762 52.9775C55.6289 52.9775 54.9053 54.4863 54.9053 57.5039C54.9053 60.4043 55.6289 61.8545 57.0762 61.8545ZM67.623 63.832C64.7285 63.832 63.2812 61.7227 63.2812 57.5039C63.2812 53.168 64.7285 51 67.623 51C70.5176 51 71.9648 53.168 71.9648 57.5039C71.9648 61.7227 70.5176 63.832 67.623 63.832ZM67.6143 58.998C67.2451 58.998 66.9463 58.8633 66.7178 58.5938C66.4951 58.3184 66.3838 57.9551 66.3838 57.5039C66.3838 57.0527 66.4951 56.6924 66.7178 56.4229C66.9463 56.1475 67.2451 56.0098 67.6143 56.0098C67.9834 56.0098 68.2793 56.1475 68.502 56.4229C68.7305 56.6924 68.8447 57.0527 68.8447 57.5039C68.8447 57.9551 68.7305 58.3184 68.502 58.5938C68.2793 58.8633 67.9834 58.998 67.6143 58.998ZM67.623 61.8545C69.0586 61.8545 69.7764 60.4043 69.7764 57.5039C69.7764 54.4863 69.0586 52.9775 67.623 52.9775C66.1758 52.9775 65.4521 54.4863 65.4521 57.5039C65.4521 60.4043 66.1758 61.8545 67.623 61.8545ZM77.3701 63.6562V51.1758H79.4971V63.6562H77.3701ZM74.3027 63.6562V61.7578H77.5459V63.6562H74.3027ZM79.3213 63.6562V61.7578H82.2305V63.6562H79.3213ZM74.4785 54.2695V52.2305L77.3701 51.1758V53.25L74.4785 54.2695ZM88.7168 63.832C85.8223 63.832 84.375 61.7227 84.375 57.5039C84.375 53.168 85.8223 51 88.7168 51C91.6113 51 93.0586 53.168 93.0586 57.5039C93.0586 61.7227 91.6113 63.832 88.7168 63.832ZM88.708 58.998C88.3389 58.998 88.04 58.8633 87.8115 58.5938C87.5889 58.3184 87.4775 57.9551 87.4775 57.5039C87.4775 57.0527 87.5889 56.6924 87.8115 56.4229C88.04 56.1475 88.3389 56.0098 88.708 56.0098C89.0771 56.0098 89.373 56.1475 89.5957 56.4229C89.8242 56.6924 89.9385 57.0527 89.9385 57.5039C89.9385 57.9551 89.8242 58.3184 89.5957 58.5938C89.373 58.8633 89.0771 58.998 88.708 58.998ZM88.7168 61.8545C90.1523 61.8545 90.8701 60.4043 90.8701 57.5039C90.8701 54.4863 90.1523 52.9775 88.7168 52.9775C87.2695 52.9775 86.5459 54.4863 86.5459 57.5039C86.5459 60.4043 87.2695 61.8545 88.7168 61.8545ZM99.2637 63.832C96.3691 63.832 94.9219 61.7227 94.9219 57.5039C94.9219 53.168 96.3691 51 99.2637 51C102.158 51 103.605 53.168 103.605 57.5039C103.605 61.7227 102.158 63.832 99.2637 63.832ZM99.2549 58.998C98.8857 58.998 98.5869 58.8633 98.3584 58.5938C98.1357 58.3184 98.0244 57.9551 98.0244 57.5039C98.0244 57.0527 98.1357 56.6924 98.3584 56.4229C98.5869 56.1475 98.8857 56.0098 99.2549 56.0098C99.624 56.0098 99.9199 56.1475 100.143 56.4229C100.371 56.6924 100.485 57.0527 100.485 57.5039C100.485 57.9551 100.371 58.3184 100.143 58.5938C99.9199 58.8633 99.624 58.998 99.2549 58.998ZM99.2637 61.8545C100.699 61.8545 101.417 60.4043 101.417 57.5039C101.417 54.4863 100.699 52.9775 99.2637 52.9775C97.8164 52.9775 97.0928 54.4863 97.0928 57.5039C97.0928 60.4043 97.8164 61.8545 99.2637 61.8545ZM109.011 63.6562V51.1758H111.138V63.6562H109.011ZM105.943 63.6562V61.7578H109.187V63.6562H105.943ZM110.962 63.6562V61.7578H113.871V63.6562H110.962ZM106.119 54.2695V52.2305L109.011 51.1758V53.25L106.119 54.2695ZM119.558 63.6562V51.1758H121.685V63.6562H119.558ZM116.49 63.6562V61.7578H119.733V63.6562H116.49ZM121.509 63.6562V61.7578H124.418V63.6562H121.509ZM116.666 54.2695V52.2305L119.558 51.1758V53.25L116.666 54.2695ZM130.104 63.6562V51.1758H132.231V63.6562H130.104ZM127.037 63.6562V61.7578H130.28V63.6562H127.037ZM132.056 63.6562V61.7578H134.965V63.6562H132.056ZM127.213 54.2695V52.2305L130.104 51.1758V53.25L127.213 54.2695ZM141.451 63.832C138.557 63.832 137.109 61.7227 137.109 57.5039C137.109 53.168 138.557 51 141.451 51C144.346 51 145.793 53.168 145.793 57.5039C145.793 61.7227 144.346 63.832 141.451 63.832ZM141.442 58.998C141.073 58.998 140.774 58.8633 140.546 58.5938C140.323 58.3184 140.212 57.9551 140.212 57.5039C140.212 57.0527 140.323 56.6924 140.546 56.4229C140.774 56.1475 141.073 56.0098 141.442 56.0098C141.812 56.0098 142.107 56.1475 142.33 56.4229C142.559 56.6924 142.673 57.0527 142.673 57.5039C142.673 57.9551 142.559 58.3184 142.33 58.5938C142.107 58.8633 141.812 58.998 141.442 58.998ZM141.451 61.8545C142.887 61.8545 143.604 60.4043 143.604 57.5039C143.604 54.4863 142.887 52.9775 141.451 52.9775C140.004 52.9775 139.28 54.4863 139.28 57.5039C139.28 60.4043 140.004 61.8545 141.451 61.8545ZM151.198 63.6562V51.1758H153.325V63.6562H151.198ZM148.131 63.6562V61.7578H151.374V63.6562H148.131ZM153.149 63.6562V61.7578H156.059V63.6562H153.149ZM148.307 54.2695V52.2305L151.198 51.1758V53.25L148.307 54.2695ZM162.545 63.832C159.65 63.832 158.203 61.7227 158.203 57.5039C158.203 53.168 159.65 51 162.545 51C165.439 51 166.887 53.168 166.887 57.5039C166.887 61.7227 165.439 63.832 162.545 63.832ZM162.536 58.998C162.167 58.998 161.868 58.8633 161.64 58.5938C161.417 58.3184 161.306 57.9551 161.306 57.5039C161.306 57.0527 161.417 56.6924 161.64 56.4229C161.868 56.1475 162.167 56.0098 162.536 56.0098C162.905 56.0098 163.201 56.1475 163.424 56.4229C163.652 56.6924 163.767 57.0527 163.767 57.5039C163.767 57.9551 163.652 58.3184 163.424 58.5938C163.201 58.8633 162.905 58.998 162.536 58.998ZM162.545 61.8545C163.98 61.8545 164.698 60.4043 164.698 57.5039C164.698 54.4863 163.98 52.9775 162.545 52.9775C161.098 52.9775 160.374 54.4863 160.374 57.5039C160.374 60.4043 161.098 61.8545 162.545 61.8545ZM172.292 63.6562V51.1758H174.419V63.6562H172.292ZM169.225 63.6562V61.7578H172.468V63.6562H169.225ZM174.243 63.6562V61.7578H177.152V63.6562H174.243ZM169.4 54.2695V52.2305L172.292 51.1758V53.25L169.4 54.2695ZM183.639 63.832C180.744 63.832 179.297 61.7227 179.297 57.5039C179.297 53.168 180.744 51 183.639 51C186.533 51 187.98 53.168 187.98 57.5039C187.98 61.7227 186.533 63.832 183.639 63.832ZM183.63 58.998C183.261 58.998 182.962 58.8633 182.733 58.5938C182.511 58.3184 182.399 57.9551 182.399 57.5039C182.399 57.0527 182.511 56.6924 182.733 56.4229C182.962 56.1475 183.261 56.0098 183.63 56.0098C183.999 56.0098 184.295 56.1475 184.518 56.4229C184.746 56.6924 184.86 57.0527 184.86 57.5039C184.86 57.9551 184.746 58.3184 184.518 58.5938C184.295 58.8633 183.999 58.998 183.63 58.998ZM183.639 61.8545C185.074 61.8545 185.792 60.4043 185.792 57.5039C185.792 54.4863 185.074 52.9775 183.639 52.9775C182.191 52.9775 181.468 54.4863 181.468 57.5039C181.468 60.4043 182.191 61.8545 183.639 61.8545ZM194.186 63.832C191.291 63.832 189.844 61.7227 189.844 57.5039C189.844 53.168 191.291 51 194.186 51C197.08 51 198.527 53.168 198.527 57.5039C198.527 61.7227 197.08 63.832 194.186 63.832ZM194.177 58.998C193.808 58.998 193.509 58.8633 193.28 58.5938C193.058 58.3184 192.946 57.9551 192.946 57.5039C192.946 57.0527 193.058 56.6924 193.28 56.4229C193.509 56.1475 193.808 56.0098 194.177 56.0098C194.546 56.0098 194.842 56.1475 195.064 56.4229C195.293 56.6924 195.407 57.0527 195.407 57.5039C195.407 57.9551 195.293 58.3184 195.064 58.5938C194.842 58.8633 194.546 58.998 194.177 58.998ZM194.186 61.8545C195.621 61.8545 196.339 60.4043 196.339 57.5039C196.339 54.4863 195.621 52.9775 194.186 52.9775C192.738 52.9775 192.015 54.4863 192.015 57.5039C192.015 60.4043 192.738 61.8545 194.186 61.8545ZM204.732 63.832C201.838 63.832 200.391 61.7227 200.391 57.5039C200.391 53.168 201.838 51 204.732 51C207.627 51 209.074 53.168 209.074 57.5039C209.074 61.7227 207.627 63.832 204.732 63.832ZM204.724 58.998C204.354 58.998 204.056 58.8633 203.827 58.5938C203.604 58.3184 203.493 57.9551 203.493 57.5039C203.493 57.0527 203.604 56.6924 203.827 56.4229C204.056 56.1475 204.354 56.0098 204.724 56.0098C205.093 56.0098 205.389 56.1475 205.611 56.4229C205.84 56.6924 205.954 57.0527 205.954 57.5039C205.954 57.9551 205.84 58.3184 205.611 58.5938C205.389 58.8633 205.093 58.998 204.724 58.998ZM204.732 61.8545C206.168 61.8545 206.886 60.4043 206.886 57.5039C206.886 54.4863 206.168 52.9775 204.732 52.9775C203.285 52.9775 202.562 54.4863 202.562 57.5039C202.562 60.4043 203.285 61.8545 204.732 61.8545ZM214.479 63.6562V51.1758H216.606V63.6562H214.479ZM211.412 63.6562V61.7578H214.655V63.6562H211.412ZM216.431 63.6562V61.7578H219.34V63.6562H216.431ZM211.588 54.2695V52.2305L214.479 51.1758V53.25L211.588 54.2695ZM225.826 63.832C222.932 63.832 221.484 61.7227 221.484 57.5039C221.484 53.168 222.932 51 225.826 51C228.721 51 230.168 53.168 230.168 57.5039C230.168 61.7227 228.721 63.832 225.826 63.832ZM225.817 58.998C225.448 58.998 225.149 58.8633 224.921 58.5938C224.698 58.3184 224.587 57.9551 224.587 57.5039C224.587 57.0527 224.698 56.6924 224.921 56.4229C225.149 56.1475 225.448 56.0098 225.817 56.0098C226.187 56.0098 226.482 56.1475 226.705 56.4229C226.934 56.6924 227.048 57.0527 227.048 57.5039C227.048 57.9551 226.934 58.3184 226.705 58.5938C226.482 58.8633 226.187 58.998 225.817 58.998ZM225.826 61.8545C227.262 61.8545 227.979 60.4043 227.979 57.5039C227.979 54.4863 227.262 52.9775 225.826 52.9775C224.379 52.9775 223.655 54.4863 223.655 57.5039C223.655 60.4043 224.379 61.8545 225.826 61.8545ZM236.373 63.832C233.479 63.832 232.031 61.7227 232.031 57.5039C232.031 53.168 233.479 51 236.373 51C239.268 51 240.715 53.168 240.715 57.5039C240.715 61.7227 239.268 63.832 236.373 63.832ZM236.364 58.998C235.995 58.998 235.696 58.8633 235.468 58.5938C235.245 58.3184 235.134 57.9551 235.134 57.5039C235.134 57.0527 235.245 56.6924 235.468 56.4229C235.696 56.1475 235.995 56.0098 236.364 56.0098C236.733 56.0098 237.029 56.1475 237.252 56.4229C237.48 56.6924 237.595 57.0527 237.595 57.5039C237.595 57.9551 237.48 58.3184 237.252 58.5938C237.029 58.8633 236.733 58.998 236.364 58.998ZM236.373 61.8545C237.809 61.8545 238.526 60.4043 238.526 57.5039C238.526 54.4863 237.809 52.9775 236.373 52.9775C234.926 52.9775 234.202 54.4863 234.202 57.5039C234.202 60.4043 234.926 61.8545 236.373 61.8545ZM246.92 63.832C244.025 63.832 242.578 61.7227 242.578 57.5039C242.578 53.168 244.025 51 246.92 51C249.814 51 251.262 53.168 251.262 57.5039C251.262 61.7227 249.814 63.832 246.92 63.832ZM246.911 58.998C246.542 58.998 246.243 58.8633 246.015 58.5938C245.792 58.3184 245.681 57.9551 245.681 57.5039C245.681 57.0527 245.792 56.6924 246.015 56.4229C246.243 56.1475 246.542 56.0098 246.911 56.0098C247.28 56.0098 247.576 56.1475 247.799 56.4229C248.027 56.6924 248.142 57.0527 248.142 57.5039C248.142 57.9551 248.027 58.3184 247.799 58.5938C247.576 58.8633 247.28 58.998 246.911 58.998ZM246.92 61.8545C248.355 61.8545 249.073 60.4043 249.073 57.5039C249.073 54.4863 248.355 52.9775 246.92 52.9775C245.473 52.9775 244.749 54.4863 244.749 57.5039C244.749 60.4043 245.473 61.8545 246.92 61.8545ZM256.667 63.6562V51.1758H258.794V63.6562H256.667ZM253.6 63.6562V61.7578H256.843V63.6562H253.6ZM258.618 63.6562V61.7578H261.527V63.6562H258.618ZM253.775 54.2695V52.2305L256.667 51.1758V53.25L253.775 54.2695ZM268.014 63.832C265.119 63.832 263.672 61.7227 263.672 57.5039C263.672 53.168 265.119 51 268.014 51C270.908 51 272.355 53.168 272.355 57.5039C272.355 61.7227 270.908 63.832 268.014 63.832ZM268.005 58.998C267.636 58.998 267.337 58.8633 267.108 58.5938C266.886 58.3184 266.774 57.9551 266.774 57.5039C266.774 57.0527 266.886 56.6924 267.108 56.4229C267.337 56.1475 267.636 56.0098 268.005 56.0098C268.374 56.0098 268.67 56.1475 268.893 56.4229C269.121 56.6924 269.235 57.0527 269.235 57.5039C269.235 57.9551 269.121 58.3184 268.893 58.5938C268.67 58.8633 268.374 58.998 268.005 58.998ZM268.014 61.8545C269.449 61.8545 270.167 60.4043 270.167 57.5039C270.167 54.4863 269.449 52.9775 268.014 52.9775C266.566 52.9775 265.843 54.4863 265.843 57.5039C265.843 60.4043 266.566 61.8545 268.014 61.8545ZM277.761 63.6562V51.1758H279.888V63.6562H277.761ZM274.693 63.6562V61.7578H277.937V63.6562H274.693ZM279.712 63.6562V61.7578H282.621V63.6562H279.712ZM274.869 54.2695V52.2305L277.761 51.1758V53.25L274.869 54.2695ZM289.107 63.832C286.213 63.832 284.766 61.7227 284.766 57.5039C284.766 53.168 286.213 51 289.107 51C292.002 51 293.449 53.168 293.449 57.5039C293.449 61.7227 292.002 63.832 289.107 63.832ZM289.099 58.998C288.729 58.998 288.431 58.8633 288.202 58.5938C287.979 58.3184 287.868 57.9551 287.868 57.5039C287.868 57.0527 287.979 56.6924 288.202 56.4229C288.431 56.1475 288.729 56.0098 289.099 56.0098C289.468 56.0098 289.764 56.1475 289.986 56.4229C290.215 56.6924 290.329 57.0527 290.329 57.5039C290.329 57.9551 290.215 58.3184 289.986 58.5938C289.764 58.8633 289.468 58.998 289.099 58.998ZM289.107 61.8545C290.543 61.8545 291.261 60.4043 291.261 57.5039C291.261 54.4863 290.543 52.9775 289.107 52.9775C287.66 52.9775 286.937 54.4863 286.937 57.5039C286.937 60.4043 287.66 61.8545 289.107 61.8545ZM298.854 63.6562V51.1758H300.981V63.6562H298.854ZM295.787 63.6562V61.7578H299.03V63.6562H295.787ZM300.806 63.6562V61.7578H303.715V63.6562H300.806ZM295.963 54.2695V52.2305L298.854 51.1758V53.25L295.963 54.2695ZM309.401 63.6562V51.1758H311.528V63.6562H309.401ZM306.334 63.6562V61.7578H309.577V63.6562H306.334ZM311.353 63.6562V61.7578H314.262V63.6562H311.353ZM306.51 54.2695V52.2305L309.401 51.1758V53.25L306.51 54.2695ZM320.748 63.832C317.854 63.832 316.406 61.7227 316.406 57.5039C316.406 53.168 317.854 51 320.748 51C323.643 51 325.09 53.168 325.09 57.5039C325.09 61.7227 323.643 63.832 320.748 63.832ZM320.739 58.998C320.37 58.998 320.071 58.8633 319.843 58.5938C319.62 58.3184 319.509 57.9551 319.509 57.5039C319.509 57.0527 319.62 56.6924 319.843 56.4229C320.071 56.1475 320.37 56.0098 320.739 56.0098C321.108 56.0098 321.404 56.1475 321.627 56.4229C321.855 56.6924 321.97 57.0527 321.97 57.5039C321.97 57.9551 321.855 58.3184 321.627 58.5938C321.404 58.8633 321.108 58.998 320.739 58.998ZM320.748 61.8545C322.184 61.8545 322.901 60.4043 322.901 57.5039C322.901 54.4863 322.184 52.9775 320.748 52.9775C319.301 52.9775 318.577 54.4863 318.577 57.5039C318.577 60.4043 319.301 61.8545 320.748 61.8545ZM4.3418 80.832C1.44727 80.832 0 78.7227 0 74.5039C0 70.168 1.44727 68 4.3418 68C7.23633 68 8.68359 70.168 8.68359 74.5039C8.68359 78.7227 7.23633 80.832 4.3418 80.832ZM4.33301 75.998C3.96387 75.998 3.66504 75.8633 3.43652 75.5938C3.21387 75.3184 3.10254 74.9551 3.10254 74.5039C3.10254 74.0527 3.21387 73.6924 3.43652 73.4229C3.66504 73.1475 3.96387 73.0098 4.33301 73.0098C4.70215 73.0098 4.99805 73.1475 5.2207 73.4229C5.44922 73.6924 5.56348 74.0527 5.56348 74.5039C5.56348 74.9551 5.44922 75.3184 5.2207 75.5938C4.99805 75.8633 4.70215 75.998 4.33301 75.998ZM4.3418 78.8545C5.77734 78.8545 6.49512 77.4043 6.49512 74.5039C6.49512 71.4863 5.77734 69.9775 4.3418 69.9775C2.89453 69.9775 2.1709 71.4863 2.1709 74.5039C2.1709 77.4043 2.89453 78.8545 4.3418 78.8545ZM14.0889 80.6562V68.1758H16.2158V80.6562H14.0889ZM11.0215 80.6562V78.7578H14.2646V80.6562H11.0215ZM16.04 80.6562V78.7578H18.9492V80.6562H16.04ZM11.1973 71.2695V69.2305L14.0889 68.1758V70.25L11.1973 71.2695ZM25.4355 80.832C22.541 80.832 21.0938 78.7227 21.0938 74.5039C21.0938 70.168 22.541 68 25.4355 68C28.3301 68 29.7773 70.168 29.7773 74.5039C29.7773 78.7227 28.3301 80.832 25.4355 80.832ZM25.4268 75.998C25.0576 75.998 24.7588 75.8633 24.5303 75.5938C24.3076 75.3184 24.1963 74.9551 24.1963 74.5039C24.1963 74.0527 24.3076 73.6924 24.5303 73.4229C24.7588 73.1475 25.0576 73.0098 25.4268 73.0098C25.7959 73.0098 26.0918 73.1475 26.3145 73.4229C26.543 73.6924 26.6572 74.0527 26.6572 74.5039C26.6572 74.9551 26.543 75.3184 26.3145 75.5938C26.0918 75.8633 25.7959 75.998 25.4268 75.998ZM25.4355 78.8545C26.8711 78.8545 27.5889 77.4043 27.5889 74.5039C27.5889 71.4863 26.8711 69.9775 25.4355 69.9775C23.9883 69.9775 23.2646 71.4863 23.2646 74.5039C23.2646 77.4043 23.9883 78.8545 25.4355 78.8545ZM35.9824 80.832C33.0879 80.832 31.6406 78.7227 31.6406 74.5039C31.6406 70.168 33.0879 68 35.9824 68C38.877 68 40.3242 70.168 40.3242 74.5039C40.3242 78.7227 38.877 80.832 35.9824 80.832ZM35.9736 75.998C35.6045 75.998 35.3057 75.8633 35.0771 75.5938C34.8545 75.3184 34.7432 74.9551 34.7432 74.5039C34.7432 74.0527 34.8545 73.6924 35.0771 73.4229C35.3057 73.1475 35.6045 73.0098 35.9736 73.0098C36.3428 73.0098 36.6387 73.1475 36.8613 73.4229C37.0898 73.6924 37.2041 74.0527 37.2041 74.5039C37.2041 74.9551 37.0898 75.3184 36.8613 75.5938C36.6387 75.8633 36.3428 75.998 35.9736 75.998ZM35.9824 78.8545C37.418 78.8545 38.1357 77.4043 38.1357 74.5039C38.1357 71.4863 37.418 69.9775 35.9824 69.9775C34.5352 69.9775 33.8115 71.4863 33.8115 74.5039C33.8115 77.4043 34.5352 78.8545 35.9824 78.8545ZM45.7295 80.6562V68.1758H47.8564V80.6562H45.7295ZM42.6621 80.6562V78.7578H45.9053V80.6562H42.6621ZM47.6807 80.6562V78.7578H50.5898V80.6562H47.6807ZM42.8379 71.2695V69.2305L45.7295 68.1758V70.25L42.8379 71.2695ZM56.2764 80.6562V68.1758H58.4033V80.6562H56.2764ZM53.209 80.6562V78.7578H56.4521V80.6562H53.209ZM58.2275 80.6562V78.7578H61.1367V80.6562H58.2275ZM53.3848 71.2695V69.2305L56.2764 68.1758V70.25L53.3848 71.2695ZM67.623 80.832C64.7285 80.832 63.2812 78.7227 63.2812 74.5039C63.2812 70.168 64.7285 68 67.623 68C70.5176 68 71.9648 70.168 71.9648 74.5039C71.9648 78.7227 70.5176 80.832 67.623 80.832ZM67.6143 75.998C67.2451 75.998 66.9463 75.8633 66.7178 75.5938C66.4951 75.3184 66.3838 74.9551 66.3838 74.5039C66.3838 74.0527 66.4951 73.6924 66.7178 73.4229C66.9463 73.1475 67.2451 73.0098 67.6143 73.0098C67.9834 73.0098 68.2793 73.1475 68.502 73.4229C68.7305 73.6924 68.8447 74.0527 68.8447 74.5039C68.8447 74.9551 68.7305 75.3184 68.502 75.5938C68.2793 75.8633 67.9834 75.998 67.6143 75.998ZM67.623 78.8545C69.0586 78.8545 69.7764 77.4043 69.7764 74.5039C69.7764 71.4863 69.0586 69.9775 67.623 69.9775C66.1758 69.9775 65.4521 71.4863 65.4521 74.5039C65.4521 77.4043 66.1758 78.8545 67.623 78.8545ZM77.3701 80.6562V68.1758H79.4971V80.6562H77.3701ZM74.3027 80.6562V78.7578H77.5459V80.6562H74.3027ZM79.3213 80.6562V78.7578H82.2305V80.6562H79.3213ZM74.4785 71.2695V69.2305L77.3701 68.1758V70.25L74.4785 71.2695ZM88.7168 80.832C85.8223 80.832 84.375 78.7227 84.375 74.5039C84.375 70.168 85.8223 68 88.7168 68C91.6113 68 93.0586 70.168 93.0586 74.5039C93.0586 78.7227 91.6113 80.832 88.7168 80.832ZM88.708 75.998C88.3389 75.998 88.04 75.8633 87.8115 75.5938C87.5889 75.3184 87.4775 74.9551 87.4775 74.5039C87.4775 74.0527 87.5889 73.6924 87.8115 73.4229C88.04 73.1475 88.3389 73.0098 88.708 73.0098C89.0771 73.0098 89.373 73.1475 89.5957 73.4229C89.8242 73.6924 89.9385 74.0527 89.9385 74.5039C89.9385 74.9551 89.8242 75.3184 89.5957 75.5938C89.373 75.8633 89.0771 75.998 88.708 75.998ZM88.7168 78.8545C90.1523 78.8545 90.8701 77.4043 90.8701 74.5039C90.8701 71.4863 90.1523 69.9775 88.7168 69.9775C87.2695 69.9775 86.5459 71.4863 86.5459 74.5039C86.5459 77.4043 87.2695 78.8545 88.7168 78.8545ZM98.4639 80.6562V68.1758H100.591V80.6562H98.4639ZM95.3965 80.6562V78.7578H98.6396V80.6562H95.3965ZM100.415 80.6562V78.7578H103.324V80.6562H100.415ZM95.5723 71.2695V69.2305L98.4639 68.1758V70.25L95.5723 71.2695ZM109.811 80.832C106.916 80.832 105.469 78.7227 105.469 74.5039C105.469 70.168 106.916 68 109.811 68C112.705 68 114.152 70.168 114.152 74.5039C114.152 78.7227 112.705 80.832 109.811 80.832ZM109.802 75.998C109.433 75.998 109.134 75.8633 108.905 75.5938C108.683 75.3184 108.571 74.9551 108.571 74.5039C108.571 74.0527 108.683 73.6924 108.905 73.4229C109.134 73.1475 109.433 73.0098 109.802 73.0098C110.171 73.0098 110.467 73.1475 110.689 73.4229C110.918 73.6924 111.032 74.0527 111.032 74.5039C111.032 74.9551 110.918 75.3184 110.689 75.5938C110.467 75.8633 110.171 75.998 109.802 75.998ZM109.811 78.8545C111.246 78.8545 111.964 77.4043 111.964 74.5039C111.964 71.4863 111.246 69.9775 109.811 69.9775C108.363 69.9775 107.64 71.4863 107.64 74.5039C107.64 77.4043 108.363 78.8545 109.811 78.8545ZM120.357 80.832C117.463 80.832 116.016 78.7227 116.016 74.5039C116.016 70.168 117.463 68 120.357 68C123.252 68 124.699 70.168 124.699 74.5039C124.699 78.7227 123.252 80.832 120.357 80.832ZM120.349 75.998C119.979 75.998 119.681 75.8633 119.452 75.5938C119.229 75.3184 119.118 74.9551 119.118 74.5039C119.118 74.0527 119.229 73.6924 119.452 73.4229C119.681 73.1475 119.979 73.0098 120.349 73.0098C120.718 73.0098 121.014 73.1475 121.236 73.4229C121.465 73.6924 121.579 74.0527 121.579 74.5039C121.579 74.9551 121.465 75.3184 121.236 75.5938C121.014 75.8633 120.718 75.998 120.349 75.998ZM120.357 78.8545C121.793 78.8545 122.511 77.4043 122.511 74.5039C122.511 71.4863 121.793 69.9775 120.357 69.9775C118.91 69.9775 118.187 71.4863 118.187 74.5039C118.187 77.4043 118.91 78.8545 120.357 78.8545Z" fill="#2D2D2D" fill-opacity="0.12"/>
</svg>
