<svg width="35" height="35" viewBox="0 0 35 35" fill="none" xmlns="http://www.w3.org/2000/svg">
<mask id="mask0_305_34260" style="mask-type:luminance" maskUnits="userSpaceOnUse" x="0" y="0" width="35" height="35">
<path d="M34.3915 0H0V34.3915H34.3915V0Z" fill="white"/>
</mask>
<g mask="url(#mask0_305_34260)">
<path d="M33.7032 17.5862C33.7032 16.3669 33.5939 15.1945 33.3906 14.0688H17.1953V20.7205H26.4497C26.0511 22.87 24.8397 24.6912 23.0185 25.9105V30.2251H28.5758C31.8274 27.2315 33.7032 22.823 33.7032 17.5862Z" fill="#4285F4"/>
<path d="M17.1959 34.391C21.8388 34.391 25.7312 32.8511 28.5763 30.225L23.0189 25.9104C21.4792 26.9421 19.5094 27.5517 17.1959 27.5517C12.7171 27.5517 8.92631 24.5268 7.57403 20.4624H1.8291V24.9177C4.65866 30.5376 10.4739 34.391 17.1959 34.391Z" fill="#34A853"/>
<path d="M7.57387 20.4633C7.22996 19.4315 7.03462 18.3295 7.03462 17.1961C7.03462 16.0627 7.22996 14.9606 7.57387 13.9289V9.47363H1.82894C0.664444 11.7951 0 14.4214 0 17.1961C0 19.9708 0.664444 22.5971 1.82894 24.9185L7.57387 20.4633Z" fill="#FBBC04"/>
<path d="M17.1959 6.83927C19.7204 6.83927 21.9872 7.7068 23.7694 9.41073L28.7014 4.47864C25.7235 1.70393 21.8309 0 17.1959 0C10.4739 0 4.65867 3.8534 1.8291 9.47332L7.57403 13.9286C8.92631 9.86418 12.7171 6.83927 17.1959 6.83927Z" fill="#E94235"/>
</g>
</svg>
